<?xml version="1.0" encoding="UTF-8" standalone="no"?><!DOCTYPE svg PUBLIC "-//W3C//DTD SVG 1.1//EN" "http://www.w3.org/Graphics/SVG/1.1/DTD/svg11.dtd"><svg width="100%" height="100%" viewBox="0 0 750 1050" version="1.1" xmlns="http://www.w3.org/2000/svg" xmlns:xlink="http://www.w3.org/1999/xlink" xml:space="preserve" xmlns:serif="http://www.serif.com/" style="fill-rule:evenodd;clip-rule:evenodd;stroke-linejoin:round;stroke-miterlimit:2;"><clipPath id="_clip1"><rect x="0" y="5.712" width="750" height="1038.58"/></clipPath><g clip-path="url(#_clip1)"><g><path d="M727.003,5.712c0,0 -216.617,5.935 -352.374,5.935c-135.757,-0 -352.374,-5.935 -352.374,-5.935c-12.611,0 -22.255,9.644 -22.255,22.255l0,985.906c0,12.611 10.386,22.997 22.255,22.997c0,-0 216.617,7.418 352.374,7.418c135.757,-0 352.374,-7.418 352.374,-7.418c12.611,-0.742 22.255,-11.128 22.255,-22.997l0,-985.906c0.742,-12.611 -9.644,-22.255 -22.255,-22.255Z" style="fill:#fff;fill-rule:nonzero;"/><path d="M374.629,355.119l-106.083,164.688l106.083,165.43l106.083,-165.43l-106.083,-164.688Z" style="fill:#c4161c;fill-rule:nonzero;"/><path d="M75.668,131.083l-31.158,49.703l31.158,49.704l31.899,-49.704l-31.899,-49.703Z" style="fill:#c4161c;fill-rule:nonzero;"/><g><path d="M58.605,88.056l12.612,-45.252c0.741,-2.225 1.483,-3.709 1.483,-4.451c0.742,-1.484 2.226,-1.484 3.71,-1.484c2.225,0 3.709,0.742 4.451,1.484c0.741,0.742 1.483,3.709 2.967,8.16l12.611,48.962c0.742,2.967 1.484,5.193 2.226,5.934c0.742,0.742 1.483,1.484 2.225,1.484l3.709,0c2.226,0 3.71,1.484 3.71,3.709c-0,2.968 -1.484,4.451 -3.71,4.451c0,0 -2.225,0 -5.192,-0.742c-1.484,0 -2.968,-0.741 -4.451,-0.741c-1.484,-0 -2.968,-0 -5.193,0.741c-2.226,0.742 -3.71,0.742 -4.451,0.742c-0.742,0 -2.226,-0.742 -2.968,-1.483c-0.742,-0.742 -1.483,-1.484 -1.483,-2.968c-0,-2.225 1.483,-3.709 3.709,-3.709l2.225,0c1.484,0 2.226,-1.484 2.226,-3.709c-0,-1.484 -0,-2.967 -0.742,-4.451l-2.226,-8.16c0,-1.484 -0.741,-1.484 -0.741,-2.226l-14.837,0c-1.484,0 -2.226,1.484 -2.968,3.709l-2.225,7.419c-0.742,2.225 -0.742,3.709 -0.742,4.451c0,1.483 0.742,2.225 2.226,2.225l2.225,0c2.226,0 3.709,1.484 3.709,3.709c0,2.968 -1.483,4.451 -3.709,4.451c-0.742,0 -2.225,0 -4.451,-0.741c-2.225,-0.742 -3.709,-0.742 -4.451,-0.742c-1.484,-0 -3.709,-0 -5.935,0.742c-2.225,0.741 -3.709,0.741 -4.451,0.741c-2.225,0 -3.709,-1.483 -3.709,-3.709c0,-2.967 0.742,-3.709 3.709,-3.709l2.968,0c1.483,0 2.225,-0.742 2.967,-2.967c0.742,-2.968 1.484,-6.677 2.967,-11.87Zm24.481,-14.095l-5.935,-26.706l-6.676,26.706l-0,1.484c-0,0.742 0.742,1.484 2.225,1.484l9.644,-0c1.484,-0 1.484,-0.742 1.484,-1.484c-0.742,-0 -0.742,-0.742 -0.742,-1.484Z" style="fill:#c4161c;fill-rule:nonzero;"/></g><path d="M672.107,911.499l31.899,-49.704l-31.899,-49.703l-31.899,49.703l31.899,49.704Z" style="fill:#c4161c;fill-rule:nonzero;"/><g><path d="M689.169,955.267l-12.611,45.252c-0.742,2.226 -1.484,3.71 -1.484,4.451c-0.741,1.484 -2.225,1.484 -3.709,1.484c-2.225,0 -3.709,-0.742 -4.451,-1.484c-0.742,-0.741 -1.484,-3.709 -2.967,-8.16l-12.612,-48.961c-0.741,-2.968 -1.483,-5.193 -2.225,-5.935c-0.742,-0.742 -1.484,-1.484 -2.226,-1.484l-3.709,0c-2.225,0 -3.709,-1.483 -3.709,-3.709c0,-2.967 1.484,-4.451 3.709,-4.451c0,0 2.226,0 5.193,0.742c1.484,-0 2.967,0.742 4.451,0.742c1.484,-0 2.968,-0 5.193,-0.742c2.226,-0.742 3.709,-0.742 4.451,-0.742c0.742,0 2.226,0.742 2.967,1.484c0.742,0.742 1.484,1.483 1.484,2.967c0,2.226 -1.484,3.709 -3.709,3.709l-2.226,0c-1.483,0 -2.225,1.484 -2.225,3.71c-0,1.483 -0,2.967 0.742,4.451l2.225,8.16c0,1.484 0.742,1.484 0.742,2.225l14.837,0c1.484,0 2.225,-1.483 2.967,-3.709l2.226,-7.418c0.742,-2.226 0.742,-3.709 0.742,-4.451c-0,-1.484 -0.742,-2.226 -2.226,-2.226l-2.225,0c-2.226,0 -3.71,-1.483 -3.71,-3.709c0,-2.967 1.484,-4.451 3.71,-4.451c0.741,-0 2.225,-0 4.451,0.742c2.225,0.742 3.709,0.742 4.451,0.742c1.483,-0 3.709,-0 5.934,-0.742c2.226,-0.742 3.71,-0.742 4.451,-0.742c2.226,-0 3.71,1.484 3.71,3.709c-0,2.968 -0.742,3.709 -3.71,3.709l-2.967,0c-1.484,0 -2.225,0.742 -2.967,2.968c-0,2.225 -1.484,5.934 -2.968,11.869Zm-23.739,13.353l5.935,26.707l6.677,-26.707l-0,-1.483c-0,-0.742 -0.742,-1.484 -2.226,-1.484l-9.644,-0c-1.483,-0 -1.483,0.742 -1.483,1.484c-0,-0 -0,0.741 0.741,1.483Z" style="fill:#c4161c;fill-rule:nonzero;"/></g></g></g></svg>