<?xml version="1.0" encoding="UTF-8" standalone="no"?><!DOCTYPE svg PUBLIC "-//W3C//DTD SVG 1.1//EN" "http://www.w3.org/Graphics/SVG/1.1/DTD/svg11.dtd"><svg width="100%" height="100%" viewBox="0 0 756 1052" version="1.1" xmlns="http://www.w3.org/2000/svg" xmlns:xlink="http://www.w3.org/1999/xlink" xml:space="preserve" xmlns:serif="http://www.serif.com/" style="fill-rule:evenodd;clip-rule:evenodd;stroke-linejoin:round;stroke-miterlimit:2;"><clipPath id="_clip1"><rect x="0" y="-0" width="755.906" height="1051.18"/></clipPath><g clip-path="url(#_clip1)"><g><g><path d="M738.338,1050.67l-720.614,0c-8.946,0 -16.266,-6.561 -16.266,-14.581l-0,-1020.2c-0,-8.02 7.32,-14.582 16.266,-14.582l720.614,0c8.947,0 16.267,6.562 16.267,14.582l-0,1020.2c-0,8.02 -7.32,14.581 -16.267,14.581Z" style="fill:#fff;fill-rule:nonzero;"/><path d="M738.338,1051.89l-720.614,0c-9.76,0 -17.622,-7.047 -17.622,-15.796l0,-1020.2c0,-8.749 7.862,-15.797 17.622,-15.797l720.614,0c9.76,0 17.622,7.048 17.622,15.797l0,1020.2c0,8.749 -7.862,15.796 -17.622,15.796Zm-720.614,-1049.12c-8.133,-0 -14.911,6.075 -14.911,13.366l0,1019.96c0,7.291 6.778,13.366 14.911,13.366l720.614,0c8.133,0 14.911,-6.075 14.911,-13.366l0,-1020.2c0,-7.291 -6.778,-13.366 -14.911,-13.366l-720.614,-0l0,0.243Z" style="fill:#939598;fill-rule:nonzero;"/></g><g><path id="XMLID_1_" d="M36.702,1016.65l0,-981.077c0,-1.458 1.085,-2.43 2.711,-2.43l677.236,0c1.356,0 2.711,0.972 2.711,2.43l0,981.077c0,1.458 -1.355,2.431 -2.711,2.431l-677.236,-0c-1.355,-0 -2.711,-1.216 -2.711,-2.431Z" style="fill:#d91e38;fill-rule:nonzero;"/><g><clipPath id="_clip2"><path d="M36.702,1016.65l0,-981.077c0,-1.458 1.085,-2.43 2.711,-2.43l677.236,0c1.356,0 2.711,0.972 2.711,2.43l0,981.077c0,1.458 -1.355,2.431 -2.711,2.431l-677.236,-0c-1.355,-0 -2.711,-1.216 -2.711,-2.431Z"/></clipPath><g clip-path="url(#_clip2)"><path d="M36.431,76.646l-21.96,-42.772l21.96,-42.771l21.96,42.771l-21.96,42.772Zm-14.098,-42.772l14.098,27.462l14.098,-27.462l-14.098,-27.461l-14.098,27.461Z" style="fill:#fff;fill-rule:nonzero;"/><path d="M72.489,76.646l-21.96,-42.772l21.96,-42.771l21.96,42.771l-21.96,42.772Zm-14.098,-42.772l14.098,27.462l14.098,-27.462l-14.098,-27.461l-14.098,27.461Z" style="fill:#fff;fill-rule:nonzero;"/><path d="M108.276,76.646l-21.689,-42.772l21.689,-42.771l21.96,42.771l-21.96,42.772Zm-14.098,-42.772l14.098,27.462l14.097,-27.462l-14.097,-27.461l-14.098,27.461Z" style="fill:#fff;fill-rule:nonzero;"/><path d="M144.333,76.646l-21.96,-42.772l21.96,-42.771l21.96,42.771l-21.96,42.772Zm-14.097,-42.772l14.097,27.462l14.098,-27.462l-14.098,-27.461l-14.097,27.461Z" style="fill:#fff;fill-rule:nonzero;"/><path d="M180.391,76.646l-21.96,-42.772l21.96,-42.771l21.96,42.771l-21.96,42.772Zm-14.098,-42.772l14.098,27.462l14.098,-27.462l-14.098,-27.461l-14.098,27.461Z" style="fill:#fff;fill-rule:nonzero;"/><path d="M216.178,76.646l-21.96,-42.772l21.96,-42.771l21.96,42.771l-21.96,42.772Zm-14.098,-42.772l14.098,27.462l14.098,-27.462l-14.098,-27.461l-14.098,27.461Z" style="fill:#fff;fill-rule:nonzero;"/><path d="M252.236,76.646l-21.96,-42.772l21.96,-42.771l21.96,42.771l-21.96,42.772Zm-14.098,-42.772l14.098,27.462l14.097,-27.462l-14.097,-27.461l-14.098,27.461Z" style="fill:#fff;fill-rule:nonzero;"/><path d="M288.022,76.646l-21.96,-42.772l21.96,-42.771l21.96,42.771l-21.96,42.772Zm-14.097,-42.772l14.097,27.462l14.098,-27.462l-14.098,-27.461l-14.097,27.461Z" style="fill:#fff;fill-rule:nonzero;"/><path d="M324.08,76.646l-21.96,-42.772l21.96,-42.771l21.96,42.771l-21.96,42.772Zm-14.098,-42.772l14.098,27.462l14.098,-27.462l-14.098,-27.461l-14.098,27.461Z" style="fill:#fff;fill-rule:nonzero;"/><path d="M360.138,76.646l-21.96,-42.772l21.96,-42.771l21.96,42.771l-21.96,42.772Zm-14.098,-42.772l14.098,27.462l14.098,-27.462l-14.098,-27.461l-14.098,27.461Z" style="fill:#fff;fill-rule:nonzero;"/><path d="M395.925,76.646l-21.96,-42.772l21.96,-42.771l21.96,42.771l-21.96,42.772Zm-14.098,-42.772l14.098,27.462l14.097,-27.462l-14.097,-27.461l-14.098,27.461Z" style="fill:#fff;fill-rule:nonzero;"/><path d="M431.982,76.646l-21.96,-42.772l21.96,-42.771l21.96,42.771l-21.96,42.772Zm-14.097,-42.772l14.097,27.462l14.098,-27.462l-14.098,-27.461l-14.097,27.461Z" style="fill:#fff;fill-rule:nonzero;"/><path d="M468.04,76.646l-21.96,-42.772l21.96,-42.771l21.96,42.771l-21.96,42.772Zm-14.098,-42.772l14.098,27.462l14.098,-27.462l-14.098,-27.461l-14.098,27.461Z" style="fill:#fff;fill-rule:nonzero;"/><path d="M503.827,76.646l-21.96,-42.772l21.96,-42.771l21.96,42.771l-21.96,42.772Zm-14.098,-42.772l14.098,27.462l14.098,-27.462l-14.098,-27.461l-14.098,27.461Z" style="fill:#fff;fill-rule:nonzero;"/><path d="M539.885,76.646l-21.96,-42.772l21.96,-42.771l21.96,42.771l-21.96,42.772Zm-14.098,-42.772l14.098,27.462l14.097,-27.462l-14.097,-27.461l-14.098,27.461Z" style="fill:#fff;fill-rule:nonzero;"/><path d="M575.942,76.646l-21.96,-42.772l21.96,-42.771l21.96,42.771l-21.96,42.772Zm-14.097,-42.772l14.097,27.462l14.098,-27.462l-14.098,-27.461l-14.097,27.461Z" style="fill:#fff;fill-rule:nonzero;"/><path d="M611.729,76.646l-21.96,-42.772l21.96,-42.771l21.96,42.771l-21.96,42.772Zm-14.098,-42.772l14.098,27.462l14.098,-27.462l-14.098,-27.461l-14.098,27.461Z" style="fill:#fff;fill-rule:nonzero;"/><path d="M647.787,76.646l-21.96,-42.772l21.96,-42.771l21.96,42.771l-21.96,42.772Zm-14.098,-42.772l14.098,27.462l14.098,-27.462l-14.098,-27.461l-14.098,27.461Z" style="fill:#fff;fill-rule:nonzero;"/><path d="M683.845,76.646l-21.96,-42.772l21.96,-42.771l21.96,42.771l-21.96,42.772Zm-14.098,-42.772l14.098,27.462l14.097,-27.462l-14.097,-27.461l-14.098,27.461Z" style="fill:#fff;fill-rule:nonzero;"/><path d="M719.631,76.646l-21.96,-42.772l21.96,-42.771l21.96,42.771l-21.96,42.772Zm-14.098,-42.772l14.098,27.462l14.098,-27.462l-14.098,-27.461l-14.098,27.461Z" style="fill:#fff;fill-rule:nonzero;"/><path d="M36.431,146.879l-21.96,-42.772l21.96,-42.771l21.96,42.771l-21.96,42.772Zm-14.098,-42.772l14.098,27.462l14.098,-27.462l-14.098,-27.461l-14.098,27.461Z" style="fill:#fff;fill-rule:nonzero;"/><path d="M72.489,146.879l-21.96,-42.772l21.96,-42.771l21.96,42.771l-21.96,42.772Zm-14.098,-42.772l14.098,27.462l14.098,-27.462l-14.098,-27.461l-14.098,27.461Z" style="fill:#fff;fill-rule:nonzero;"/><path d="M108.276,146.879l-21.689,-42.772l21.96,-42.771l21.96,42.771l-22.231,42.772Zm-14.098,-42.772l14.098,27.462l14.097,-27.462l-14.097,-27.461l-14.098,27.461Z" style="fill:#fff;fill-rule:nonzero;"/><path d="M144.333,146.879l-21.96,-42.772l21.96,-42.771l21.96,42.771l-21.96,42.772Zm-14.097,-42.772l14.097,27.462l14.098,-27.462l-14.098,-27.461l-14.097,27.461Z" style="fill:#fff;fill-rule:nonzero;"/><path d="M180.391,146.879l-21.96,-42.772l21.96,-42.771l21.96,42.771l-21.96,42.772Zm-14.098,-42.772l14.098,27.462l14.098,-27.462l-14.098,-27.461l-14.098,27.461Z" style="fill:#fff;fill-rule:nonzero;"/><path d="M216.178,146.879l-21.96,-42.772l21.96,-42.771l21.96,42.771l-21.96,42.772Zm-14.098,-42.772l14.098,27.462l14.098,-27.462l-14.098,-27.461l-14.098,27.461Z" style="fill:#fff;fill-rule:nonzero;"/><path d="M252.236,146.879l-21.96,-42.772l21.96,-42.771l21.96,42.771l-21.96,42.772Zm-14.098,-42.772l14.098,27.462l14.097,-27.462l-14.097,-27.461l-14.098,27.461Z" style="fill:#fff;fill-rule:nonzero;"/><path d="M288.022,146.879l-21.96,-42.772l21.96,-42.771l21.96,42.771l-21.96,42.772Zm-14.097,-42.772l14.097,27.462l14.098,-27.462l-14.098,-27.461l-14.097,27.461Z" style="fill:#fff;fill-rule:nonzero;"/><path d="M324.08,146.879l-21.96,-42.772l21.96,-42.771l21.96,42.771l-21.96,42.772Zm-14.098,-42.772l14.098,27.462l14.098,-27.462l-14.098,-27.461l-14.098,27.461Z" style="fill:#fff;fill-rule:nonzero;"/><path d="M360.138,146.879l-21.96,-42.772l21.96,-42.771l21.96,42.771l-21.96,42.772Zm-14.098,-42.772l14.098,27.462l14.098,-27.462l-14.098,-27.461l-14.098,27.461Z" style="fill:#fff;fill-rule:nonzero;"/><path d="M395.925,146.879l-21.96,-42.772l21.96,-42.771l21.96,42.771l-21.96,42.772Zm-14.098,-42.772l14.098,27.462l14.097,-27.462l-14.097,-27.461l-14.098,27.461Z" style="fill:#fff;fill-rule:nonzero;"/><path d="M431.982,146.879l-21.96,-42.772l21.96,-42.771l21.96,42.771l-21.96,42.772Zm-14.097,-42.772l14.097,27.462l14.098,-27.462l-14.098,-27.461l-14.097,27.461Z" style="fill:#fff;fill-rule:nonzero;"/><path d="M468.04,146.879l-21.96,-42.772l21.96,-42.771l21.96,42.771l-21.96,42.772Zm-14.098,-42.772l14.098,27.462l14.098,-27.462l-14.098,-27.461l-14.098,27.461Z" style="fill:#fff;fill-rule:nonzero;"/><path d="M503.827,146.879l-21.96,-42.772l21.96,-42.771l21.96,42.771l-21.96,42.772Zm-14.098,-42.772l14.098,27.462l14.098,-27.462l-14.098,-27.461l-14.098,27.461Z" style="fill:#fff;fill-rule:nonzero;"/><path d="M539.885,146.879l-21.96,-42.772l21.96,-42.771l21.96,42.771l-21.96,42.772Zm-14.098,-42.772l14.098,27.462l14.097,-27.462l-14.097,-27.461l-14.098,27.461Z" style="fill:#fff;fill-rule:nonzero;"/><path d="M575.942,146.879l-21.96,-42.772l21.96,-42.771l21.96,42.771l-21.96,42.772Zm-14.097,-42.772l14.097,27.462l14.098,-27.462l-14.098,-27.461l-14.097,27.461Z" style="fill:#fff;fill-rule:nonzero;"/><path d="M611.729,146.879l-21.96,-42.772l21.96,-42.771l21.96,42.771l-21.96,42.772Zm-14.098,-42.772l14.098,27.462l14.098,-27.462l-14.098,-27.461l-14.098,27.461Z" style="fill:#fff;fill-rule:nonzero;"/><path d="M647.787,146.879l-21.96,-42.772l21.96,-42.771l21.96,42.771l-21.96,42.772Zm-14.098,-42.772l14.098,27.462l14.098,-27.462l-14.098,-27.461l-14.098,27.461Z" style="fill:#fff;fill-rule:nonzero;"/><path d="M683.845,146.879l-21.96,-42.772l21.96,-42.771l21.96,42.771l-21.96,42.772Zm-14.098,-42.772l14.098,27.462l14.097,-27.462l-14.097,-27.461l-14.098,27.461Z" style="fill:#fff;fill-rule:nonzero;"/><path d="M719.631,146.879l-21.96,-42.772l21.96,-42.771l21.96,42.771l-21.96,42.772Zm-14.098,-42.772l14.098,27.462l14.098,-27.462l-14.098,-27.461l-14.098,27.461Z" style="fill:#fff;fill-rule:nonzero;"/><path d="M36.431,217.355l-21.96,-42.771l21.96,-42.772l21.96,42.772l-21.96,42.771Zm-14.098,-42.771l14.098,27.461l14.098,-27.461l-14.098,-27.462l-14.098,27.462Z" style="fill:#fff;fill-rule:nonzero;"/><path d="M72.489,217.355l-21.96,-42.771l21.96,-42.772l21.96,42.772l-21.96,42.771Zm-14.098,-42.771l14.098,27.461l14.098,-27.461l-14.098,-27.462l-14.098,27.462Z" style="fill:#fff;fill-rule:nonzero;"/><path d="M108.276,217.355l-21.96,-42.771l21.96,-42.772l21.96,42.772l-21.96,42.771Zm-14.098,-42.771l14.098,27.461l14.097,-27.461l-14.097,-27.462l-14.098,27.462Z" style="fill:#fff;fill-rule:nonzero;"/><path d="M144.333,217.355l-21.96,-42.771l21.96,-42.772l21.96,42.772l-21.96,42.771Zm-14.097,-42.771l14.097,27.461l14.098,-27.461l-14.098,-27.462l-14.097,27.462Z" style="fill:#fff;fill-rule:nonzero;"/><path d="M180.391,217.355l-21.96,-42.771l21.96,-42.772l21.96,42.772l-21.96,42.771Zm-14.098,-42.771l14.098,27.461l14.098,-27.461l-14.098,-27.462l-14.098,27.462Z" style="fill:#fff;fill-rule:nonzero;"/><path d="M216.178,217.355l-21.96,-42.771l21.96,-42.772l21.96,42.772l-21.96,42.771Zm-14.098,-42.771l14.098,27.461l14.098,-27.461l-14.098,-27.462l-14.098,27.462Z" style="fill:#fff;fill-rule:nonzero;"/><path d="M252.236,217.355l-21.96,-42.771l21.96,-42.772l21.96,42.772l-21.96,42.771Zm-14.098,-42.771l14.098,27.461l14.097,-27.461l-14.097,-27.462l-14.098,27.462Z" style="fill:#fff;fill-rule:nonzero;"/><path d="M288.022,217.355l-21.96,-42.771l21.96,-42.772l21.96,42.772l-21.96,42.771Zm-14.097,-42.771l14.097,27.461l14.098,-27.461l-14.098,-27.462l-14.097,27.462Z" style="fill:#fff;fill-rule:nonzero;"/><path d="M324.08,217.355l-21.96,-42.771l21.96,-42.772l21.96,42.772l-21.96,42.771Zm-14.098,-42.771l14.098,27.461l14.098,-27.461l-14.098,-27.462l-14.098,27.462Z" style="fill:#fff;fill-rule:nonzero;"/><path d="M360.138,217.355l-21.96,-42.771l21.96,-42.772l21.96,42.772l-21.96,42.771Zm-14.098,-42.771l14.098,27.461l14.098,-27.461l-14.098,-27.462l-14.098,27.462Z" style="fill:#fff;fill-rule:nonzero;"/><path d="M395.925,217.355l-21.96,-42.771l21.96,-42.772l21.96,42.772l-21.96,42.771Zm-14.098,-42.771l14.098,27.461l14.097,-27.461l-14.097,-27.462l-14.098,27.462Z" style="fill:#fff;fill-rule:nonzero;"/><path d="M431.982,217.355l-21.96,-42.771l21.96,-42.772l21.96,42.772l-21.96,42.771Zm-14.097,-42.771l14.097,27.461l14.098,-27.461l-14.098,-27.462l-14.097,27.462Z" style="fill:#fff;fill-rule:nonzero;"/><path d="M468.04,217.355l-21.96,-42.771l21.96,-42.772l21.96,42.772l-21.96,42.771Zm-14.098,-42.771l14.098,27.461l14.098,-27.461l-14.098,-27.462l-14.098,27.462Z" style="fill:#fff;fill-rule:nonzero;"/><path d="M503.827,217.355l-21.96,-42.771l21.96,-42.772l21.96,42.772l-21.96,42.771Zm-14.098,-42.771l14.098,27.461l14.098,-27.461l-14.098,-27.462l-14.098,27.462Z" style="fill:#fff;fill-rule:nonzero;"/><path d="M539.885,217.355l-21.96,-42.771l21.96,-42.772l21.96,42.772l-21.96,42.771Zm-14.098,-42.771l14.098,27.461l14.097,-27.461l-14.097,-27.462l-14.098,27.462Z" style="fill:#fff;fill-rule:nonzero;"/><path d="M575.942,217.355l-21.96,-42.771l21.96,-42.772l21.96,42.772l-21.96,42.771Zm-14.097,-42.771l14.097,27.461l14.098,-27.461l-14.098,-27.462l-14.097,27.462Z" style="fill:#fff;fill-rule:nonzero;"/><path d="M611.729,217.355l-21.96,-42.771l21.96,-42.772l21.96,42.772l-21.96,42.771Zm-14.098,-42.771l14.098,27.461l14.098,-27.461l-14.098,-27.462l-14.098,27.462Z" style="fill:#fff;fill-rule:nonzero;"/><path d="M647.787,217.355l-21.96,-42.771l21.96,-42.772l21.96,42.772l-21.96,42.771Zm-14.098,-42.771l14.098,27.461l14.098,-27.461l-14.098,-27.462l-14.098,27.462Z" style="fill:#fff;fill-rule:nonzero;"/><path d="M683.845,217.355l-21.96,-42.771l21.96,-42.772l21.96,42.772l-21.96,42.771Zm-14.098,-42.771l14.098,27.461l14.097,-27.461l-14.097,-27.462l-14.098,27.462Z" style="fill:#fff;fill-rule:nonzero;"/><path d="M719.631,217.355l-21.96,-42.771l21.96,-42.772l21.96,42.772l-21.96,42.771Zm-14.098,-42.771l14.098,27.461l14.098,-27.461l-14.098,-27.462l-14.098,27.462Z" style="fill:#fff;fill-rule:nonzero;"/><path d="M36.431,287.589l-21.96,-42.772l21.96,-42.772l21.96,42.772l-21.96,42.772Zm-14.098,-42.772l14.098,27.461l14.098,-27.461l-14.098,-27.462l-14.098,27.462Z" style="fill:#fff;fill-rule:nonzero;"/><path d="M72.489,287.589l-21.96,-42.772l21.96,-42.772l21.96,42.772l-21.96,42.772Zm-14.098,-42.772l14.098,27.461l14.098,-27.461l-14.098,-27.462l-14.098,27.462Z" style="fill:#fff;fill-rule:nonzero;"/><path d="M108.276,287.589l-21.96,-42.772l21.96,-42.772l21.96,42.772l-21.96,42.772Zm-14.098,-42.772l14.098,27.461l14.097,-27.461l-14.097,-27.462l-14.098,27.462Z" style="fill:#fff;fill-rule:nonzero;"/><path d="M144.333,287.589l-21.96,-42.772l21.96,-42.772l21.96,42.772l-21.96,42.772Zm-14.097,-42.772l14.097,27.461l14.098,-27.461l-14.098,-27.462l-14.097,27.462Z" style="fill:#fff;fill-rule:nonzero;"/><path d="M180.391,287.589l-21.96,-42.772l21.96,-42.772l21.96,42.772l-21.96,42.772Zm-14.098,-42.772l14.098,27.461l14.098,-27.461l-14.098,-27.462l-14.098,27.462Z" style="fill:#fff;fill-rule:nonzero;"/><path d="M216.178,287.589l-21.96,-42.772l21.96,-42.772l21.96,42.772l-21.96,42.772Zm-14.098,-42.772l14.098,27.461l14.098,-27.461l-14.098,-27.462l-14.098,27.462Z" style="fill:#fff;fill-rule:nonzero;"/><path d="M252.236,287.589l-21.96,-42.772l21.96,-42.772l21.96,42.772l-21.96,42.772Zm-14.098,-42.772l14.098,27.461l14.097,-27.461l-14.097,-27.462l-14.098,27.462Z" style="fill:#fff;fill-rule:nonzero;"/><path d="M288.022,287.589l-21.96,-42.772l21.96,-42.772l21.96,42.772l-21.96,42.772Zm-14.097,-42.772l14.097,27.461l14.098,-27.461l-14.098,-27.462l-14.097,27.462Z" style="fill:#fff;fill-rule:nonzero;"/><path d="M324.08,287.589l-21.96,-42.772l21.96,-42.772l21.96,42.772l-21.96,42.772Zm-14.098,-42.772l14.098,27.461l14.098,-27.461l-14.098,-27.462l-14.098,27.462Z" style="fill:#fff;fill-rule:nonzero;"/><path d="M360.138,287.589l-21.96,-42.772l21.96,-42.772l21.96,42.772l-21.96,42.772Zm-14.098,-42.772l14.098,27.461l14.098,-27.461l-14.098,-27.462l-14.098,27.462Z" style="fill:#fff;fill-rule:nonzero;"/><path d="M395.925,287.589l-21.96,-42.772l21.96,-42.772l21.96,42.772l-21.96,42.772Zm-14.098,-42.772l14.098,27.461l14.097,-27.461l-14.097,-27.462l-14.098,27.462Z" style="fill:#fff;fill-rule:nonzero;"/><path d="M431.982,287.589l-21.96,-42.772l21.96,-42.772l21.96,42.772l-21.96,42.772Zm-14.097,-42.772l14.097,27.461l14.098,-27.461l-14.098,-27.462l-14.097,27.462Z" style="fill:#fff;fill-rule:nonzero;"/><path d="M468.04,287.589l-21.96,-42.772l21.96,-42.772l21.96,42.772l-21.96,42.772Zm-14.098,-42.772l14.098,27.461l14.098,-27.461l-14.098,-27.462l-14.098,27.462Z" style="fill:#fff;fill-rule:nonzero;"/><path d="M503.827,287.589l-21.96,-42.772l21.96,-42.772l21.96,42.772l-21.96,42.772Zm-14.098,-42.772l14.098,27.461l14.098,-27.461l-14.098,-27.462l-14.098,27.462Z" style="fill:#fff;fill-rule:nonzero;"/><path d="M539.885,287.589l-21.96,-42.772l21.96,-42.772l21.96,42.772l-21.96,42.772Zm-14.098,-42.772l14.098,27.461l14.097,-27.461l-14.097,-27.462l-14.098,27.462Z" style="fill:#fff;fill-rule:nonzero;"/><path d="M575.942,287.589l-21.96,-42.772l21.96,-42.772l21.96,42.772l-21.96,42.772Zm-14.097,-42.772l14.097,27.461l14.098,-27.461l-14.098,-27.462l-14.097,27.462Z" style="fill:#fff;fill-rule:nonzero;"/><path d="M611.729,287.589l-21.96,-42.772l21.96,-42.772l21.96,42.772l-21.96,42.772Zm-14.098,-42.772l14.098,27.461l14.098,-27.461l-14.098,-27.462l-14.098,27.462Z" style="fill:#fff;fill-rule:nonzero;"/><path d="M647.787,287.589l-21.96,-42.772l21.96,-42.772l21.96,42.772l-21.96,42.772Zm-14.098,-42.772l14.098,27.461l14.098,-27.461l-14.098,-27.462l-14.098,27.462Z" style="fill:#fff;fill-rule:nonzero;"/><path d="M683.845,287.589l-21.96,-42.772l21.96,-42.772l21.96,42.772l-21.96,42.772Zm-14.098,-42.772l14.098,27.461l14.097,-27.461l-14.097,-27.462l-14.098,27.462Z" style="fill:#fff;fill-rule:nonzero;"/><path d="M719.631,287.589l-21.96,-42.772l21.96,-42.772l21.96,42.772l-21.96,42.772Zm-14.098,-42.772l14.098,27.461l14.098,-27.461l-14.098,-27.462l-14.098,27.462Z" style="fill:#fff;fill-rule:nonzero;"/><path d="M36.431,357.822l-21.96,-42.772l21.96,-42.772l21.96,42.772l-21.96,42.772Zm-14.098,-42.772l14.098,27.461l14.098,-27.461l-14.098,-27.461l-14.098,27.461Z" style="fill:#fff;fill-rule:nonzero;"/><path d="M72.489,357.822l-21.96,-42.772l21.96,-42.772l21.96,42.772l-21.96,42.772Zm-14.098,-42.772l14.098,27.461l14.098,-27.461l-14.098,-27.461l-14.098,27.461Z" style="fill:#fff;fill-rule:nonzero;"/><path d="M108.276,357.822l-21.96,-42.772l21.96,-42.772l21.96,42.772l-21.96,42.772Zm-14.098,-42.772l14.098,27.461l14.097,-27.461l-14.097,-27.461l-14.098,27.461Z" style="fill:#fff;fill-rule:nonzero;"/><path d="M144.333,357.822l-21.96,-42.772l21.96,-42.772l21.96,42.772l-21.96,42.772Zm-14.097,-42.772l14.097,27.461l14.098,-27.461l-14.098,-27.461l-14.097,27.461Z" style="fill:#fff;fill-rule:nonzero;"/><path d="M180.391,357.822l-21.96,-42.772l21.96,-42.772l21.96,42.772l-21.96,42.772Zm-14.098,-42.772l14.098,27.461l14.098,-27.461l-14.098,-27.461l-14.098,27.461Z" style="fill:#fff;fill-rule:nonzero;"/><path d="M216.178,357.822l-21.96,-42.772l21.96,-42.772l21.96,42.772l-21.96,42.772Zm-14.098,-42.772l14.098,27.461l14.098,-27.461l-14.098,-27.461l-14.098,27.461Z" style="fill:#fff;fill-rule:nonzero;"/><path d="M252.236,357.822l-21.96,-42.772l21.96,-42.772l21.96,42.772l-21.96,42.772Zm-14.098,-42.772l14.098,27.461l14.097,-27.461l-14.097,-27.461l-14.098,27.461Z" style="fill:#fff;fill-rule:nonzero;"/><path d="M288.022,357.822l-21.96,-42.772l21.96,-42.772l21.96,42.772l-21.96,42.772Zm-14.097,-42.772l14.097,27.461l14.098,-27.461l-14.098,-27.461l-14.097,27.461Z" style="fill:#fff;fill-rule:nonzero;"/><path d="M324.08,357.822l-21.96,-42.772l21.96,-42.772l21.96,42.772l-21.96,42.772Zm-14.098,-42.772l14.098,27.461l14.098,-27.461l-14.098,-27.461l-14.098,27.461Z" style="fill:#fff;fill-rule:nonzero;"/><path d="M360.138,357.822l-21.96,-42.772l21.96,-42.772l21.96,42.772l-21.96,42.772Zm-14.098,-42.772l14.098,27.461l14.098,-27.461l-14.098,-27.461l-14.098,27.461Z" style="fill:#fff;fill-rule:nonzero;"/><path d="M395.925,357.822l-21.96,-42.772l21.96,-42.772l21.96,42.772l-21.96,42.772Zm-14.098,-42.772l14.098,27.461l14.097,-27.461l-14.097,-27.461l-14.098,27.461Z" style="fill:#fff;fill-rule:nonzero;"/><path d="M431.982,357.822l-21.96,-42.772l21.96,-42.772l21.96,42.772l-21.96,42.772Zm-14.097,-42.772l14.097,27.461l14.098,-27.461l-14.098,-27.461l-14.097,27.461Z" style="fill:#fff;fill-rule:nonzero;"/><path d="M468.04,357.822l-21.96,-42.772l21.96,-42.772l21.96,42.772l-21.96,42.772Zm-14.098,-42.772l14.098,27.461l14.098,-27.461l-14.098,-27.461l-14.098,27.461Z" style="fill:#fff;fill-rule:nonzero;"/><path d="M503.827,357.822l-21.96,-42.772l21.96,-42.772l21.96,42.772l-21.96,42.772Zm-14.098,-42.772l14.098,27.461l14.098,-27.461l-14.098,-27.461l-14.098,27.461Z" style="fill:#fff;fill-rule:nonzero;"/><path d="M539.885,357.822l-21.96,-42.772l21.96,-42.772l21.96,42.772l-21.96,42.772Zm-14.098,-42.772l14.098,27.461l14.097,-27.461l-14.097,-27.461l-14.098,27.461Z" style="fill:#fff;fill-rule:nonzero;"/><path d="M575.942,357.822l-21.96,-42.772l21.96,-42.772l21.96,42.772l-21.96,42.772Zm-14.097,-42.772l14.097,27.461l14.098,-27.461l-14.098,-27.461l-14.097,27.461Z" style="fill:#fff;fill-rule:nonzero;"/><path d="M611.729,357.822l-21.96,-42.772l21.96,-42.772l21.96,42.772l-21.96,42.772Zm-14.098,-42.772l14.098,27.461l14.098,-27.461l-14.098,-27.461l-14.098,27.461Z" style="fill:#fff;fill-rule:nonzero;"/><path d="M647.787,357.822l-21.96,-42.772l21.96,-42.772l21.96,42.772l-21.96,42.772Zm-14.098,-42.772l14.098,27.461l14.098,-27.461l-14.098,-27.461l-14.098,27.461Z" style="fill:#fff;fill-rule:nonzero;"/><path d="M683.845,357.822l-21.96,-42.772l21.96,-42.772l21.96,42.772l-21.96,42.772Zm-14.098,-42.772l14.098,27.461l14.097,-27.461l-14.097,-27.461l-14.098,27.461Z" style="fill:#fff;fill-rule:nonzero;"/><path d="M719.631,357.822l-21.96,-42.772l21.96,-42.772l21.96,42.772l-21.96,42.772Zm-14.098,-42.772l14.098,27.461l14.098,-27.461l-14.098,-27.461l-14.098,27.461Z" style="fill:#fff;fill-rule:nonzero;"/><path d="M36.431,428.298l-21.96,-42.772l21.96,-42.772l21.96,42.772l-21.96,42.772Zm-14.098,-42.772l14.098,27.462l14.098,-27.462l-14.098,-27.461l-14.098,27.461Z" style="fill:#fff;fill-rule:nonzero;"/><path d="M72.489,428.298l-21.96,-42.772l21.96,-42.772l21.96,42.772l-21.96,42.772Zm-14.098,-42.772l14.098,27.462l14.098,-27.462l-14.098,-27.461l-14.098,27.461Z" style="fill:#fff;fill-rule:nonzero;"/><path d="M108.276,428.298l-21.96,-42.772l21.96,-42.772l21.96,42.772l-21.96,42.772Zm-14.098,-42.772l14.098,27.462l14.097,-27.462l-14.097,-27.461l-14.098,27.461Z" style="fill:#fff;fill-rule:nonzero;"/><path d="M144.333,428.298l-21.96,-42.772l21.96,-42.772l21.96,42.772l-21.96,42.772Zm-14.097,-42.772l14.097,27.462l14.098,-27.462l-14.098,-27.461l-14.097,27.461Z" style="fill:#fff;fill-rule:nonzero;"/><path d="M180.391,428.298l-21.96,-42.772l21.96,-42.772l21.96,42.772l-21.96,42.772Zm-14.098,-42.772l14.098,27.462l14.098,-27.462l-14.098,-27.461l-14.098,27.461Z" style="fill:#fff;fill-rule:nonzero;"/><path d="M216.178,428.298l-21.96,-42.772l21.96,-42.772l21.96,42.772l-21.96,42.772Zm-14.098,-42.772l14.098,27.462l14.098,-27.462l-14.098,-27.461l-14.098,27.461Z" style="fill:#fff;fill-rule:nonzero;"/><path d="M252.236,428.298l-21.96,-42.772l21.96,-42.772l21.96,42.772l-21.96,42.772Zm-14.098,-42.772l14.098,27.462l14.097,-27.462l-14.097,-27.461l-14.098,27.461Z" style="fill:#fff;fill-rule:nonzero;"/><path d="M288.022,428.298l-21.96,-42.772l21.96,-42.772l21.96,42.772l-21.96,42.772Zm-14.097,-42.772l14.097,27.462l14.098,-27.462l-14.098,-27.461l-14.097,27.461Z" style="fill:#fff;fill-rule:nonzero;"/><path d="M324.08,428.298l-21.96,-42.772l21.96,-42.772l21.96,42.772l-21.96,42.772Zm-14.098,-42.772l14.098,27.462l14.098,-27.462l-14.098,-27.461l-14.098,27.461Z" style="fill:#fff;fill-rule:nonzero;"/><path d="M360.138,428.298l-21.96,-42.772l21.96,-42.772l21.96,42.772l-21.96,42.772Zm-14.098,-42.772l14.098,27.462l14.098,-27.462l-14.098,-27.461l-14.098,27.461Z" style="fill:#fff;fill-rule:nonzero;"/><path d="M395.925,428.298l-21.96,-42.772l21.96,-42.772l21.96,42.772l-21.96,42.772Zm-14.098,-42.772l14.098,27.462l14.097,-27.462l-14.097,-27.461l-14.098,27.461Z" style="fill:#fff;fill-rule:nonzero;"/><path d="M431.982,428.298l-21.96,-42.772l21.96,-42.772l21.96,42.772l-21.96,42.772Zm-14.097,-42.772l14.097,27.462l14.098,-27.462l-14.098,-27.461l-14.097,27.461Z" style="fill:#fff;fill-rule:nonzero;"/><path d="M468.04,428.298l-21.96,-42.772l21.96,-42.772l21.96,42.772l-21.96,42.772Zm-14.098,-42.772l14.098,27.462l14.098,-27.462l-14.098,-27.461l-14.098,27.461Z" style="fill:#fff;fill-rule:nonzero;"/><path d="M503.827,428.298l-21.96,-42.772l21.96,-42.772l21.96,42.772l-21.96,42.772Zm-14.098,-42.772l14.098,27.462l14.098,-27.462l-14.098,-27.461l-14.098,27.461Z" style="fill:#fff;fill-rule:nonzero;"/><path d="M539.885,428.298l-21.96,-42.772l21.96,-42.772l21.96,42.772l-21.96,42.772Zm-14.098,-42.772l14.098,27.462l14.097,-27.462l-14.097,-27.461l-14.098,27.461Z" style="fill:#fff;fill-rule:nonzero;"/><path d="M575.942,428.298l-21.96,-42.772l21.96,-42.772l21.96,42.772l-21.96,42.772Zm-14.097,-42.772l14.097,27.462l14.098,-27.462l-14.098,-27.461l-14.097,27.461Z" style="fill:#fff;fill-rule:nonzero;"/><path d="M611.729,428.298l-21.96,-42.772l21.96,-42.772l21.96,42.772l-21.96,42.772Zm-14.098,-42.772l14.098,27.462l14.098,-27.462l-14.098,-27.461l-14.098,27.461Z" style="fill:#fff;fill-rule:nonzero;"/><path d="M647.787,428.298l-21.96,-42.772l21.96,-42.772l21.96,42.772l-21.96,42.772Zm-14.098,-42.772l14.098,27.462l14.098,-27.462l-14.098,-27.461l-14.098,27.461Z" style="fill:#fff;fill-rule:nonzero;"/><path d="M683.845,428.298l-21.96,-42.772l21.96,-42.772l21.96,42.772l-21.96,42.772Zm-14.098,-42.772l14.098,27.462l14.097,-27.462l-14.097,-27.461l-14.098,27.461Z" style="fill:#fff;fill-rule:nonzero;"/><path d="M719.631,428.298l-21.96,-42.772l21.96,-42.772l21.96,42.772l-21.96,42.772Zm-14.098,-42.772l14.098,27.462l14.098,-27.462l-14.098,-27.461l-14.098,27.461Z" style="fill:#fff;fill-rule:nonzero;"/><path d="M36.431,498.531l-21.96,-42.772l21.96,-42.771l21.96,42.771l-21.96,42.772Zm-14.098,-42.772l14.098,27.462l14.098,-27.462l-14.098,-27.461l-14.098,27.461Z" style="fill:#fff;fill-rule:nonzero;"/><path d="M72.489,498.531l-21.96,-42.772l21.96,-42.771l21.96,42.771l-21.96,42.772Zm-14.098,-42.772l14.098,27.462l14.098,-27.462l-14.098,-27.461l-14.098,27.461Z" style="fill:#fff;fill-rule:nonzero;"/><path d="M108.276,498.531l-21.96,-42.772l21.96,-42.771l21.96,42.771l-21.96,42.772Zm-14.098,-42.772l14.098,27.462l14.097,-27.462l-14.097,-27.461l-14.098,27.461Z" style="fill:#fff;fill-rule:nonzero;"/><path d="M144.333,498.531l-21.96,-42.772l21.96,-42.771l21.96,42.771l-21.96,42.772Zm-14.097,-42.772l14.097,27.462l14.098,-27.462l-14.098,-27.461l-14.097,27.461Z" style="fill:#fff;fill-rule:nonzero;"/><path d="M180.391,498.531l-21.96,-42.772l21.96,-42.771l21.96,42.771l-21.96,42.772Zm-14.098,-42.772l14.098,27.462l14.098,-27.462l-14.098,-27.461l-14.098,27.461Z" style="fill:#fff;fill-rule:nonzero;"/><path d="M216.178,498.531l-21.96,-42.772l21.96,-42.771l21.96,42.771l-21.96,42.772Zm-14.098,-42.772l14.098,27.462l14.098,-27.462l-14.098,-27.461l-14.098,27.461Z" style="fill:#fff;fill-rule:nonzero;"/><path d="M252.236,498.531l-21.96,-42.772l21.96,-42.771l21.96,42.771l-21.96,42.772Zm-14.098,-42.772l14.098,27.462l14.097,-27.462l-14.097,-27.461l-14.098,27.461Z" style="fill:#fff;fill-rule:nonzero;"/><path d="M288.022,498.531l-21.96,-42.772l21.96,-42.771l21.96,42.771l-21.96,42.772Zm-14.097,-42.772l14.097,27.462l14.098,-27.462l-14.098,-27.461l-14.097,27.461Z" style="fill:#fff;fill-rule:nonzero;"/><path d="M324.08,498.531l-21.96,-42.772l21.96,-42.771l21.96,42.771l-21.96,42.772Zm-14.098,-42.772l14.098,27.462l14.098,-27.462l-14.098,-27.461l-14.098,27.461Z" style="fill:#fff;fill-rule:nonzero;"/><path d="M360.138,498.531l-21.96,-42.772l21.96,-42.771l21.96,42.771l-21.96,42.772Zm-14.098,-42.772l14.098,27.462l14.098,-27.462l-14.098,-27.461l-14.098,27.461Z" style="fill:#fff;fill-rule:nonzero;"/><path d="M395.925,498.531l-21.96,-42.772l21.96,-42.771l21.96,42.771l-21.96,42.772Zm-14.098,-42.772l14.098,27.462l14.097,-27.462l-14.097,-27.461l-14.098,27.461Z" style="fill:#fff;fill-rule:nonzero;"/><path d="M431.982,498.531l-21.96,-42.772l21.96,-42.771l21.96,42.771l-21.96,42.772Zm-14.097,-42.772l14.097,27.462l14.098,-27.462l-14.098,-27.461l-14.097,27.461Z" style="fill:#fff;fill-rule:nonzero;"/><path d="M468.04,498.531l-21.96,-42.772l21.96,-42.771l21.96,42.771l-21.96,42.772Zm-14.098,-42.772l14.098,27.462l14.098,-27.462l-14.098,-27.461l-14.098,27.461Z" style="fill:#fff;fill-rule:nonzero;"/><path d="M503.827,498.531l-21.96,-42.772l21.96,-42.771l21.96,42.771l-21.96,42.772Zm-14.098,-42.772l14.098,27.462l14.098,-27.462l-14.098,-27.461l-14.098,27.461Z" style="fill:#fff;fill-rule:nonzero;"/><path d="M539.885,498.531l-21.96,-42.772l21.96,-42.771l21.96,42.771l-21.96,42.772Zm-14.098,-42.772l14.098,27.462l14.097,-27.462l-14.097,-27.461l-14.098,27.461Z" style="fill:#fff;fill-rule:nonzero;"/><path d="M575.942,498.531l-21.96,-42.772l21.96,-42.771l21.96,42.771l-21.96,42.772Zm-14.097,-42.772l14.097,27.462l14.098,-27.462l-14.098,-27.461l-14.097,27.461Z" style="fill:#fff;fill-rule:nonzero;"/><path d="M611.729,498.531l-21.96,-42.772l21.96,-42.771l21.96,42.771l-21.96,42.772Zm-14.098,-42.772l14.098,27.462l14.098,-27.462l-14.098,-27.461l-14.098,27.461Z" style="fill:#fff;fill-rule:nonzero;"/><path d="M647.787,498.531l-21.96,-42.772l21.96,-42.771l21.96,42.771l-21.96,42.772Zm-14.098,-42.772l14.098,27.462l14.098,-27.462l-14.098,-27.461l-14.098,27.461Z" style="fill:#fff;fill-rule:nonzero;"/><path d="M683.845,498.531l-21.96,-42.772l21.96,-42.771l21.96,42.771l-21.96,42.772Zm-14.098,-42.772l14.098,27.462l14.097,-27.462l-14.097,-27.461l-14.098,27.461Z" style="fill:#fff;fill-rule:nonzero;"/><path d="M719.631,498.531l-21.96,-42.772l21.96,-42.771l21.96,42.771l-21.96,42.772Zm-14.098,-42.772l14.098,27.462l14.098,-27.462l-14.098,-27.461l-14.098,27.461Z" style="fill:#fff;fill-rule:nonzero;"/><path d="M36.431,568.764l-21.96,-42.772l21.96,-42.771l21.96,42.771l-21.96,42.772Zm-14.098,-42.772l14.098,27.462l14.098,-27.462l-14.098,-27.461l-14.098,27.461Z" style="fill:#fff;fill-rule:nonzero;"/><path d="M72.489,568.764l-21.96,-42.772l21.96,-42.771l21.96,42.771l-21.96,42.772Zm-14.098,-42.772l14.098,27.462l14.098,-27.462l-14.098,-27.461l-14.098,27.461Z" style="fill:#fff;fill-rule:nonzero;"/><path d="M108.276,568.764l-21.96,-42.772l21.96,-42.771l21.96,42.771l-21.96,42.772Zm-14.098,-42.772l14.098,27.462l14.097,-27.462l-14.097,-27.461l-14.098,27.461Z" style="fill:#fff;fill-rule:nonzero;"/><path d="M144.333,568.764l-21.96,-42.772l21.96,-42.771l21.96,42.771l-21.96,42.772Zm-14.097,-42.772l14.097,27.462l14.098,-27.462l-14.098,-27.461l-14.097,27.461Z" style="fill:#fff;fill-rule:nonzero;"/><path d="M180.391,568.764l-21.96,-42.772l21.96,-42.771l21.96,42.771l-21.96,42.772Zm-14.098,-42.772l14.098,27.462l14.098,-27.462l-14.098,-27.461l-14.098,27.461Z" style="fill:#fff;fill-rule:nonzero;"/><path d="M216.178,568.764l-21.96,-42.772l21.96,-42.771l21.96,42.771l-21.96,42.772Zm-14.098,-42.772l14.098,27.462l14.098,-27.462l-14.098,-27.461l-14.098,27.461Z" style="fill:#fff;fill-rule:nonzero;"/><path d="M252.236,568.764l-21.96,-42.772l21.96,-42.771l21.96,42.771l-21.96,42.772Zm-14.098,-42.772l14.098,27.462l14.097,-27.462l-14.097,-27.461l-14.098,27.461Z" style="fill:#fff;fill-rule:nonzero;"/><path d="M288.022,568.764l-21.96,-42.772l21.96,-42.771l21.96,42.771l-21.96,42.772Zm-14.097,-42.772l14.097,27.462l14.098,-27.462l-14.098,-27.461l-14.097,27.461Z" style="fill:#fff;fill-rule:nonzero;"/><path d="M324.08,568.764l-21.96,-42.772l21.96,-42.771l21.96,42.771l-21.96,42.772Zm-14.098,-42.772l14.098,27.462l14.098,-27.462l-14.098,-27.461l-14.098,27.461Z" style="fill:#fff;fill-rule:nonzero;"/><path d="M360.138,568.764l-21.96,-42.772l21.96,-42.771l21.96,42.771l-21.96,42.772Zm-14.098,-42.772l14.098,27.462l14.098,-27.462l-14.098,-27.461l-14.098,27.461Z" style="fill:#fff;fill-rule:nonzero;"/><path d="M395.925,568.764l-21.96,-42.772l21.96,-42.771l21.96,42.771l-21.96,42.772Zm-14.098,-42.772l14.098,27.462l14.097,-27.462l-14.097,-27.461l-14.098,27.461Z" style="fill:#fff;fill-rule:nonzero;"/><path d="M431.982,568.764l-21.96,-42.772l21.96,-42.771l21.96,42.771l-21.96,42.772Zm-14.097,-42.772l14.097,27.462l14.098,-27.462l-14.098,-27.461l-14.097,27.461Z" style="fill:#fff;fill-rule:nonzero;"/><path d="M468.04,568.764l-21.96,-42.772l21.96,-42.771l21.96,42.771l-21.96,42.772Zm-14.098,-42.772l14.098,27.462l14.098,-27.462l-14.098,-27.461l-14.098,27.461Z" style="fill:#fff;fill-rule:nonzero;"/><path d="M503.827,568.764l-21.96,-42.772l21.96,-42.771l21.96,42.771l-21.96,42.772Zm-14.098,-42.772l14.098,27.462l14.098,-27.462l-14.098,-27.461l-14.098,27.461Z" style="fill:#fff;fill-rule:nonzero;"/><path d="M539.885,568.764l-21.96,-42.772l21.96,-42.771l21.96,42.771l-21.96,42.772Zm-14.098,-42.772l14.098,27.462l14.097,-27.462l-14.097,-27.461l-14.098,27.461Z" style="fill:#fff;fill-rule:nonzero;"/><path d="M575.942,568.764l-21.96,-42.772l21.96,-42.771l21.96,42.771l-21.96,42.772Zm-14.097,-42.772l14.097,27.462l14.098,-27.462l-14.098,-27.461l-14.097,27.461Z" style="fill:#fff;fill-rule:nonzero;"/><path d="M611.729,568.764l-21.96,-42.772l21.96,-42.771l21.96,42.771l-21.96,42.772Zm-14.098,-42.772l14.098,27.462l14.098,-27.462l-14.098,-27.461l-14.098,27.461Z" style="fill:#fff;fill-rule:nonzero;"/><path d="M647.787,568.764l-21.96,-42.772l21.96,-42.771l21.96,42.771l-21.96,42.772Zm-14.098,-42.772l14.098,27.462l14.098,-27.462l-14.098,-27.461l-14.098,27.461Z" style="fill:#fff;fill-rule:nonzero;"/><path d="M683.845,568.764l-21.96,-42.772l21.96,-42.771l21.96,42.771l-21.96,42.772Zm-14.098,-42.772l14.098,27.462l14.097,-27.462l-14.097,-27.461l-14.098,27.461Z" style="fill:#fff;fill-rule:nonzero;"/><path d="M719.631,568.764l-21.96,-42.772l21.96,-42.771l21.96,42.771l-21.96,42.772Zm-14.098,-42.772l14.098,27.462l14.098,-27.462l-14.098,-27.461l-14.098,27.461Z" style="fill:#fff;fill-rule:nonzero;"/><path d="M36.431,639.24l-21.96,-42.771l21.96,-42.772l21.96,42.772l-21.96,42.771Zm-14.098,-42.771l14.098,27.461l14.098,-27.461l-14.098,-27.462l-14.098,27.462Z" style="fill:#fff;fill-rule:nonzero;"/><path d="M72.489,639.24l-21.96,-42.771l21.96,-42.772l21.96,42.772l-21.96,42.771Zm-14.098,-42.771l14.098,27.461l14.098,-27.461l-14.098,-27.462l-14.098,27.462Z" style="fill:#fff;fill-rule:nonzero;"/><path d="M108.276,639.24l-21.96,-42.771l21.96,-42.772l21.96,42.772l-21.96,42.771Zm-14.098,-42.771l14.098,27.461l14.097,-27.461l-14.097,-27.462l-14.098,27.462Z" style="fill:#fff;fill-rule:nonzero;"/><path d="M144.333,639.24l-21.96,-42.771l21.96,-42.772l21.96,42.772l-21.96,42.771Zm-14.097,-42.771l14.097,27.461l14.098,-27.461l-14.098,-27.462l-14.097,27.462Z" style="fill:#fff;fill-rule:nonzero;"/><path d="M180.391,639.24l-21.96,-42.771l21.96,-42.772l21.96,42.772l-21.96,42.771Zm-14.098,-42.771l14.098,27.461l14.098,-27.461l-14.098,-27.462l-14.098,27.462Z" style="fill:#fff;fill-rule:nonzero;"/><path d="M216.178,639.24l-21.96,-42.771l21.96,-42.772l21.96,42.772l-21.96,42.771Zm-14.098,-42.771l14.098,27.461l14.098,-27.461l-14.098,-27.462l-14.098,27.462Z" style="fill:#fff;fill-rule:nonzero;"/><path d="M252.236,639.24l-21.96,-42.771l21.96,-42.772l21.96,42.772l-21.96,42.771Zm-14.098,-42.771l14.098,27.461l14.097,-27.461l-14.097,-27.462l-14.098,27.462Z" style="fill:#fff;fill-rule:nonzero;"/><path d="M288.022,639.24l-21.96,-42.771l21.96,-42.772l21.96,42.772l-21.96,42.771Zm-14.097,-42.771l14.097,27.461l14.098,-27.461l-14.098,-27.462l-14.097,27.462Z" style="fill:#fff;fill-rule:nonzero;"/><path d="M324.08,639.24l-21.96,-42.771l21.96,-42.772l21.96,42.772l-21.96,42.771Zm-14.098,-42.771l14.098,27.461l14.098,-27.461l-14.098,-27.462l-14.098,27.462Z" style="fill:#fff;fill-rule:nonzero;"/><path d="M360.138,639.24l-21.96,-42.771l21.96,-42.772l21.96,42.772l-21.96,42.771Zm-14.098,-42.771l14.098,27.461l14.098,-27.461l-14.098,-27.462l-14.098,27.462Z" style="fill:#fff;fill-rule:nonzero;"/><path d="M395.925,639.24l-21.96,-42.771l21.96,-42.772l21.96,42.772l-21.96,42.771Zm-14.098,-42.771l14.098,27.461l14.097,-27.461l-14.097,-27.462l-14.098,27.462Z" style="fill:#fff;fill-rule:nonzero;"/><path d="M431.982,639.24l-21.96,-42.771l21.96,-42.772l21.96,42.772l-21.96,42.771Zm-14.097,-42.771l14.097,27.461l14.098,-27.461l-14.098,-27.462l-14.097,27.462Z" style="fill:#fff;fill-rule:nonzero;"/><path d="M468.04,639.24l-21.96,-42.771l21.96,-42.772l21.96,42.772l-21.96,42.771Zm-14.098,-42.771l14.098,27.461l14.098,-27.461l-14.098,-27.462l-14.098,27.462Z" style="fill:#fff;fill-rule:nonzero;"/><path d="M503.827,639.24l-21.96,-42.771l21.96,-42.772l21.96,42.772l-21.96,42.771Zm-14.098,-42.771l14.098,27.461l14.098,-27.461l-14.098,-27.462l-14.098,27.462Z" style="fill:#fff;fill-rule:nonzero;"/><path d="M539.885,639.24l-21.96,-42.771l21.96,-42.772l21.96,42.772l-21.96,42.771Zm-14.098,-42.771l14.098,27.461l14.097,-27.461l-14.097,-27.462l-14.098,27.462Z" style="fill:#fff;fill-rule:nonzero;"/><path d="M575.942,639.24l-21.96,-42.771l21.96,-42.772l21.96,42.772l-21.96,42.771Zm-14.097,-42.771l14.097,27.461l14.098,-27.461l-14.098,-27.462l-14.097,27.462Z" style="fill:#fff;fill-rule:nonzero;"/><path d="M611.729,639.24l-21.96,-42.771l21.96,-42.772l21.96,42.772l-21.96,42.771Zm-14.098,-42.771l14.098,27.461l14.098,-27.461l-14.098,-27.462l-14.098,27.462Z" style="fill:#fff;fill-rule:nonzero;"/><path d="M647.787,639.24l-21.96,-42.771l21.96,-42.772l21.96,42.772l-21.96,42.771Zm-14.098,-42.771l14.098,27.461l14.098,-27.461l-14.098,-27.462l-14.098,27.462Z" style="fill:#fff;fill-rule:nonzero;"/><path d="M683.845,639.24l-21.96,-42.771l21.96,-42.772l21.96,42.772l-21.96,42.771Zm-14.098,-42.771l14.098,27.461l14.097,-27.461l-14.097,-27.462l-14.098,27.462Z" style="fill:#fff;fill-rule:nonzero;"/><path d="M719.631,639.24l-21.96,-42.771l21.96,-42.772l21.96,42.772l-21.96,42.771Zm-14.098,-42.771l14.098,27.461l14.098,-27.461l-14.098,-27.462l-14.098,27.462Z" style="fill:#fff;fill-rule:nonzero;"/><path d="M36.431,709.473l-21.96,-42.771l21.96,-42.772l21.96,42.772l-21.96,42.771Zm-14.098,-42.771l14.098,27.461l14.098,-27.461l-14.098,-27.462l-14.098,27.462Z" style="fill:#fff;fill-rule:nonzero;"/><path d="M72.489,709.473l-21.96,-42.771l21.96,-42.772l21.96,42.772l-21.96,42.771Zm-14.098,-42.771l14.098,27.461l14.098,-27.461l-14.098,-27.462l-14.098,27.462Z" style="fill:#fff;fill-rule:nonzero;"/><path d="M108.276,709.473l-21.689,-42.771l21.96,-42.772l21.96,42.772l-22.231,42.771Zm-14.098,-42.771l14.098,27.461l14.097,-27.461l-14.097,-27.462l-14.098,27.462Z" style="fill:#fff;fill-rule:nonzero;"/><path d="M144.333,709.473l-21.96,-42.771l21.96,-42.772l21.96,42.772l-21.96,42.771Zm-14.097,-42.771l14.097,27.461l14.098,-27.461l-14.098,-27.462l-14.097,27.462Z" style="fill:#fff;fill-rule:nonzero;"/><path d="M180.391,709.473l-21.96,-42.771l21.96,-42.772l21.96,42.772l-21.96,42.771Zm-14.098,-42.771l14.098,27.461l14.098,-27.461l-14.098,-27.462l-14.098,27.462Z" style="fill:#fff;fill-rule:nonzero;"/><path d="M216.178,709.473l-21.96,-42.771l21.96,-42.772l21.96,42.772l-21.96,42.771Zm-14.098,-42.771l14.098,27.461l14.098,-27.461l-14.098,-27.462l-14.098,27.462Z" style="fill:#fff;fill-rule:nonzero;"/><path d="M252.236,709.473l-21.96,-42.771l21.96,-42.772l21.96,42.772l-21.96,42.771Zm-14.098,-42.771l14.098,27.461l14.097,-27.461l-14.097,-27.462l-14.098,27.462Z" style="fill:#fff;fill-rule:nonzero;"/><path d="M288.022,709.473l-21.96,-42.771l21.96,-42.772l21.96,42.772l-21.96,42.771Zm-14.097,-42.771l14.097,27.461l14.098,-27.461l-14.098,-27.462l-14.097,27.462Z" style="fill:#fff;fill-rule:nonzero;"/><path d="M324.08,709.473l-21.96,-42.771l21.96,-42.772l21.96,42.772l-21.96,42.771Zm-14.098,-42.771l14.098,27.461l14.098,-27.461l-14.098,-27.462l-14.098,27.462Z" style="fill:#fff;fill-rule:nonzero;"/><path d="M360.138,709.473l-21.96,-42.771l21.96,-42.772l21.96,42.772l-21.96,42.771Zm-14.098,-42.771l14.098,27.461l14.098,-27.461l-14.098,-27.462l-14.098,27.462Z" style="fill:#fff;fill-rule:nonzero;"/><path d="M395.925,709.473l-21.96,-42.771l21.96,-42.772l21.96,42.772l-21.96,42.771Zm-14.098,-42.771l14.098,27.461l14.097,-27.461l-14.097,-27.462l-14.098,27.462Z" style="fill:#fff;fill-rule:nonzero;"/><path d="M431.982,709.473l-21.96,-42.771l21.96,-42.772l21.96,42.772l-21.96,42.771Zm-14.097,-42.771l14.097,27.461l14.098,-27.461l-14.098,-27.462l-14.097,27.462Z" style="fill:#fff;fill-rule:nonzero;"/><path d="M468.04,709.473l-21.96,-42.771l21.96,-42.772l21.96,42.772l-21.96,42.771Zm-14.098,-42.771l14.098,27.461l14.098,-27.461l-14.098,-27.462l-14.098,27.462Z" style="fill:#fff;fill-rule:nonzero;"/><path d="M503.827,709.473l-21.96,-42.771l21.96,-42.772l21.96,42.772l-21.96,42.771Zm-14.098,-42.771l14.098,27.461l14.098,-27.461l-14.098,-27.462l-14.098,27.462Z" style="fill:#fff;fill-rule:nonzero;"/><path d="M539.885,709.473l-21.96,-42.771l21.96,-42.772l21.96,42.772l-21.96,42.771Zm-14.098,-42.771l14.098,27.461l14.097,-27.461l-14.097,-27.462l-14.098,27.462Z" style="fill:#fff;fill-rule:nonzero;"/><path d="M575.942,709.473l-21.96,-42.771l21.96,-42.772l21.96,42.772l-21.96,42.771Zm-14.097,-42.771l14.097,27.461l14.098,-27.461l-14.098,-27.462l-14.097,27.462Z" style="fill:#fff;fill-rule:nonzero;"/><path d="M611.729,709.473l-21.96,-42.771l21.96,-42.772l21.96,42.772l-21.96,42.771Zm-14.098,-42.771l14.098,27.461l14.098,-27.461l-14.098,-27.462l-14.098,27.462Z" style="fill:#fff;fill-rule:nonzero;"/><path d="M647.787,709.473l-21.96,-42.771l21.96,-42.772l21.96,42.772l-21.96,42.771Zm-14.098,-42.771l14.098,27.461l14.098,-27.461l-14.098,-27.462l-14.098,27.462Z" style="fill:#fff;fill-rule:nonzero;"/><path d="M683.845,709.473l-21.96,-42.771l21.96,-42.772l21.96,42.772l-21.96,42.771Zm-14.098,-42.771l14.098,27.461l14.097,-27.461l-14.097,-27.462l-14.098,27.462Z" style="fill:#fff;fill-rule:nonzero;"/><path d="M719.631,709.473l-21.96,-42.771l21.96,-42.772l21.96,42.772l-21.96,42.771Zm-14.098,-42.771l14.098,27.461l14.098,-27.461l-14.098,-27.462l-14.098,27.462Z" style="fill:#fff;fill-rule:nonzero;"/><path d="M36.431,779.707l-21.96,-42.772l21.96,-42.772l21.96,42.772l-21.96,42.772Zm-14.098,-42.772l14.098,27.461l14.098,-27.461l-14.098,-27.462l-14.098,27.462Z" style="fill:#fff;fill-rule:nonzero;"/><path d="M72.489,779.707l-21.96,-42.772l21.96,-42.772l21.96,42.772l-21.96,42.772Zm-14.098,-42.772l14.098,27.461l14.098,-27.461l-14.098,-27.462l-14.098,27.462Z" style="fill:#fff;fill-rule:nonzero;"/><path d="M108.276,779.707l-21.96,-42.772l21.96,-42.772l21.96,42.772l-21.96,42.772Zm-14.098,-42.772l14.098,27.461l14.097,-27.461l-14.097,-27.462l-14.098,27.462Z" style="fill:#fff;fill-rule:nonzero;"/><path d="M144.333,779.707l-21.96,-42.772l21.96,-42.772l21.96,42.772l-21.96,42.772Zm-14.097,-42.772l14.097,27.461l14.098,-27.461l-14.098,-27.462l-14.097,27.462Z" style="fill:#fff;fill-rule:nonzero;"/><path d="M180.391,779.707l-21.96,-42.772l21.96,-42.772l21.96,42.772l-21.96,42.772Zm-14.098,-42.772l14.098,27.461l14.098,-27.461l-14.098,-27.462l-14.098,27.462Z" style="fill:#fff;fill-rule:nonzero;"/><path d="M216.178,779.707l-21.96,-42.772l21.96,-42.772l21.96,42.772l-21.96,42.772Zm-14.098,-42.772l14.098,27.461l14.098,-27.461l-14.098,-27.462l-14.098,27.462Z" style="fill:#fff;fill-rule:nonzero;"/><path d="M252.236,779.707l-21.96,-42.772l21.96,-42.772l21.96,42.772l-21.96,42.772Zm-14.098,-42.772l14.098,27.461l14.097,-27.461l-14.097,-27.462l-14.098,27.462Z" style="fill:#fff;fill-rule:nonzero;"/><path d="M288.022,779.707l-21.96,-42.772l21.96,-42.772l21.96,42.772l-21.96,42.772Zm-14.097,-42.772l14.097,27.461l14.098,-27.461l-14.098,-27.462l-14.097,27.462Z" style="fill:#fff;fill-rule:nonzero;"/><path d="M324.08,779.707l-21.96,-42.772l21.96,-42.772l21.96,42.772l-21.96,42.772Zm-14.098,-42.772l14.098,27.461l14.098,-27.461l-14.098,-27.462l-14.098,27.462Z" style="fill:#fff;fill-rule:nonzero;"/><path d="M360.138,779.707l-21.96,-42.772l21.96,-42.772l21.96,42.772l-21.96,42.772Zm-14.098,-42.772l14.098,27.461l14.098,-27.461l-14.098,-27.462l-14.098,27.462Z" style="fill:#fff;fill-rule:nonzero;"/><path d="M395.925,779.707l-21.96,-42.772l21.96,-42.772l21.96,42.772l-21.96,42.772Zm-14.098,-42.772l14.098,27.461l14.097,-27.461l-14.097,-27.462l-14.098,27.462Z" style="fill:#fff;fill-rule:nonzero;"/><path d="M431.982,779.707l-21.96,-42.772l21.96,-42.772l21.96,42.772l-21.96,42.772Zm-14.097,-42.772l14.097,27.461l14.098,-27.461l-14.098,-27.462l-14.097,27.462Z" style="fill:#fff;fill-rule:nonzero;"/><path d="M468.04,779.707l-21.96,-42.772l21.96,-42.772l21.96,42.772l-21.96,42.772Zm-14.098,-42.772l14.098,27.461l14.098,-27.461l-14.098,-27.462l-14.098,27.462Z" style="fill:#fff;fill-rule:nonzero;"/><path d="M503.827,779.707l-21.96,-42.772l21.96,-42.772l21.96,42.772l-21.96,42.772Zm-14.098,-42.772l14.098,27.461l14.098,-27.461l-14.098,-27.462l-14.098,27.462Z" style="fill:#fff;fill-rule:nonzero;"/><path d="M539.885,779.707l-21.96,-42.772l21.96,-42.772l21.96,42.772l-21.96,42.772Zm-14.098,-42.772l14.098,27.461l14.097,-27.461l-14.097,-27.462l-14.098,27.462Z" style="fill:#fff;fill-rule:nonzero;"/><path d="M575.942,779.707l-21.96,-42.772l21.96,-42.772l21.96,42.772l-21.96,42.772Zm-14.097,-42.772l14.097,27.461l14.098,-27.461l-14.098,-27.462l-14.097,27.462Z" style="fill:#fff;fill-rule:nonzero;"/><path d="M611.729,779.707l-21.96,-42.772l21.96,-42.772l21.96,42.772l-21.96,42.772Zm-14.098,-42.772l14.098,27.461l14.098,-27.461l-14.098,-27.462l-14.098,27.462Z" style="fill:#fff;fill-rule:nonzero;"/><path d="M647.787,779.707l-21.96,-42.772l21.96,-42.772l21.96,42.772l-21.96,42.772Zm-14.098,-42.772l14.098,27.461l14.098,-27.461l-14.098,-27.462l-14.098,27.462Z" style="fill:#fff;fill-rule:nonzero;"/><path d="M683.845,779.707l-21.96,-42.772l21.96,-42.772l21.96,42.772l-21.96,42.772Zm-14.098,-42.772l14.098,27.461l14.097,-27.461l-14.097,-27.462l-14.098,27.462Z" style="fill:#fff;fill-rule:nonzero;"/><path d="M719.631,779.707l-21.96,-42.772l21.96,-42.772l21.96,42.772l-21.96,42.772Zm-14.098,-42.772l14.098,27.461l14.098,-27.461l-14.098,-27.462l-14.098,27.462Z" style="fill:#fff;fill-rule:nonzero;"/><path d="M36.431,850.183l-21.96,-42.772l21.96,-42.772l21.96,42.772l-21.96,42.772Zm-14.098,-42.772l14.098,27.461l14.098,-27.461l-14.098,-27.461l-14.098,27.461Z" style="fill:#fff;fill-rule:nonzero;"/><path d="M72.489,850.183l-21.96,-42.772l21.96,-42.772l21.96,42.772l-21.96,42.772Zm-14.098,-42.772l14.098,27.461l14.098,-27.461l-14.098,-27.461l-14.098,27.461Z" style="fill:#fff;fill-rule:nonzero;"/><path d="M108.276,850.183l-21.96,-42.772l21.96,-42.772l21.96,42.772l-21.96,42.772Zm-14.098,-42.772l14.098,27.461l14.097,-27.461l-14.097,-27.461l-14.098,27.461Z" style="fill:#fff;fill-rule:nonzero;"/><path d="M144.333,850.183l-21.96,-42.772l21.96,-42.772l21.96,42.772l-21.96,42.772Zm-14.097,-42.772l14.097,27.461l14.098,-27.461l-14.098,-27.461l-14.097,27.461Z" style="fill:#fff;fill-rule:nonzero;"/><path d="M180.391,850.183l-21.96,-42.772l21.96,-42.772l21.96,42.772l-21.96,42.772Zm-14.098,-42.772l14.098,27.461l14.098,-27.461l-14.098,-27.461l-14.098,27.461Z" style="fill:#fff;fill-rule:nonzero;"/><path d="M216.178,850.183l-21.96,-42.772l21.96,-42.772l21.96,42.772l-21.96,42.772Zm-14.098,-42.772l14.098,27.461l14.098,-27.461l-14.098,-27.461l-14.098,27.461Z" style="fill:#fff;fill-rule:nonzero;"/><path d="M252.236,850.183l-21.96,-42.772l21.96,-42.772l21.96,42.772l-21.96,42.772Zm-14.098,-42.772l14.098,27.461l14.097,-27.461l-14.097,-27.461l-14.098,27.461Z" style="fill:#fff;fill-rule:nonzero;"/><path d="M288.022,850.183l-21.96,-42.772l21.96,-42.772l21.96,42.772l-21.96,42.772Zm-14.097,-42.772l14.097,27.461l14.098,-27.461l-14.098,-27.461l-14.097,27.461Z" style="fill:#fff;fill-rule:nonzero;"/><path d="M324.08,850.183l-21.96,-42.772l21.96,-42.772l21.96,42.772l-21.96,42.772Zm-14.098,-42.772l14.098,27.461l14.098,-27.461l-14.098,-27.461l-14.098,27.461Z" style="fill:#fff;fill-rule:nonzero;"/><path d="M360.138,850.183l-21.96,-42.772l21.96,-42.772l21.96,42.772l-21.96,42.772Zm-14.098,-42.772l14.098,27.461l14.098,-27.461l-14.098,-27.461l-14.098,27.461Z" style="fill:#fff;fill-rule:nonzero;"/><path d="M395.925,850.183l-21.96,-42.772l21.96,-42.772l21.96,42.772l-21.96,42.772Zm-14.098,-42.772l14.098,27.461l14.097,-27.461l-14.097,-27.461l-14.098,27.461Z" style="fill:#fff;fill-rule:nonzero;"/><path d="M431.982,850.183l-21.96,-42.772l21.96,-42.772l21.96,42.772l-21.96,42.772Zm-14.097,-42.772l14.097,27.461l14.098,-27.461l-14.098,-27.461l-14.097,27.461Z" style="fill:#fff;fill-rule:nonzero;"/><path d="M468.04,850.183l-21.96,-42.772l21.96,-42.772l21.96,42.772l-21.96,42.772Zm-14.098,-42.772l14.098,27.461l14.098,-27.461l-14.098,-27.461l-14.098,27.461Z" style="fill:#fff;fill-rule:nonzero;"/><path d="M503.827,850.183l-21.96,-42.772l21.96,-42.772l21.96,42.772l-21.96,42.772Zm-14.098,-42.772l14.098,27.461l14.098,-27.461l-14.098,-27.461l-14.098,27.461Z" style="fill:#fff;fill-rule:nonzero;"/><path d="M539.885,850.183l-21.96,-42.772l21.96,-42.772l21.96,42.772l-21.96,42.772Zm-14.098,-42.772l14.098,27.461l14.097,-27.461l-14.097,-27.461l-14.098,27.461Z" style="fill:#fff;fill-rule:nonzero;"/><path d="M575.942,850.183l-21.96,-42.772l21.96,-42.772l21.96,42.772l-21.96,42.772Zm-14.097,-42.772l14.097,27.461l14.098,-27.461l-14.098,-27.461l-14.097,27.461Z" style="fill:#fff;fill-rule:nonzero;"/><path d="M611.729,850.183l-21.96,-42.772l21.96,-42.772l21.96,42.772l-21.96,42.772Zm-14.098,-42.772l14.098,27.461l14.098,-27.461l-14.098,-27.461l-14.098,27.461Z" style="fill:#fff;fill-rule:nonzero;"/><path d="M647.787,850.183l-21.96,-42.772l21.96,-42.772l21.96,42.772l-21.96,42.772Zm-14.098,-42.772l14.098,27.461l14.098,-27.461l-14.098,-27.461l-14.098,27.461Z" style="fill:#fff;fill-rule:nonzero;"/><path d="M683.845,850.183l-21.96,-42.772l21.96,-42.772l21.96,42.772l-21.96,42.772Zm-14.098,-42.772l14.098,27.461l14.097,-27.461l-14.097,-27.461l-14.098,27.461Z" style="fill:#fff;fill-rule:nonzero;"/><path d="M719.631,850.183l-21.96,-42.772l21.96,-42.772l21.96,42.772l-21.96,42.772Zm-14.098,-42.772l14.098,27.461l14.098,-27.461l-14.098,-27.461l-14.098,27.461Z" style="fill:#fff;fill-rule:nonzero;"/><path d="M36.431,920.416l-21.96,-42.772l21.96,-42.772l21.96,42.772l-21.96,42.772Zm-14.098,-42.772l14.098,27.462l14.098,-27.462l-14.098,-27.461l-14.098,27.461Z" style="fill:#fff;fill-rule:nonzero;"/><path d="M72.489,920.416l-21.96,-42.772l21.96,-42.772l21.96,42.772l-21.96,42.772Zm-14.098,-42.772l14.098,27.462l14.098,-27.462l-14.098,-27.461l-14.098,27.461Z" style="fill:#fff;fill-rule:nonzero;"/><path d="M108.276,920.416l-21.96,-42.772l21.96,-42.772l21.96,42.772l-21.96,42.772Zm-14.098,-42.772l14.098,27.462l14.097,-27.462l-14.097,-27.461l-14.098,27.461Z" style="fill:#fff;fill-rule:nonzero;"/><path d="M144.333,920.416l-21.96,-42.772l21.96,-42.772l21.96,42.772l-21.96,42.772Zm-14.097,-42.772l14.097,27.462l14.098,-27.462l-14.098,-27.461l-14.097,27.461Z" style="fill:#fff;fill-rule:nonzero;"/><path d="M180.391,920.416l-21.96,-42.772l21.96,-42.772l21.96,42.772l-21.96,42.772Zm-14.098,-42.772l14.098,27.462l14.098,-27.462l-14.098,-27.461l-14.098,27.461Z" style="fill:#fff;fill-rule:nonzero;"/><path d="M216.178,920.416l-21.96,-42.772l21.96,-42.772l21.96,42.772l-21.96,42.772Zm-14.098,-42.772l14.098,27.462l14.098,-27.462l-14.098,-27.461l-14.098,27.461Z" style="fill:#fff;fill-rule:nonzero;"/><path d="M252.236,920.416l-21.96,-42.772l21.96,-42.772l21.96,42.772l-21.96,42.772Zm-14.098,-42.772l14.098,27.462l14.097,-27.462l-14.097,-27.461l-14.098,27.461Z" style="fill:#fff;fill-rule:nonzero;"/><path d="M288.022,920.416l-21.96,-42.772l21.96,-42.772l21.96,42.772l-21.96,42.772Zm-14.097,-42.772l14.097,27.462l14.098,-27.462l-14.098,-27.461l-14.097,27.461Z" style="fill:#fff;fill-rule:nonzero;"/><path d="M324.08,920.416l-21.96,-42.772l21.96,-42.772l21.96,42.772l-21.96,42.772Zm-14.098,-42.772l14.098,27.462l14.098,-27.462l-14.098,-27.461l-14.098,27.461Z" style="fill:#fff;fill-rule:nonzero;"/><path d="M360.138,920.416l-21.96,-42.772l21.96,-42.772l21.96,42.772l-21.96,42.772Zm-14.098,-42.772l14.098,27.462l14.098,-27.462l-14.098,-27.461l-14.098,27.461Z" style="fill:#fff;fill-rule:nonzero;"/><path d="M395.925,920.416l-21.96,-42.772l21.96,-42.772l21.96,42.772l-21.96,42.772Zm-14.098,-42.772l14.098,27.462l14.097,-27.462l-14.097,-27.461l-14.098,27.461Z" style="fill:#fff;fill-rule:nonzero;"/><path d="M431.982,920.416l-21.96,-42.772l21.96,-42.772l21.96,42.772l-21.96,42.772Zm-14.097,-42.772l14.097,27.462l14.098,-27.462l-14.098,-27.461l-14.097,27.461Z" style="fill:#fff;fill-rule:nonzero;"/><path d="M468.04,920.416l-21.96,-42.772l21.96,-42.772l21.96,42.772l-21.96,42.772Zm-14.098,-42.772l14.098,27.462l14.098,-27.462l-14.098,-27.461l-14.098,27.461Z" style="fill:#fff;fill-rule:nonzero;"/><path d="M503.827,920.416l-21.96,-42.772l21.96,-42.772l21.96,42.772l-21.96,42.772Zm-14.098,-42.772l14.098,27.462l14.098,-27.462l-14.098,-27.461l-14.098,27.461Z" style="fill:#fff;fill-rule:nonzero;"/><path d="M539.885,920.416l-21.96,-42.772l21.96,-42.772l21.96,42.772l-21.96,42.772Zm-14.098,-42.772l14.098,27.462l14.097,-27.462l-14.097,-27.461l-14.098,27.461Z" style="fill:#fff;fill-rule:nonzero;"/><path d="M575.942,920.416l-21.96,-42.772l21.96,-42.772l21.96,42.772l-21.96,42.772Zm-14.097,-42.772l14.097,27.462l14.098,-27.462l-14.098,-27.461l-14.097,27.461Z" style="fill:#fff;fill-rule:nonzero;"/><path d="M611.729,920.416l-21.96,-42.772l21.96,-42.772l21.96,42.772l-21.96,42.772Zm-14.098,-42.772l14.098,27.462l14.098,-27.462l-14.098,-27.461l-14.098,27.461Z" style="fill:#fff;fill-rule:nonzero;"/><path d="M647.787,920.416l-21.96,-42.772l21.96,-42.772l21.96,42.772l-21.96,42.772Zm-14.098,-42.772l14.098,27.462l14.098,-27.462l-14.098,-27.461l-14.098,27.461Z" style="fill:#fff;fill-rule:nonzero;"/><path d="M683.845,920.416l-21.96,-42.772l21.96,-42.772l21.96,42.772l-21.96,42.772Zm-14.098,-42.772l14.098,27.462l14.097,-27.462l-14.097,-27.461l-14.098,27.461Z" style="fill:#fff;fill-rule:nonzero;"/><path d="M719.631,920.416l-21.96,-42.772l21.96,-42.772l21.96,42.772l-21.96,42.772Zm-14.098,-42.772l14.098,27.462l14.098,-27.462l-14.098,-27.461l-14.098,27.461Z" style="fill:#fff;fill-rule:nonzero;"/><path d="M36.431,990.649l-21.96,-42.772l21.96,-42.771l21.96,42.771l-21.96,42.772Zm-14.098,-42.772l14.098,27.462l14.098,-27.462l-14.098,-27.461l-14.098,27.461Z" style="fill:#fff;fill-rule:nonzero;"/><path d="M72.489,990.649l-21.96,-42.772l21.96,-42.771l21.96,42.771l-21.96,42.772Zm-14.098,-42.772l14.098,27.462l14.098,-27.462l-14.098,-27.461l-14.098,27.461Z" style="fill:#fff;fill-rule:nonzero;"/><path d="M108.276,990.649l-21.96,-42.772l21.96,-42.771l21.96,42.771l-21.96,42.772Zm-14.098,-42.772l14.098,27.462l14.097,-27.462l-14.097,-27.461l-14.098,27.461Z" style="fill:#fff;fill-rule:nonzero;"/><path d="M144.333,990.649l-21.96,-42.772l21.96,-42.771l21.96,42.771l-21.96,42.772Zm-14.097,-42.772l14.097,27.462l14.098,-27.462l-14.098,-27.461l-14.097,27.461Z" style="fill:#fff;fill-rule:nonzero;"/><path d="M180.391,990.649l-21.96,-42.772l21.96,-42.771l21.96,42.771l-21.96,42.772Zm-14.098,-42.772l14.098,27.462l14.098,-27.462l-14.098,-27.461l-14.098,27.461Z" style="fill:#fff;fill-rule:nonzero;"/><path d="M216.178,990.649l-21.96,-42.772l21.96,-42.771l21.96,42.771l-21.96,42.772Zm-14.098,-42.772l14.098,27.462l14.098,-27.462l-14.098,-27.461l-14.098,27.461Z" style="fill:#fff;fill-rule:nonzero;"/><path d="M252.236,990.649l-21.96,-42.772l21.96,-42.771l21.96,42.771l-21.96,42.772Zm-14.098,-42.772l14.098,27.462l14.097,-27.462l-14.097,-27.461l-14.098,27.461Z" style="fill:#fff;fill-rule:nonzero;"/><path d="M288.022,990.649l-21.96,-42.772l21.96,-42.771l21.96,42.771l-21.96,42.772Zm-14.097,-42.772l14.097,27.462l14.098,-27.462l-14.098,-27.461l-14.097,27.461Z" style="fill:#fff;fill-rule:nonzero;"/><path d="M324.08,990.649l-21.96,-42.772l21.96,-42.771l21.96,42.771l-21.96,42.772Zm-14.098,-42.772l14.098,27.462l14.098,-27.462l-14.098,-27.461l-14.098,27.461Z" style="fill:#fff;fill-rule:nonzero;"/><path d="M360.138,990.649l-21.96,-42.772l21.96,-42.771l21.96,42.771l-21.96,42.772Zm-14.098,-42.772l14.098,27.462l14.098,-27.462l-14.098,-27.461l-14.098,27.461Z" style="fill:#fff;fill-rule:nonzero;"/><path d="M395.925,990.649l-21.96,-42.772l21.96,-42.771l21.96,42.771l-21.96,42.772Zm-14.098,-42.772l14.098,27.462l14.097,-27.462l-14.097,-27.461l-14.098,27.461Z" style="fill:#fff;fill-rule:nonzero;"/><path d="M431.982,990.649l-21.96,-42.772l21.96,-42.771l21.96,42.771l-21.96,42.772Zm-14.097,-42.772l14.097,27.462l14.098,-27.462l-14.098,-27.461l-14.097,27.461Z" style="fill:#fff;fill-rule:nonzero;"/><path d="M468.04,990.649l-21.96,-42.772l21.96,-42.771l21.96,42.771l-21.96,42.772Zm-14.098,-42.772l14.098,27.462l14.098,-27.462l-14.098,-27.461l-14.098,27.461Z" style="fill:#fff;fill-rule:nonzero;"/><path d="M503.827,990.649l-21.96,-42.772l21.96,-42.771l21.96,42.771l-21.96,42.772Zm-14.098,-42.772l14.098,27.462l14.098,-27.462l-14.098,-27.461l-14.098,27.461Z" style="fill:#fff;fill-rule:nonzero;"/><path d="M539.885,990.649l-21.96,-42.772l21.96,-42.771l21.96,42.771l-21.96,42.772Zm-14.098,-42.772l14.098,27.462l14.097,-27.462l-14.097,-27.461l-14.098,27.461Z" style="fill:#fff;fill-rule:nonzero;"/><path d="M575.942,990.649l-21.96,-42.772l21.96,-42.771l21.96,42.771l-21.96,42.772Zm-14.097,-42.772l14.097,27.462l14.098,-27.462l-14.098,-27.461l-14.097,27.461Z" style="fill:#fff;fill-rule:nonzero;"/><path d="M611.729,990.649l-21.96,-42.772l21.96,-42.771l21.96,42.771l-21.96,42.772Zm-14.098,-42.772l14.098,27.462l14.098,-27.462l-14.098,-27.461l-14.098,27.461Z" style="fill:#fff;fill-rule:nonzero;"/><path d="M647.787,990.649l-21.96,-42.772l21.96,-42.771l21.96,42.771l-21.96,42.772Zm-14.098,-42.772l14.098,27.462l14.098,-27.462l-14.098,-27.461l-14.098,27.461Z" style="fill:#fff;fill-rule:nonzero;"/><path d="M683.845,990.649l-21.96,-42.772l21.96,-42.771l21.96,42.771l-21.96,42.772Zm-14.098,-42.772l14.098,27.462l14.097,-27.462l-14.097,-27.461l-14.098,27.461Z" style="fill:#fff;fill-rule:nonzero;"/><path d="M719.631,990.649l-21.96,-42.772l21.96,-42.771l21.96,42.771l-21.96,42.772Zm-14.098,-42.772l14.098,27.462l14.098,-27.462l-14.098,-27.461l-14.098,27.461Z" style="fill:#fff;fill-rule:nonzero;"/><path d="M36.431,1061.12l-21.96,-42.771l21.96,-42.772l21.96,42.772l-21.96,42.771Zm-14.098,-42.771l14.098,27.461l14.098,-27.461l-14.098,-27.462l-14.098,27.462Z" style="fill:#fff;fill-rule:nonzero;"/><path d="M72.489,1061.12l-21.96,-42.771l21.96,-42.772l21.96,42.772l-21.96,42.771Zm-14.098,-42.771l14.098,27.461l14.098,-27.461l-14.098,-27.462l-14.098,27.462Z" style="fill:#fff;fill-rule:nonzero;"/><path d="M108.276,1061.12l-21.96,-42.771l21.96,-42.772l21.96,42.772l-21.96,42.771Zm-14.098,-42.771l14.098,27.461l14.097,-27.461l-14.097,-27.462l-14.098,27.462Z" style="fill:#fff;fill-rule:nonzero;"/><path d="M144.333,1061.12l-21.96,-42.771l21.96,-42.772l21.96,42.772l-21.96,42.771Zm-14.097,-42.771l14.097,27.461l14.098,-27.461l-14.098,-27.462l-14.097,27.462Z" style="fill:#fff;fill-rule:nonzero;"/><path d="M180.391,1061.12l-21.96,-42.771l21.96,-42.772l21.96,42.772l-21.96,42.771Zm-14.098,-42.771l14.098,27.461l14.098,-27.461l-14.098,-27.462l-14.098,27.462Z" style="fill:#fff;fill-rule:nonzero;"/><path d="M216.178,1061.12l-21.96,-42.771l21.96,-42.772l21.96,42.772l-21.96,42.771Zm-14.098,-42.771l14.098,27.461l14.098,-27.461l-14.098,-27.462l-14.098,27.462Z" style="fill:#fff;fill-rule:nonzero;"/><path d="M252.236,1061.12l-21.96,-42.771l21.96,-42.772l21.96,42.772l-21.96,42.771Zm-14.098,-42.771l14.098,27.461l14.097,-27.461l-14.097,-27.462l-14.098,27.462Z" style="fill:#fff;fill-rule:nonzero;"/><path d="M288.022,1061.12l-21.96,-42.771l21.96,-42.772l21.96,42.772l-21.96,42.771Zm-14.097,-42.771l14.097,27.461l14.098,-27.461l-14.098,-27.462l-14.097,27.462Z" style="fill:#fff;fill-rule:nonzero;"/><path d="M324.08,1061.12l-21.96,-42.771l21.96,-42.772l21.96,42.772l-21.96,42.771Zm-14.098,-42.771l14.098,27.461l14.098,-27.461l-14.098,-27.462l-14.098,27.462Z" style="fill:#fff;fill-rule:nonzero;"/><path d="M360.138,1061.12l-21.96,-42.771l21.96,-42.772l21.96,42.772l-21.96,42.771Zm-14.098,-42.771l14.098,27.461l14.098,-27.461l-14.098,-27.462l-14.098,27.462Z" style="fill:#fff;fill-rule:nonzero;"/><path d="M395.925,1061.12l-21.96,-42.771l21.96,-42.772l21.96,42.772l-21.96,42.771Zm-14.098,-42.771l14.098,27.461l14.097,-27.461l-14.097,-27.462l-14.098,27.462Z" style="fill:#fff;fill-rule:nonzero;"/><path d="M431.982,1061.12l-21.96,-42.771l21.96,-42.772l21.96,42.772l-21.96,42.771Zm-14.097,-42.771l14.097,27.461l14.098,-27.461l-14.098,-27.462l-14.097,27.462Z" style="fill:#fff;fill-rule:nonzero;"/><path d="M468.04,1061.12l-21.96,-42.771l21.96,-42.772l21.96,42.772l-21.96,42.771Zm-14.098,-42.771l14.098,27.461l14.098,-27.461l-14.098,-27.462l-14.098,27.462Z" style="fill:#fff;fill-rule:nonzero;"/><path d="M503.827,1061.12l-21.96,-42.771l21.96,-42.772l21.96,42.772l-21.96,42.771Zm-14.098,-42.771l14.098,27.461l14.098,-27.461l-14.098,-27.462l-14.098,27.462Z" style="fill:#fff;fill-rule:nonzero;"/><path d="M539.885,1061.12l-21.96,-42.771l21.96,-42.772l21.96,42.772l-21.96,42.771Zm-14.098,-42.771l14.098,27.461l14.097,-27.461l-14.097,-27.462l-14.098,27.462Z" style="fill:#fff;fill-rule:nonzero;"/><path d="M575.942,1061.12l-21.96,-42.771l21.96,-42.772l21.96,42.772l-21.96,42.771Zm-14.097,-42.771l14.097,27.461l14.098,-27.461l-14.098,-27.462l-14.097,27.462Z" style="fill:#fff;fill-rule:nonzero;"/><path d="M611.729,1061.12l-21.96,-42.771l21.96,-42.772l21.96,42.772l-21.96,42.771Zm-14.098,-42.771l14.098,27.461l14.098,-27.461l-14.098,-27.462l-14.098,27.462Z" style="fill:#fff;fill-rule:nonzero;"/><path d="M647.787,1061.12l-21.96,-42.771l21.96,-42.772l21.96,42.772l-21.96,42.771Zm-14.098,-42.771l14.098,27.461l14.098,-27.461l-14.098,-27.462l-14.098,27.462Z" style="fill:#fff;fill-rule:nonzero;"/><path d="M683.845,1061.12l-21.96,-42.771l21.96,-42.772l21.96,42.772l-21.96,42.771Zm-14.098,-42.771l14.098,27.461l14.097,-27.461l-14.097,-27.462l-14.098,27.462Z" style="fill:#fff;fill-rule:nonzero;"/><path d="M719.631,1061.12l-21.96,-42.771l21.96,-42.772l21.96,42.772l-21.96,42.771Zm-14.098,-42.771l14.098,27.461l14.098,-27.461l-14.098,-27.462l-14.098,27.462Z" style="fill:#fff;fill-rule:nonzero;"/></g></g></g></g></g></svg>