<?xml version="1.0" encoding="UTF-8" standalone="no"?><!DOCTYPE svg PUBLIC "-//W3C//DTD SVG 1.1//EN" "http://www.w3.org/Graphics/SVG/1.1/DTD/svg11.dtd"><svg width="100%" height="100%" viewBox="0 0 750 1050" version="1.1" xmlns="http://www.w3.org/2000/svg" xmlns:xlink="http://www.w3.org/1999/xlink" xml:space="preserve" xmlns:serif="http://www.serif.com/" style="fill-rule:evenodd;clip-rule:evenodd;stroke-linejoin:round;stroke-miterlimit:2;"><clipPath id="_clip1"><rect x="-4.563" y="0" width="754.563" height="1050"/></clipPath><g clip-path="url(#_clip1)"><g><g><g><path d="M770.906,1083.01l-796.474,0c-9.888,0 -17.978,-6.988 -17.978,-15.527l-0,-1086.36c-0,-8.54 8.09,-15.526 17.978,-15.526l796.474,-0c9.889,-0 17.98,6.986 17.98,15.526l-0,1086.36c-0,8.539 -8.091,15.527 -17.98,15.527Z" style="fill:#fff;fill-rule:nonzero;"/><path d="M770.906,1084.31l-796.474,-0c-10.787,-0 -19.477,-7.505 -19.477,-16.821l0,-1086.36c0,-9.316 8.69,-16.821 19.477,-16.821l796.474,-0c10.788,-0 19.478,7.505 19.478,16.821l0,1086.36c0,9.316 -8.69,16.821 -19.478,16.821Zm-796.474,-1117.15c-8.989,-0 -16.48,6.469 -16.48,14.232l-0,1086.1c-0,7.764 7.491,14.233 16.48,14.233l796.474,-0c8.99,-0 16.482,-6.469 16.482,-14.233l-0,-1086.36c-0,-7.763 -7.492,-14.233 -16.482,-14.233l-796.474,0l0,0.26Z" style="fill:#939598;fill-rule:nonzero;"/></g><g><path id="XMLID_1_" d="M-4.592,1046.78l0,-1044.69c0,-1.552 1.199,-2.588 2.997,-2.588l748.53,-0c1.498,-0 2.996,1.036 2.996,2.588l0,1044.69c0,1.553 -1.498,2.588 -2.996,2.588l-748.53,0c-1.499,0 -2.997,-1.293 -2.997,-2.588Z" style="fill:#d91e38;fill-rule:nonzero;"/><g><g><clipPath id="_clip2"><path d="M-4.592,1046.78l0,-1044.69c0,-1.552 1.199,-2.588 2.997,-2.588l748.53,-0c1.498,-0 2.996,1.036 2.996,2.588l0,1044.69c0,1.553 -1.498,2.588 -2.996,2.588l-748.53,0c-1.499,0 -2.997,-1.293 -2.997,-2.588Z"/></clipPath><g clip-path="url(#_clip2)"><path d="M-4.891,45.818l-24.272,-45.546l24.272,-45.545l24.272,45.545l-24.272,45.546Zm-15.582,-45.546l15.582,29.243l15.581,-29.243l-15.581,-29.242l-15.582,29.242Z" style="fill:#fff;fill-rule:nonzero;"/><path d="M34.962,45.818l-24.272,-45.546l24.272,-45.545l24.272,45.545l-24.272,45.546Zm-15.581,-45.546l15.581,29.243l15.582,-29.243l-15.582,-29.242l-15.581,29.242Z" style="fill:#fff;fill-rule:nonzero;"/><path d="M74.516,45.818l-23.972,-45.546l23.972,-45.545l24.271,45.545l-24.271,45.546Zm-15.582,-45.546l15.582,29.243l15.582,-29.243l-15.582,-29.242l-15.582,29.242Z" style="fill:#fff;fill-rule:nonzero;"/><path d="M114.37,45.818l-24.272,-45.546l24.272,-45.545l24.271,45.545l-24.271,45.546Zm-15.583,-45.546l15.583,29.243l15.582,-29.243l-15.582,-29.242l-15.583,29.242Z" style="fill:#fff;fill-rule:nonzero;"/><path d="M154.224,45.818l-24.272,-45.546l24.272,-45.545l24.272,45.545l-24.272,45.546Zm-15.583,-45.546l15.583,29.243l15.581,-29.243l-15.581,-29.242l-15.583,29.242Z" style="fill:#fff;fill-rule:nonzero;"/><path d="M193.777,45.818l-24.271,-45.546l24.271,-45.545l24.272,45.545l-24.272,45.546Zm-15.582,-45.546l15.582,29.243l15.583,-29.243l-15.583,-29.242l-15.582,29.242Z" style="fill:#fff;fill-rule:nonzero;"/><path d="M233.632,45.818l-24.272,-45.546l24.272,-45.545l24.271,45.545l-24.271,45.546Zm-15.583,-45.546l15.583,29.243l15.581,-29.243l-15.581,-29.242l-15.583,29.242Z" style="fill:#fff;fill-rule:nonzero;"/><path d="M273.185,45.818l-24.272,-45.546l24.272,-45.545l24.272,45.545l-24.272,45.546Zm-15.582,-45.546l15.582,29.243l15.583,-29.243l-15.583,-29.242l-15.582,29.242Z" style="fill:#fff;fill-rule:nonzero;"/><path d="M313.039,45.818l-24.271,-45.546l24.271,-45.545l24.272,45.545l-24.272,45.546Zm-15.582,-45.546l15.582,29.243l15.582,-29.243l-15.582,-29.242l-15.582,29.242Z" style="fill:#fff;fill-rule:nonzero;"/><path d="M352.892,45.818l-24.271,-45.546l24.271,-45.545l24.272,45.545l-24.272,45.546Zm-15.581,-45.546l15.581,29.243l15.583,-29.243l-15.583,-29.242l-15.581,29.242Z" style="fill:#fff;fill-rule:nonzero;"/><path d="M392.446,45.818l-24.272,-45.546l24.272,-45.545l24.272,45.545l-24.272,45.546Zm-15.581,-45.546l15.581,29.243l15.582,-29.243l-15.582,-29.242l-15.581,29.242Z" style="fill:#fff;fill-rule:nonzero;"/><path d="M432.3,45.818l-24.272,-45.546l24.272,-45.545l24.272,45.545l-24.272,45.546Zm-15.582,-45.546l15.582,29.243l15.582,-29.243l-15.582,-29.242l-15.582,29.242Z" style="fill:#fff;fill-rule:nonzero;"/><path d="M472.154,45.818l-24.272,-45.546l24.272,-45.545l24.272,45.545l-24.272,45.546Zm-15.582,-45.546l15.582,29.243l15.582,-29.243l-15.582,-29.242l-15.582,29.242Z" style="fill:#fff;fill-rule:nonzero;"/><path d="M511.708,45.818l-24.272,-45.546l24.272,-45.545l24.272,45.545l-24.272,45.546Zm-15.582,-45.546l15.582,29.243l15.582,-29.243l-15.582,-29.242l-15.582,29.242Z" style="fill:#fff;fill-rule:nonzero;"/><path d="M551.562,45.818l-24.272,-45.546l24.272,-45.545l24.272,45.545l-24.272,45.546Zm-15.582,-45.546l15.582,29.243l15.581,-29.243l-15.581,-29.242l-15.582,29.242Z" style="fill:#fff;fill-rule:nonzero;"/><path d="M591.415,45.818l-24.272,-45.546l24.272,-45.545l24.272,45.545l-24.272,45.546Zm-15.581,-45.546l15.581,29.243l15.582,-29.243l-15.582,-29.242l-15.581,29.242Z" style="fill:#fff;fill-rule:nonzero;"/><path d="M630.97,45.818l-24.273,-45.546l24.273,-45.545l24.271,45.545l-24.271,45.546Zm-15.583,-45.546l15.583,29.243l15.581,-29.243l-15.581,-29.242l-15.583,29.242Z" style="fill:#fff;fill-rule:nonzero;"/><path d="M670.823,45.818l-24.272,-45.546l24.272,-45.545l24.272,45.545l-24.272,45.546Zm-15.582,-45.546l15.582,29.243l15.582,-29.243l-15.582,-29.242l-15.582,29.242Z" style="fill:#fff;fill-rule:nonzero;"/><path d="M710.677,45.818l-24.272,-45.546l24.272,-45.545l24.272,45.545l-24.272,45.546Zm-15.582,-45.546l15.582,29.243l15.581,-29.243l-15.581,-29.242l-15.582,29.242Z" style="fill:#fff;fill-rule:nonzero;"/><path d="M750.231,45.818l-24.272,-45.546l24.272,-45.545l24.271,45.545l-24.271,45.546Zm-15.583,-45.546l15.583,29.243l15.582,-29.243l-15.582,-29.242l-15.583,29.242Z" style="fill:#fff;fill-rule:nonzero;"/><path d="M-4.891,120.605l-24.272,-45.545l24.272,-45.545l24.272,45.545l-24.272,45.545Zm-15.582,-45.545l15.582,29.242l15.581,-29.242l-15.581,-29.242l-15.582,29.242Z" style="fill:#fff;fill-rule:nonzero;"/><path d="M34.962,120.605l-24.272,-45.545l24.272,-45.545l24.272,45.545l-24.272,45.545Zm-15.581,-45.545l15.581,29.242l15.582,-29.242l-15.582,-29.242l-15.581,29.242Z" style="fill:#fff;fill-rule:nonzero;"/><path d="M74.516,120.605l-23.972,-45.545l24.272,-45.545l24.272,45.545l-24.572,45.545Zm-15.582,-45.545l15.582,29.242l15.582,-29.242l-15.582,-29.242l-15.582,29.242Z" style="fill:#fff;fill-rule:nonzero;"/><path d="M114.37,120.605l-24.272,-45.545l24.272,-45.545l24.271,45.545l-24.271,45.545Zm-15.583,-45.545l15.583,29.242l15.582,-29.242l-15.582,-29.242l-15.583,29.242Z" style="fill:#fff;fill-rule:nonzero;"/><path d="M154.224,120.605l-24.272,-45.545l24.272,-45.545l24.272,45.545l-24.272,45.545Zm-15.583,-45.545l15.583,29.242l15.581,-29.242l-15.581,-29.242l-15.583,29.242Z" style="fill:#fff;fill-rule:nonzero;"/><path d="M193.777,120.605l-24.271,-45.545l24.271,-45.545l24.272,45.545l-24.272,45.545Zm-15.582,-45.545l15.582,29.242l15.583,-29.242l-15.583,-29.242l-15.582,29.242Z" style="fill:#fff;fill-rule:nonzero;"/><path d="M233.632,120.605l-24.272,-45.545l24.272,-45.545l24.271,45.545l-24.271,45.545Zm-15.583,-45.545l15.583,29.242l15.581,-29.242l-15.581,-29.242l-15.583,29.242Z" style="fill:#fff;fill-rule:nonzero;"/><path d="M273.185,120.605l-24.272,-45.545l24.272,-45.545l24.272,45.545l-24.272,45.545Zm-15.582,-45.545l15.582,29.242l15.583,-29.242l-15.583,-29.242l-15.582,29.242Z" style="fill:#fff;fill-rule:nonzero;"/><path d="M313.039,120.605l-24.271,-45.545l24.271,-45.545l24.272,45.545l-24.272,45.545Zm-15.582,-45.545l15.582,29.242l15.582,-29.242l-15.582,-29.242l-15.582,29.242Z" style="fill:#fff;fill-rule:nonzero;"/><path d="M352.892,120.605l-24.271,-45.545l24.271,-45.545l24.272,45.545l-24.272,45.545Zm-15.581,-45.545l15.581,29.242l15.583,-29.242l-15.583,-29.242l-15.581,29.242Z" style="fill:#fff;fill-rule:nonzero;"/><path d="M392.446,120.605l-24.272,-45.545l24.272,-45.545l24.272,45.545l-24.272,45.545Zm-15.581,-45.545l15.581,29.242l15.582,-29.242l-15.582,-29.242l-15.581,29.242Z" style="fill:#fff;fill-rule:nonzero;"/><path d="M432.3,120.605l-24.272,-45.545l24.272,-45.545l24.272,45.545l-24.272,45.545Zm-15.582,-45.545l15.582,29.242l15.582,-29.242l-15.582,-29.242l-15.582,29.242Z" style="fill:#fff;fill-rule:nonzero;"/><path d="M472.154,120.605l-24.272,-45.545l24.272,-45.545l24.272,45.545l-24.272,45.545Zm-15.582,-45.545l15.582,29.242l15.582,-29.242l-15.582,-29.242l-15.582,29.242Z" style="fill:#fff;fill-rule:nonzero;"/><path d="M511.708,120.605l-24.272,-45.545l24.272,-45.545l24.272,45.545l-24.272,45.545Zm-15.582,-45.545l15.582,29.242l15.582,-29.242l-15.582,-29.242l-15.582,29.242Z" style="fill:#fff;fill-rule:nonzero;"/><path d="M551.562,120.605l-24.272,-45.545l24.272,-45.545l24.272,45.545l-24.272,45.545Zm-15.582,-45.545l15.582,29.242l15.581,-29.242l-15.581,-29.242l-15.582,29.242Z" style="fill:#fff;fill-rule:nonzero;"/><path d="M591.415,120.605l-24.272,-45.545l24.272,-45.545l24.272,45.545l-24.272,45.545Zm-15.581,-45.545l15.581,29.242l15.582,-29.242l-15.582,-29.242l-15.581,29.242Z" style="fill:#fff;fill-rule:nonzero;"/><path d="M630.97,120.605l-24.273,-45.545l24.273,-45.545l24.271,45.545l-24.271,45.545Zm-15.583,-45.545l15.583,29.242l15.581,-29.242l-15.581,-29.242l-15.583,29.242Z" style="fill:#fff;fill-rule:nonzero;"/><path d="M670.823,120.605l-24.272,-45.545l24.272,-45.545l24.272,45.545l-24.272,45.545Zm-15.582,-45.545l15.582,29.242l15.582,-29.242l-15.582,-29.242l-15.582,29.242Z" style="fill:#fff;fill-rule:nonzero;"/><path d="M710.677,120.605l-24.272,-45.545l24.272,-45.545l24.272,45.545l-24.272,45.545Zm-15.582,-45.545l15.582,29.242l15.581,-29.242l-15.581,-29.242l-15.582,29.242Z" style="fill:#fff;fill-rule:nonzero;"/><path d="M750.231,120.605l-24.272,-45.545l24.272,-45.545l24.271,45.545l-24.271,45.545Zm-15.583,-45.545l15.583,29.242l15.582,-29.242l-15.582,-29.242l-15.583,29.242Z" style="fill:#fff;fill-rule:nonzero;"/><path d="M-4.891,195.651l-24.272,-45.545l24.272,-45.545l24.272,45.545l-24.272,45.545Zm-15.582,-45.545l15.582,29.242l15.581,-29.242l-15.581,-29.242l-15.582,29.242Z" style="fill:#fff;fill-rule:nonzero;"/><path d="M34.962,195.651l-24.272,-45.545l24.272,-45.545l24.272,45.545l-24.272,45.545Zm-15.581,-45.545l15.581,29.242l15.582,-29.242l-15.582,-29.242l-15.581,29.242Z" style="fill:#fff;fill-rule:nonzero;"/><path d="M74.516,195.651l-24.272,-45.545l24.272,-45.545l24.271,45.545l-24.271,45.545Zm-15.582,-45.545l15.582,29.242l15.582,-29.242l-15.582,-29.242l-15.582,29.242Z" style="fill:#fff;fill-rule:nonzero;"/><path d="M114.37,195.651l-24.272,-45.545l24.272,-45.545l24.271,45.545l-24.271,45.545Zm-15.583,-45.545l15.583,29.242l15.582,-29.242l-15.582,-29.242l-15.583,29.242Z" style="fill:#fff;fill-rule:nonzero;"/><path d="M154.224,195.651l-24.272,-45.545l24.272,-45.545l24.272,45.545l-24.272,45.545Zm-15.583,-45.545l15.583,29.242l15.581,-29.242l-15.581,-29.242l-15.583,29.242Z" style="fill:#fff;fill-rule:nonzero;"/><path d="M193.777,195.651l-24.271,-45.545l24.271,-45.545l24.272,45.545l-24.272,45.545Zm-15.582,-45.545l15.582,29.242l15.583,-29.242l-15.583,-29.242l-15.582,29.242Z" style="fill:#fff;fill-rule:nonzero;"/><path d="M233.632,195.651l-24.272,-45.545l24.272,-45.545l24.271,45.545l-24.271,45.545Zm-15.583,-45.545l15.583,29.242l15.581,-29.242l-15.581,-29.242l-15.583,29.242Z" style="fill:#fff;fill-rule:nonzero;"/><path d="M273.185,195.651l-24.272,-45.545l24.272,-45.545l24.272,45.545l-24.272,45.545Zm-15.582,-45.545l15.582,29.242l15.583,-29.242l-15.583,-29.242l-15.582,29.242Z" style="fill:#fff;fill-rule:nonzero;"/><path d="M313.039,195.651l-24.271,-45.545l24.271,-45.545l24.272,45.545l-24.272,45.545Zm-15.582,-45.545l15.582,29.242l15.582,-29.242l-15.582,-29.242l-15.582,29.242Z" style="fill:#fff;fill-rule:nonzero;"/><path d="M352.892,195.651l-24.271,-45.545l24.271,-45.545l24.272,45.545l-24.272,45.545Zm-15.581,-45.545l15.581,29.242l15.583,-29.242l-15.583,-29.242l-15.581,29.242Z" style="fill:#fff;fill-rule:nonzero;"/><path d="M392.446,195.651l-24.272,-45.545l24.272,-45.545l24.272,45.545l-24.272,45.545Zm-15.581,-45.545l15.581,29.242l15.582,-29.242l-15.582,-29.242l-15.581,29.242Z" style="fill:#fff;fill-rule:nonzero;"/><path d="M432.3,195.651l-24.272,-45.545l24.272,-45.545l24.272,45.545l-24.272,45.545Zm-15.582,-45.545l15.582,29.242l15.582,-29.242l-15.582,-29.242l-15.582,29.242Z" style="fill:#fff;fill-rule:nonzero;"/><path d="M472.154,195.651l-24.272,-45.545l24.272,-45.545l24.272,45.545l-24.272,45.545Zm-15.582,-45.545l15.582,29.242l15.582,-29.242l-15.582,-29.242l-15.582,29.242Z" style="fill:#fff;fill-rule:nonzero;"/><path d="M511.708,195.651l-24.272,-45.545l24.272,-45.545l24.272,45.545l-24.272,45.545Zm-15.582,-45.545l15.582,29.242l15.582,-29.242l-15.582,-29.242l-15.582,29.242Z" style="fill:#fff;fill-rule:nonzero;"/><path d="M551.562,195.651l-24.272,-45.545l24.272,-45.545l24.272,45.545l-24.272,45.545Zm-15.582,-45.545l15.582,29.242l15.581,-29.242l-15.581,-29.242l-15.582,29.242Z" style="fill:#fff;fill-rule:nonzero;"/><path d="M591.415,195.651l-24.272,-45.545l24.272,-45.545l24.272,45.545l-24.272,45.545Zm-15.581,-45.545l15.581,29.242l15.582,-29.242l-15.582,-29.242l-15.581,29.242Z" style="fill:#fff;fill-rule:nonzero;"/><path d="M630.97,195.651l-24.273,-45.545l24.273,-45.545l24.271,45.545l-24.271,45.545Zm-15.583,-45.545l15.583,29.242l15.581,-29.242l-15.581,-29.242l-15.583,29.242Z" style="fill:#fff;fill-rule:nonzero;"/><path d="M670.823,195.651l-24.272,-45.545l24.272,-45.545l24.272,45.545l-24.272,45.545Zm-15.582,-45.545l15.582,29.242l15.582,-29.242l-15.582,-29.242l-15.582,29.242Z" style="fill:#fff;fill-rule:nonzero;"/><path d="M710.677,195.651l-24.272,-45.545l24.272,-45.545l24.272,45.545l-24.272,45.545Zm-15.582,-45.545l15.582,29.242l15.581,-29.242l-15.581,-29.242l-15.582,29.242Z" style="fill:#fff;fill-rule:nonzero;"/><path d="M750.231,195.651l-24.272,-45.545l24.272,-45.545l24.271,45.545l-24.271,45.545Zm-15.583,-45.545l15.583,29.242l15.582,-29.242l-15.582,-29.242l-15.583,29.242Z" style="fill:#fff;fill-rule:nonzero;"/><path d="M-4.891,270.439l-24.272,-45.545l24.272,-45.546l24.272,45.546l-24.272,45.545Zm-15.582,-45.545l15.582,29.242l15.581,-29.242l-15.581,-29.243l-15.582,29.243Z" style="fill:#fff;fill-rule:nonzero;"/><path d="M34.962,270.439l-24.272,-45.545l24.272,-45.546l24.272,45.546l-24.272,45.545Zm-15.581,-45.545l15.581,29.242l15.582,-29.242l-15.582,-29.243l-15.581,29.243Z" style="fill:#fff;fill-rule:nonzero;"/><path d="M74.516,270.439l-24.272,-45.545l24.272,-45.546l24.271,45.546l-24.271,45.545Zm-15.582,-45.545l15.582,29.242l15.582,-29.242l-15.582,-29.243l-15.582,29.243Z" style="fill:#fff;fill-rule:nonzero;"/><path d="M114.37,270.439l-24.272,-45.545l24.272,-45.546l24.271,45.546l-24.271,45.545Zm-15.583,-45.545l15.583,29.242l15.582,-29.242l-15.582,-29.243l-15.583,29.243Z" style="fill:#fff;fill-rule:nonzero;"/><path d="M154.224,270.439l-24.272,-45.545l24.272,-45.546l24.272,45.546l-24.272,45.545Zm-15.583,-45.545l15.583,29.242l15.581,-29.242l-15.581,-29.243l-15.583,29.243Z" style="fill:#fff;fill-rule:nonzero;"/><path d="M193.777,270.439l-24.271,-45.545l24.271,-45.546l24.272,45.546l-24.272,45.545Zm-15.582,-45.545l15.582,29.242l15.583,-29.242l-15.583,-29.243l-15.582,29.243Z" style="fill:#fff;fill-rule:nonzero;"/><path d="M233.632,270.439l-24.272,-45.545l24.272,-45.546l24.271,45.546l-24.271,45.545Zm-15.583,-45.545l15.583,29.242l15.581,-29.242l-15.581,-29.243l-15.583,29.243Z" style="fill:#fff;fill-rule:nonzero;"/><path d="M273.185,270.439l-24.272,-45.545l24.272,-45.546l24.272,45.546l-24.272,45.545Zm-15.582,-45.545l15.582,29.242l15.583,-29.242l-15.583,-29.243l-15.582,29.243Z" style="fill:#fff;fill-rule:nonzero;"/><path d="M313.039,270.439l-24.271,-45.545l24.271,-45.546l24.272,45.546l-24.272,45.545Zm-15.582,-45.545l15.582,29.242l15.582,-29.242l-15.582,-29.243l-15.582,29.243Z" style="fill:#fff;fill-rule:nonzero;"/><path d="M352.892,270.439l-24.271,-45.545l24.271,-45.546l24.272,45.546l-24.272,45.545Zm-15.581,-45.545l15.581,29.242l15.583,-29.242l-15.583,-29.243l-15.581,29.243Z" style="fill:#fff;fill-rule:nonzero;"/><path d="M392.446,270.439l-24.272,-45.545l24.272,-45.546l24.272,45.546l-24.272,45.545Zm-15.581,-45.545l15.581,29.242l15.582,-29.242l-15.582,-29.243l-15.581,29.243Z" style="fill:#fff;fill-rule:nonzero;"/><path d="M432.3,270.439l-24.272,-45.545l24.272,-45.546l24.272,45.546l-24.272,45.545Zm-15.582,-45.545l15.582,29.242l15.582,-29.242l-15.582,-29.243l-15.582,29.243Z" style="fill:#fff;fill-rule:nonzero;"/><path d="M472.154,270.439l-24.272,-45.545l24.272,-45.546l24.272,45.546l-24.272,45.545Zm-15.582,-45.545l15.582,29.242l15.582,-29.242l-15.582,-29.243l-15.582,29.243Z" style="fill:#fff;fill-rule:nonzero;"/><path d="M511.708,270.439l-24.272,-45.545l24.272,-45.546l24.272,45.546l-24.272,45.545Zm-15.582,-45.545l15.582,29.242l15.582,-29.242l-15.582,-29.243l-15.582,29.243Z" style="fill:#fff;fill-rule:nonzero;"/><path d="M551.562,270.439l-24.272,-45.545l24.272,-45.546l24.272,45.546l-24.272,45.545Zm-15.582,-45.545l15.582,29.242l15.581,-29.242l-15.581,-29.243l-15.582,29.243Z" style="fill:#fff;fill-rule:nonzero;"/><path d="M591.415,270.439l-24.272,-45.545l24.272,-45.546l24.272,45.546l-24.272,45.545Zm-15.581,-45.545l15.581,29.242l15.582,-29.242l-15.582,-29.243l-15.581,29.243Z" style="fill:#fff;fill-rule:nonzero;"/><path d="M630.97,270.439l-24.273,-45.545l24.273,-45.546l24.271,45.546l-24.271,45.545Zm-15.583,-45.545l15.583,29.242l15.581,-29.242l-15.581,-29.243l-15.583,29.243Z" style="fill:#fff;fill-rule:nonzero;"/><path d="M670.823,270.439l-24.272,-45.545l24.272,-45.546l24.272,45.546l-24.272,45.545Zm-15.582,-45.545l15.582,29.242l15.582,-29.242l-15.582,-29.243l-15.582,29.243Z" style="fill:#fff;fill-rule:nonzero;"/><path d="M710.677,270.439l-24.272,-45.545l24.272,-45.546l24.272,45.546l-24.272,45.545Zm-15.582,-45.545l15.582,29.242l15.581,-29.242l-15.581,-29.243l-15.582,29.243Z" style="fill:#fff;fill-rule:nonzero;"/><path d="M750.231,270.439l-24.272,-45.545l24.272,-45.546l24.271,45.546l-24.271,45.545Zm-15.583,-45.545l15.583,29.242l15.582,-29.242l-15.582,-29.243l-15.583,29.243Z" style="fill:#fff;fill-rule:nonzero;"/><path d="M-4.891,345.226l-24.272,-45.545l24.272,-45.545l24.272,45.545l-24.272,45.545Zm-15.582,-45.545l15.582,29.242l15.581,-29.242l-15.581,-29.242l-15.582,29.242Z" style="fill:#fff;fill-rule:nonzero;"/><path d="M34.962,345.226l-24.272,-45.545l24.272,-45.545l24.272,45.545l-24.272,45.545Zm-15.581,-45.545l15.581,29.242l15.582,-29.242l-15.582,-29.242l-15.581,29.242Z" style="fill:#fff;fill-rule:nonzero;"/><path d="M74.516,345.226l-24.272,-45.545l24.272,-45.545l24.271,45.545l-24.271,45.545Zm-15.582,-45.545l15.582,29.242l15.582,-29.242l-15.582,-29.242l-15.582,29.242Z" style="fill:#fff;fill-rule:nonzero;"/><path d="M114.37,345.226l-24.272,-45.545l24.272,-45.545l24.271,45.545l-24.271,45.545Zm-15.583,-45.545l15.583,29.242l15.582,-29.242l-15.582,-29.242l-15.583,29.242Z" style="fill:#fff;fill-rule:nonzero;"/><path d="M154.224,345.226l-24.272,-45.545l24.272,-45.545l24.272,45.545l-24.272,45.545Zm-15.583,-45.545l15.583,29.242l15.581,-29.242l-15.581,-29.242l-15.583,29.242Z" style="fill:#fff;fill-rule:nonzero;"/><path d="M193.777,345.226l-24.271,-45.545l24.271,-45.545l24.272,45.545l-24.272,45.545Zm-15.582,-45.545l15.582,29.242l15.583,-29.242l-15.583,-29.242l-15.582,29.242Z" style="fill:#fff;fill-rule:nonzero;"/><path d="M233.632,345.226l-24.272,-45.545l24.272,-45.545l24.271,45.545l-24.271,45.545Zm-15.583,-45.545l15.583,29.242l15.581,-29.242l-15.581,-29.242l-15.583,29.242Z" style="fill:#fff;fill-rule:nonzero;"/><path d="M273.185,345.226l-24.272,-45.545l24.272,-45.545l24.272,45.545l-24.272,45.545Zm-15.582,-45.545l15.582,29.242l15.583,-29.242l-15.583,-29.242l-15.582,29.242Z" style="fill:#fff;fill-rule:nonzero;"/><path d="M313.039,345.226l-24.271,-45.545l24.271,-45.545l24.272,45.545l-24.272,45.545Zm-15.582,-45.545l15.582,29.242l15.582,-29.242l-15.582,-29.242l-15.582,29.242Z" style="fill:#fff;fill-rule:nonzero;"/><path d="M352.892,345.226l-24.271,-45.545l24.271,-45.545l24.272,45.545l-24.272,45.545Zm-15.581,-45.545l15.581,29.242l15.583,-29.242l-15.583,-29.242l-15.581,29.242Z" style="fill:#fff;fill-rule:nonzero;"/><path d="M392.446,345.226l-24.272,-45.545l24.272,-45.545l24.272,45.545l-24.272,45.545Zm-15.581,-45.545l15.581,29.242l15.582,-29.242l-15.582,-29.242l-15.581,29.242Z" style="fill:#fff;fill-rule:nonzero;"/><path d="M432.3,345.226l-24.272,-45.545l24.272,-45.545l24.272,45.545l-24.272,45.545Zm-15.582,-45.545l15.582,29.242l15.582,-29.242l-15.582,-29.242l-15.582,29.242Z" style="fill:#fff;fill-rule:nonzero;"/><path d="M472.154,345.226l-24.272,-45.545l24.272,-45.545l24.272,45.545l-24.272,45.545Zm-15.582,-45.545l15.582,29.242l15.582,-29.242l-15.582,-29.242l-15.582,29.242Z" style="fill:#fff;fill-rule:nonzero;"/><path d="M511.708,345.226l-24.272,-45.545l24.272,-45.545l24.272,45.545l-24.272,45.545Zm-15.582,-45.545l15.582,29.242l15.582,-29.242l-15.582,-29.242l-15.582,29.242Z" style="fill:#fff;fill-rule:nonzero;"/><path d="M551.562,345.226l-24.272,-45.545l24.272,-45.545l24.272,45.545l-24.272,45.545Zm-15.582,-45.545l15.582,29.242l15.581,-29.242l-15.581,-29.242l-15.582,29.242Z" style="fill:#fff;fill-rule:nonzero;"/><path d="M591.415,345.226l-24.272,-45.545l24.272,-45.545l24.272,45.545l-24.272,45.545Zm-15.581,-45.545l15.581,29.242l15.582,-29.242l-15.582,-29.242l-15.581,29.242Z" style="fill:#fff;fill-rule:nonzero;"/><path d="M630.97,345.226l-24.273,-45.545l24.273,-45.545l24.271,45.545l-24.271,45.545Zm-15.583,-45.545l15.583,29.242l15.581,-29.242l-15.581,-29.242l-15.583,29.242Z" style="fill:#fff;fill-rule:nonzero;"/><path d="M670.823,345.226l-24.272,-45.545l24.272,-45.545l24.272,45.545l-24.272,45.545Zm-15.582,-45.545l15.582,29.242l15.582,-29.242l-15.582,-29.242l-15.582,29.242Z" style="fill:#fff;fill-rule:nonzero;"/><path d="M710.677,345.226l-24.272,-45.545l24.272,-45.545l24.272,45.545l-24.272,45.545Zm-15.582,-45.545l15.582,29.242l15.581,-29.242l-15.581,-29.242l-15.582,29.242Z" style="fill:#fff;fill-rule:nonzero;"/><path d="M750.231,345.226l-24.272,-45.545l24.272,-45.545l24.271,45.545l-24.271,45.545Zm-15.583,-45.545l15.583,29.242l15.582,-29.242l-15.582,-29.242l-15.583,29.242Z" style="fill:#fff;fill-rule:nonzero;"/><path d="M-4.891,420.272l-24.272,-45.545l24.272,-45.545l24.272,45.545l-24.272,45.545Zm-15.582,-45.545l15.582,29.243l15.581,-29.243l-15.581,-29.242l-15.582,29.242Z" style="fill:#fff;fill-rule:nonzero;"/><path d="M34.962,420.272l-24.272,-45.545l24.272,-45.545l24.272,45.545l-24.272,45.545Zm-15.581,-45.545l15.581,29.243l15.582,-29.243l-15.582,-29.242l-15.581,29.242Z" style="fill:#fff;fill-rule:nonzero;"/><path d="M74.516,420.272l-24.272,-45.545l24.272,-45.545l24.271,45.545l-24.271,45.545Zm-15.582,-45.545l15.582,29.243l15.582,-29.243l-15.582,-29.242l-15.582,29.242Z" style="fill:#fff;fill-rule:nonzero;"/><path d="M114.37,420.272l-24.272,-45.545l24.272,-45.545l24.271,45.545l-24.271,45.545Zm-15.583,-45.545l15.583,29.243l15.582,-29.243l-15.582,-29.242l-15.583,29.242Z" style="fill:#fff;fill-rule:nonzero;"/><path d="M154.224,420.272l-24.272,-45.545l24.272,-45.545l24.272,45.545l-24.272,45.545Zm-15.583,-45.545l15.583,29.243l15.581,-29.243l-15.581,-29.242l-15.583,29.242Z" style="fill:#fff;fill-rule:nonzero;"/><path d="M193.777,420.272l-24.271,-45.545l24.271,-45.545l24.272,45.545l-24.272,45.545Zm-15.582,-45.545l15.582,29.243l15.583,-29.243l-15.583,-29.242l-15.582,29.242Z" style="fill:#fff;fill-rule:nonzero;"/><path d="M233.632,420.272l-24.272,-45.545l24.272,-45.545l24.271,45.545l-24.271,45.545Zm-15.583,-45.545l15.583,29.243l15.581,-29.243l-15.581,-29.242l-15.583,29.242Z" style="fill:#fff;fill-rule:nonzero;"/><path d="M273.185,420.272l-24.272,-45.545l24.272,-45.545l24.272,45.545l-24.272,45.545Zm-15.582,-45.545l15.582,29.243l15.583,-29.243l-15.583,-29.242l-15.582,29.242Z" style="fill:#fff;fill-rule:nonzero;"/><path d="M313.039,420.272l-24.271,-45.545l24.271,-45.545l24.272,45.545l-24.272,45.545Zm-15.582,-45.545l15.582,29.243l15.582,-29.243l-15.582,-29.242l-15.582,29.242Z" style="fill:#fff;fill-rule:nonzero;"/><path d="M352.892,420.272l-24.271,-45.545l24.271,-45.545l24.272,45.545l-24.272,45.545Zm-15.581,-45.545l15.581,29.243l15.583,-29.243l-15.583,-29.242l-15.581,29.242Z" style="fill:#fff;fill-rule:nonzero;"/><path d="M392.446,420.272l-24.272,-45.545l24.272,-45.545l24.272,45.545l-24.272,45.545Zm-15.581,-45.545l15.581,29.243l15.582,-29.243l-15.582,-29.242l-15.581,29.242Z" style="fill:#fff;fill-rule:nonzero;"/><path d="M432.3,420.272l-24.272,-45.545l24.272,-45.545l24.272,45.545l-24.272,45.545Zm-15.582,-45.545l15.582,29.243l15.582,-29.243l-15.582,-29.242l-15.582,29.242Z" style="fill:#fff;fill-rule:nonzero;"/><path d="M472.154,420.272l-24.272,-45.545l24.272,-45.545l24.272,45.545l-24.272,45.545Zm-15.582,-45.545l15.582,29.243l15.582,-29.243l-15.582,-29.242l-15.582,29.242Z" style="fill:#fff;fill-rule:nonzero;"/><path d="M511.708,420.272l-24.272,-45.545l24.272,-45.545l24.272,45.545l-24.272,45.545Zm-15.582,-45.545l15.582,29.243l15.582,-29.243l-15.582,-29.242l-15.582,29.242Z" style="fill:#fff;fill-rule:nonzero;"/><path d="M551.562,420.272l-24.272,-45.545l24.272,-45.545l24.272,45.545l-24.272,45.545Zm-15.582,-45.545l15.582,29.243l15.581,-29.243l-15.581,-29.242l-15.582,29.242Z" style="fill:#fff;fill-rule:nonzero;"/><path d="M591.415,420.272l-24.272,-45.545l24.272,-45.545l24.272,45.545l-24.272,45.545Zm-15.581,-45.545l15.581,29.243l15.582,-29.243l-15.582,-29.242l-15.581,29.242Z" style="fill:#fff;fill-rule:nonzero;"/><path d="M630.97,420.272l-24.273,-45.545l24.273,-45.545l24.271,45.545l-24.271,45.545Zm-15.583,-45.545l15.583,29.243l15.581,-29.243l-15.581,-29.242l-15.583,29.242Z" style="fill:#fff;fill-rule:nonzero;"/><path d="M670.823,420.272l-24.272,-45.545l24.272,-45.545l24.272,45.545l-24.272,45.545Zm-15.582,-45.545l15.582,29.243l15.582,-29.243l-15.582,-29.242l-15.582,29.242Z" style="fill:#fff;fill-rule:nonzero;"/><path d="M710.677,420.272l-24.272,-45.545l24.272,-45.545l24.272,45.545l-24.272,45.545Zm-15.582,-45.545l15.582,29.243l15.581,-29.243l-15.581,-29.242l-15.582,29.242Z" style="fill:#fff;fill-rule:nonzero;"/><path d="M750.231,420.272l-24.272,-45.545l24.272,-45.545l24.271,45.545l-24.271,45.545Zm-15.583,-45.545l15.583,29.243l15.582,-29.243l-15.582,-29.242l-15.583,29.242Z" style="fill:#fff;fill-rule:nonzero;"/><path d="M-4.891,495.06l-24.272,-45.545l24.272,-45.545l24.272,45.545l-24.272,45.545Zm-15.582,-45.545l15.582,29.242l15.581,-29.242l-15.581,-29.243l-15.582,29.243Z" style="fill:#fff;fill-rule:nonzero;"/><path d="M34.962,495.06l-24.272,-45.545l24.272,-45.545l24.272,45.545l-24.272,45.545Zm-15.581,-45.545l15.581,29.242l15.582,-29.242l-15.582,-29.243l-15.581,29.243Z" style="fill:#fff;fill-rule:nonzero;"/><path d="M74.516,495.06l-24.272,-45.545l24.272,-45.545l24.271,45.545l-24.271,45.545Zm-15.582,-45.545l15.582,29.242l15.582,-29.242l-15.582,-29.243l-15.582,29.243Z" style="fill:#fff;fill-rule:nonzero;"/><path d="M114.37,495.06l-24.272,-45.545l24.272,-45.545l24.271,45.545l-24.271,45.545Zm-15.583,-45.545l15.583,29.242l15.582,-29.242l-15.582,-29.243l-15.583,29.243Z" style="fill:#fff;fill-rule:nonzero;"/><path d="M154.224,495.06l-24.272,-45.545l24.272,-45.545l24.272,45.545l-24.272,45.545Zm-15.583,-45.545l15.583,29.242l15.581,-29.242l-15.581,-29.243l-15.583,29.243Z" style="fill:#fff;fill-rule:nonzero;"/><path d="M193.777,495.06l-24.271,-45.545l24.271,-45.545l24.272,45.545l-24.272,45.545Zm-15.582,-45.545l15.582,29.242l15.583,-29.242l-15.583,-29.243l-15.582,29.243Z" style="fill:#fff;fill-rule:nonzero;"/><path d="M233.632,495.06l-24.272,-45.545l24.272,-45.545l24.271,45.545l-24.271,45.545Zm-15.583,-45.545l15.583,29.242l15.581,-29.242l-15.581,-29.243l-15.583,29.243Z" style="fill:#fff;fill-rule:nonzero;"/><path d="M273.185,495.06l-24.272,-45.545l24.272,-45.545l24.272,45.545l-24.272,45.545Zm-15.582,-45.545l15.582,29.242l15.583,-29.242l-15.583,-29.243l-15.582,29.243Z" style="fill:#fff;fill-rule:nonzero;"/><path d="M313.039,495.06l-24.271,-45.545l24.271,-45.545l24.272,45.545l-24.272,45.545Zm-15.582,-45.545l15.582,29.242l15.582,-29.242l-15.582,-29.243l-15.582,29.243Z" style="fill:#fff;fill-rule:nonzero;"/><path d="M352.892,495.06l-24.271,-45.545l24.271,-45.545l24.272,45.545l-24.272,45.545Zm-15.581,-45.545l15.581,29.242l15.583,-29.242l-15.583,-29.243l-15.581,29.243Z" style="fill:#fff;fill-rule:nonzero;"/><path d="M392.446,495.06l-24.272,-45.545l24.272,-45.545l24.272,45.545l-24.272,45.545Zm-15.581,-45.545l15.581,29.242l15.582,-29.242l-15.582,-29.243l-15.581,29.243Z" style="fill:#fff;fill-rule:nonzero;"/><path d="M432.3,495.06l-24.272,-45.545l24.272,-45.545l24.272,45.545l-24.272,45.545Zm-15.582,-45.545l15.582,29.242l15.582,-29.242l-15.582,-29.243l-15.582,29.243Z" style="fill:#fff;fill-rule:nonzero;"/><path d="M472.154,495.06l-24.272,-45.545l24.272,-45.545l24.272,45.545l-24.272,45.545Zm-15.582,-45.545l15.582,29.242l15.582,-29.242l-15.582,-29.243l-15.582,29.243Z" style="fill:#fff;fill-rule:nonzero;"/><path d="M511.708,495.06l-24.272,-45.545l24.272,-45.545l24.272,45.545l-24.272,45.545Zm-15.582,-45.545l15.582,29.242l15.582,-29.242l-15.582,-29.243l-15.582,29.243Z" style="fill:#fff;fill-rule:nonzero;"/><path d="M551.562,495.06l-24.272,-45.545l24.272,-45.545l24.272,45.545l-24.272,45.545Zm-15.582,-45.545l15.582,29.242l15.581,-29.242l-15.581,-29.243l-15.582,29.243Z" style="fill:#fff;fill-rule:nonzero;"/><path d="M591.415,495.06l-24.272,-45.545l24.272,-45.545l24.272,45.545l-24.272,45.545Zm-15.581,-45.545l15.581,29.242l15.582,-29.242l-15.582,-29.243l-15.581,29.243Z" style="fill:#fff;fill-rule:nonzero;"/><path d="M630.97,495.06l-24.273,-45.545l24.273,-45.545l24.271,45.545l-24.271,45.545Zm-15.583,-45.545l15.583,29.242l15.581,-29.242l-15.581,-29.243l-15.583,29.243Z" style="fill:#fff;fill-rule:nonzero;"/><path d="M670.823,495.06l-24.272,-45.545l24.272,-45.545l24.272,45.545l-24.272,45.545Zm-15.582,-45.545l15.582,29.242l15.582,-29.242l-15.582,-29.243l-15.582,29.243Z" style="fill:#fff;fill-rule:nonzero;"/><path d="M710.677,495.06l-24.272,-45.545l24.272,-45.545l24.272,45.545l-24.272,45.545Zm-15.582,-45.545l15.582,29.242l15.581,-29.242l-15.581,-29.243l-15.582,29.243Z" style="fill:#fff;fill-rule:nonzero;"/><path d="M750.231,495.06l-24.272,-45.545l24.272,-45.545l24.271,45.545l-24.271,45.545Zm-15.583,-45.545l15.583,29.242l15.582,-29.242l-15.582,-29.243l-15.583,29.243Z" style="fill:#fff;fill-rule:nonzero;"/><path d="M-4.891,569.848l-24.272,-45.546l24.272,-45.545l24.272,45.545l-24.272,45.546Zm-15.582,-45.546l15.582,29.243l15.581,-29.243l-15.581,-29.242l-15.582,29.242Z" style="fill:#fff;fill-rule:nonzero;"/><path d="M34.962,569.848l-24.272,-45.546l24.272,-45.545l24.272,45.545l-24.272,45.546Zm-15.581,-45.546l15.581,29.243l15.582,-29.243l-15.582,-29.242l-15.581,29.242Z" style="fill:#fff;fill-rule:nonzero;"/><path d="M74.516,569.848l-24.272,-45.546l24.272,-45.545l24.271,45.545l-24.271,45.546Zm-15.582,-45.546l15.582,29.243l15.582,-29.243l-15.582,-29.242l-15.582,29.242Z" style="fill:#fff;fill-rule:nonzero;"/><path d="M114.37,569.848l-24.272,-45.546l24.272,-45.545l24.271,45.545l-24.271,45.546Zm-15.583,-45.546l15.583,29.243l15.582,-29.243l-15.582,-29.242l-15.583,29.242Z" style="fill:#fff;fill-rule:nonzero;"/><path d="M154.224,569.848l-24.272,-45.546l24.272,-45.545l24.272,45.545l-24.272,45.546Zm-15.583,-45.546l15.583,29.243l15.581,-29.243l-15.581,-29.242l-15.583,29.242Z" style="fill:#fff;fill-rule:nonzero;"/><path d="M193.777,569.848l-24.271,-45.546l24.271,-45.545l24.272,45.545l-24.272,45.546Zm-15.582,-45.546l15.582,29.243l15.583,-29.243l-15.583,-29.242l-15.582,29.242Z" style="fill:#fff;fill-rule:nonzero;"/><path d="M233.632,569.848l-24.272,-45.546l24.272,-45.545l24.271,45.545l-24.271,45.546Zm-15.583,-45.546l15.583,29.243l15.581,-29.243l-15.581,-29.242l-15.583,29.242Z" style="fill:#fff;fill-rule:nonzero;"/><path d="M273.185,569.848l-24.272,-45.546l24.272,-45.545l24.272,45.545l-24.272,45.546Zm-15.582,-45.546l15.582,29.243l15.583,-29.243l-15.583,-29.242l-15.582,29.242Z" style="fill:#fff;fill-rule:nonzero;"/><path d="M313.039,569.848l-24.271,-45.546l24.271,-45.545l24.272,45.545l-24.272,45.546Zm-15.582,-45.546l15.582,29.243l15.582,-29.243l-15.582,-29.242l-15.582,29.242Z" style="fill:#fff;fill-rule:nonzero;"/><path d="M352.892,569.848l-24.271,-45.546l24.271,-45.545l24.272,45.545l-24.272,45.546Zm-15.581,-45.546l15.581,29.243l15.583,-29.243l-15.583,-29.242l-15.581,29.242Z" style="fill:#fff;fill-rule:nonzero;"/><path d="M392.446,569.848l-24.272,-45.546l24.272,-45.545l24.272,45.545l-24.272,45.546Zm-15.581,-45.546l15.581,29.243l15.582,-29.243l-15.582,-29.242l-15.581,29.242Z" style="fill:#fff;fill-rule:nonzero;"/><path d="M432.3,569.848l-24.272,-45.546l24.272,-45.545l24.272,45.545l-24.272,45.546Zm-15.582,-45.546l15.582,29.243l15.582,-29.243l-15.582,-29.242l-15.582,29.242Z" style="fill:#fff;fill-rule:nonzero;"/><path d="M472.154,569.848l-24.272,-45.546l24.272,-45.545l24.272,45.545l-24.272,45.546Zm-15.582,-45.546l15.582,29.243l15.582,-29.243l-15.582,-29.242l-15.582,29.242Z" style="fill:#fff;fill-rule:nonzero;"/><path d="M511.708,569.848l-24.272,-45.546l24.272,-45.545l24.272,45.545l-24.272,45.546Zm-15.582,-45.546l15.582,29.243l15.582,-29.243l-15.582,-29.242l-15.582,29.242Z" style="fill:#fff;fill-rule:nonzero;"/><path d="M551.562,569.848l-24.272,-45.546l24.272,-45.545l24.272,45.545l-24.272,45.546Zm-15.582,-45.546l15.582,29.243l15.581,-29.243l-15.581,-29.242l-15.582,29.242Z" style="fill:#fff;fill-rule:nonzero;"/><path d="M591.415,569.848l-24.272,-45.546l24.272,-45.545l24.272,45.545l-24.272,45.546Zm-15.581,-45.546l15.581,29.243l15.582,-29.243l-15.582,-29.242l-15.581,29.242Z" style="fill:#fff;fill-rule:nonzero;"/><path d="M630.97,569.848l-24.273,-45.546l24.273,-45.545l24.271,45.545l-24.271,45.546Zm-15.583,-45.546l15.583,29.243l15.581,-29.243l-15.581,-29.242l-15.583,29.242Z" style="fill:#fff;fill-rule:nonzero;"/><path d="M670.823,569.848l-24.272,-45.546l24.272,-45.545l24.272,45.545l-24.272,45.546Zm-15.582,-45.546l15.582,29.243l15.582,-29.243l-15.582,-29.242l-15.582,29.242Z" style="fill:#fff;fill-rule:nonzero;"/><path d="M710.677,569.848l-24.272,-45.546l24.272,-45.545l24.272,45.545l-24.272,45.546Zm-15.582,-45.546l15.582,29.243l15.581,-29.243l-15.581,-29.242l-15.582,29.242Z" style="fill:#fff;fill-rule:nonzero;"/><path d="M750.231,569.848l-24.272,-45.546l24.272,-45.545l24.271,45.545l-24.271,45.546Zm-15.583,-45.546l15.583,29.243l15.582,-29.243l-15.582,-29.242l-15.583,29.242Z" style="fill:#fff;fill-rule:nonzero;"/><path d="M-4.891,644.894l-24.272,-45.546l24.272,-45.545l24.272,45.545l-24.272,45.546Zm-15.582,-45.546l15.582,29.243l15.581,-29.243l-15.581,-29.242l-15.582,29.242Z" style="fill:#fff;fill-rule:nonzero;"/><path d="M34.962,644.894l-24.272,-45.546l24.272,-45.545l24.272,45.545l-24.272,45.546Zm-15.581,-45.546l15.581,29.243l15.582,-29.243l-15.582,-29.242l-15.581,29.242Z" style="fill:#fff;fill-rule:nonzero;"/><path d="M74.516,644.894l-24.272,-45.546l24.272,-45.545l24.271,45.545l-24.271,45.546Zm-15.582,-45.546l15.582,29.243l15.582,-29.243l-15.582,-29.242l-15.582,29.242Z" style="fill:#fff;fill-rule:nonzero;"/><path d="M114.37,644.894l-24.272,-45.546l24.272,-45.545l24.271,45.545l-24.271,45.546Zm-15.583,-45.546l15.583,29.243l15.582,-29.243l-15.582,-29.242l-15.583,29.242Z" style="fill:#fff;fill-rule:nonzero;"/><path d="M154.224,644.894l-24.272,-45.546l24.272,-45.545l24.272,45.545l-24.272,45.546Zm-15.583,-45.546l15.583,29.243l15.581,-29.243l-15.581,-29.242l-15.583,29.242Z" style="fill:#fff;fill-rule:nonzero;"/><path d="M193.777,644.894l-24.271,-45.546l24.271,-45.545l24.272,45.545l-24.272,45.546Zm-15.582,-45.546l15.582,29.243l15.583,-29.243l-15.583,-29.242l-15.582,29.242Z" style="fill:#fff;fill-rule:nonzero;"/><path d="M233.632,644.894l-24.272,-45.546l24.272,-45.545l24.271,45.545l-24.271,45.546Zm-15.583,-45.546l15.583,29.243l15.581,-29.243l-15.581,-29.242l-15.583,29.242Z" style="fill:#fff;fill-rule:nonzero;"/><path d="M273.185,644.894l-24.272,-45.546l24.272,-45.545l24.272,45.545l-24.272,45.546Zm-15.582,-45.546l15.582,29.243l15.583,-29.243l-15.583,-29.242l-15.582,29.242Z" style="fill:#fff;fill-rule:nonzero;"/><path d="M313.039,644.894l-24.271,-45.546l24.271,-45.545l24.272,45.545l-24.272,45.546Zm-15.582,-45.546l15.582,29.243l15.582,-29.243l-15.582,-29.242l-15.582,29.242Z" style="fill:#fff;fill-rule:nonzero;"/><path d="M352.892,644.894l-24.271,-45.546l24.271,-45.545l24.272,45.545l-24.272,45.546Zm-15.581,-45.546l15.581,29.243l15.583,-29.243l-15.583,-29.242l-15.581,29.242Z" style="fill:#fff;fill-rule:nonzero;"/><path d="M392.446,644.894l-24.272,-45.546l24.272,-45.545l24.272,45.545l-24.272,45.546Zm-15.581,-45.546l15.581,29.243l15.582,-29.243l-15.582,-29.242l-15.581,29.242Z" style="fill:#fff;fill-rule:nonzero;"/><path d="M432.3,644.894l-24.272,-45.546l24.272,-45.545l24.272,45.545l-24.272,45.546Zm-15.582,-45.546l15.582,29.243l15.582,-29.243l-15.582,-29.242l-15.582,29.242Z" style="fill:#fff;fill-rule:nonzero;"/><path d="M472.154,644.894l-24.272,-45.546l24.272,-45.545l24.272,45.545l-24.272,45.546Zm-15.582,-45.546l15.582,29.243l15.582,-29.243l-15.582,-29.242l-15.582,29.242Z" style="fill:#fff;fill-rule:nonzero;"/><path d="M511.708,644.894l-24.272,-45.546l24.272,-45.545l24.272,45.545l-24.272,45.546Zm-15.582,-45.546l15.582,29.243l15.582,-29.243l-15.582,-29.242l-15.582,29.242Z" style="fill:#fff;fill-rule:nonzero;"/><path d="M551.562,644.894l-24.272,-45.546l24.272,-45.545l24.272,45.545l-24.272,45.546Zm-15.582,-45.546l15.582,29.243l15.581,-29.243l-15.581,-29.242l-15.582,29.242Z" style="fill:#fff;fill-rule:nonzero;"/><path d="M591.415,644.894l-24.272,-45.546l24.272,-45.545l24.272,45.545l-24.272,45.546Zm-15.581,-45.546l15.581,29.243l15.582,-29.243l-15.582,-29.242l-15.581,29.242Z" style="fill:#fff;fill-rule:nonzero;"/><path d="M630.97,644.894l-24.273,-45.546l24.273,-45.545l24.271,45.545l-24.271,45.546Zm-15.583,-45.546l15.583,29.243l15.581,-29.243l-15.581,-29.242l-15.583,29.242Z" style="fill:#fff;fill-rule:nonzero;"/><path d="M670.823,644.894l-24.272,-45.546l24.272,-45.545l24.272,45.545l-24.272,45.546Zm-15.582,-45.546l15.582,29.243l15.582,-29.243l-15.582,-29.242l-15.582,29.242Z" style="fill:#fff;fill-rule:nonzero;"/><path d="M710.677,644.894l-24.272,-45.546l24.272,-45.545l24.272,45.545l-24.272,45.546Zm-15.582,-45.546l15.582,29.243l15.581,-29.243l-15.581,-29.242l-15.582,29.242Z" style="fill:#fff;fill-rule:nonzero;"/><path d="M750.231,644.894l-24.272,-45.546l24.272,-45.545l24.271,45.545l-24.271,45.546Zm-15.583,-45.546l15.583,29.243l15.582,-29.243l-15.582,-29.242l-15.583,29.242Z" style="fill:#fff;fill-rule:nonzero;"/><path d="M-4.891,719.681l-24.272,-45.545l24.272,-45.545l24.272,45.545l-24.272,45.545Zm-15.582,-45.545l15.582,29.241l15.581,-29.241l-15.581,-29.242l-15.582,29.242Z" style="fill:#fff;fill-rule:nonzero;"/><path d="M34.962,719.681l-24.272,-45.545l24.272,-45.545l24.272,45.545l-24.272,45.545Zm-15.581,-45.545l15.581,29.241l15.582,-29.241l-15.582,-29.242l-15.581,29.242Z" style="fill:#fff;fill-rule:nonzero;"/><path d="M74.516,719.681l-23.972,-45.545l24.272,-45.545l24.272,45.545l-24.572,45.545Zm-15.582,-45.545l15.582,29.241l15.582,-29.241l-15.582,-29.242l-15.582,29.242Z" style="fill:#fff;fill-rule:nonzero;"/><path d="M114.37,719.681l-24.272,-45.545l24.272,-45.545l24.271,45.545l-24.271,45.545Zm-15.583,-45.545l15.583,29.241l15.582,-29.241l-15.582,-29.242l-15.583,29.242Z" style="fill:#fff;fill-rule:nonzero;"/><path d="M154.224,719.681l-24.272,-45.545l24.272,-45.545l24.272,45.545l-24.272,45.545Zm-15.583,-45.545l15.583,29.241l15.581,-29.241l-15.581,-29.242l-15.583,29.242Z" style="fill:#fff;fill-rule:nonzero;"/><path d="M193.777,719.681l-24.271,-45.545l24.271,-45.545l24.272,45.545l-24.272,45.545Zm-15.582,-45.545l15.582,29.241l15.583,-29.241l-15.583,-29.242l-15.582,29.242Z" style="fill:#fff;fill-rule:nonzero;"/><path d="M233.632,719.681l-24.272,-45.545l24.272,-45.545l24.271,45.545l-24.271,45.545Zm-15.583,-45.545l15.583,29.241l15.581,-29.241l-15.581,-29.242l-15.583,29.242Z" style="fill:#fff;fill-rule:nonzero;"/><path d="M273.185,719.681l-24.272,-45.545l24.272,-45.545l24.272,45.545l-24.272,45.545Zm-15.582,-45.545l15.582,29.241l15.583,-29.241l-15.583,-29.242l-15.582,29.242Z" style="fill:#fff;fill-rule:nonzero;"/><path d="M313.039,719.681l-24.271,-45.545l24.271,-45.545l24.272,45.545l-24.272,45.545Zm-15.582,-45.545l15.582,29.241l15.582,-29.241l-15.582,-29.242l-15.582,29.242Z" style="fill:#fff;fill-rule:nonzero;"/><path d="M352.892,719.681l-24.271,-45.545l24.271,-45.545l24.272,45.545l-24.272,45.545Zm-15.581,-45.545l15.581,29.241l15.583,-29.241l-15.583,-29.242l-15.581,29.242Z" style="fill:#fff;fill-rule:nonzero;"/><path d="M392.446,719.681l-24.272,-45.545l24.272,-45.545l24.272,45.545l-24.272,45.545Zm-15.581,-45.545l15.581,29.241l15.582,-29.241l-15.582,-29.242l-15.581,29.242Z" style="fill:#fff;fill-rule:nonzero;"/><path d="M432.3,719.681l-24.272,-45.545l24.272,-45.545l24.272,45.545l-24.272,45.545Zm-15.582,-45.545l15.582,29.241l15.582,-29.241l-15.582,-29.242l-15.582,29.242Z" style="fill:#fff;fill-rule:nonzero;"/><path d="M472.154,719.681l-24.272,-45.545l24.272,-45.545l24.272,45.545l-24.272,45.545Zm-15.582,-45.545l15.582,29.241l15.582,-29.241l-15.582,-29.242l-15.582,29.242Z" style="fill:#fff;fill-rule:nonzero;"/><path d="M511.708,719.681l-24.272,-45.545l24.272,-45.545l24.272,45.545l-24.272,45.545Zm-15.582,-45.545l15.582,29.241l15.582,-29.241l-15.582,-29.242l-15.582,29.242Z" style="fill:#fff;fill-rule:nonzero;"/><path d="M551.562,719.681l-24.272,-45.545l24.272,-45.545l24.272,45.545l-24.272,45.545Zm-15.582,-45.545l15.582,29.241l15.581,-29.241l-15.581,-29.242l-15.582,29.242Z" style="fill:#fff;fill-rule:nonzero;"/><path d="M591.415,719.681l-24.272,-45.545l24.272,-45.545l24.272,45.545l-24.272,45.545Zm-15.581,-45.545l15.581,29.241l15.582,-29.241l-15.582,-29.242l-15.581,29.242Z" style="fill:#fff;fill-rule:nonzero;"/><path d="M630.97,719.681l-24.273,-45.545l24.273,-45.545l24.271,45.545l-24.271,45.545Zm-15.583,-45.545l15.583,29.241l15.581,-29.241l-15.581,-29.242l-15.583,29.242Z" style="fill:#fff;fill-rule:nonzero;"/><path d="M670.823,719.681l-24.272,-45.545l24.272,-45.545l24.272,45.545l-24.272,45.545Zm-15.582,-45.545l15.582,29.241l15.582,-29.241l-15.582,-29.242l-15.582,29.242Z" style="fill:#fff;fill-rule:nonzero;"/><path d="M710.677,719.681l-24.272,-45.545l24.272,-45.545l24.272,45.545l-24.272,45.545Zm-15.582,-45.545l15.582,29.241l15.581,-29.241l-15.581,-29.242l-15.582,29.242Z" style="fill:#fff;fill-rule:nonzero;"/><path d="M750.231,719.681l-24.272,-45.545l24.272,-45.545l24.271,45.545l-24.271,45.545Zm-15.583,-45.545l15.583,29.241l15.582,-29.241l-15.582,-29.242l-15.583,29.242Z" style="fill:#fff;fill-rule:nonzero;"/><path d="M-4.891,794.469l-24.272,-45.547l24.272,-45.545l24.272,45.545l-24.272,45.547Zm-15.582,-45.547l15.582,29.243l15.581,-29.243l-15.581,-29.241l-15.582,29.241Z" style="fill:#fff;fill-rule:nonzero;"/><path d="M34.962,794.469l-24.272,-45.547l24.272,-45.545l24.272,45.545l-24.272,45.547Zm-15.581,-45.547l15.581,29.243l15.582,-29.243l-15.582,-29.241l-15.581,29.241Z" style="fill:#fff;fill-rule:nonzero;"/><path d="M74.516,794.469l-24.272,-45.547l24.272,-45.545l24.271,45.545l-24.271,45.547Zm-15.582,-45.547l15.582,29.243l15.582,-29.243l-15.582,-29.241l-15.582,29.241Z" style="fill:#fff;fill-rule:nonzero;"/><path d="M114.37,794.469l-24.272,-45.547l24.272,-45.545l24.271,45.545l-24.271,45.547Zm-15.583,-45.547l15.583,29.243l15.582,-29.243l-15.582,-29.241l-15.583,29.241Z" style="fill:#fff;fill-rule:nonzero;"/><path d="M154.224,794.469l-24.272,-45.547l24.272,-45.545l24.272,45.545l-24.272,45.547Zm-15.583,-45.547l15.583,29.243l15.581,-29.243l-15.581,-29.241l-15.583,29.241Z" style="fill:#fff;fill-rule:nonzero;"/><path d="M193.777,794.469l-24.271,-45.547l24.271,-45.545l24.272,45.545l-24.272,45.547Zm-15.582,-45.547l15.582,29.243l15.583,-29.243l-15.583,-29.241l-15.582,29.241Z" style="fill:#fff;fill-rule:nonzero;"/><path d="M233.632,794.469l-24.272,-45.547l24.272,-45.545l24.271,45.545l-24.271,45.547Zm-15.583,-45.547l15.583,29.243l15.581,-29.243l-15.581,-29.241l-15.583,29.241Z" style="fill:#fff;fill-rule:nonzero;"/><path d="M273.185,794.469l-24.272,-45.547l24.272,-45.545l24.272,45.545l-24.272,45.547Zm-15.582,-45.547l15.582,29.243l15.583,-29.243l-15.583,-29.241l-15.582,29.241Z" style="fill:#fff;fill-rule:nonzero;"/><path d="M313.039,794.469l-24.271,-45.547l24.271,-45.545l24.272,45.545l-24.272,45.547Zm-15.582,-45.547l15.582,29.243l15.582,-29.243l-15.582,-29.241l-15.582,29.241Z" style="fill:#fff;fill-rule:nonzero;"/><path d="M352.892,794.469l-24.271,-45.547l24.271,-45.545l24.272,45.545l-24.272,45.547Zm-15.581,-45.547l15.581,29.243l15.583,-29.243l-15.583,-29.241l-15.581,29.241Z" style="fill:#fff;fill-rule:nonzero;"/><path d="M392.446,794.469l-24.272,-45.547l24.272,-45.545l24.272,45.545l-24.272,45.547Zm-15.581,-45.547l15.581,29.243l15.582,-29.243l-15.582,-29.241l-15.581,29.241Z" style="fill:#fff;fill-rule:nonzero;"/><path d="M432.3,794.469l-24.272,-45.547l24.272,-45.545l24.272,45.545l-24.272,45.547Zm-15.582,-45.547l15.582,29.243l15.582,-29.243l-15.582,-29.241l-15.582,29.241Z" style="fill:#fff;fill-rule:nonzero;"/><path d="M472.154,794.469l-24.272,-45.547l24.272,-45.545l24.272,45.545l-24.272,45.547Zm-15.582,-45.547l15.582,29.243l15.582,-29.243l-15.582,-29.241l-15.582,29.241Z" style="fill:#fff;fill-rule:nonzero;"/><path d="M511.708,794.469l-24.272,-45.547l24.272,-45.545l24.272,45.545l-24.272,45.547Zm-15.582,-45.547l15.582,29.243l15.582,-29.243l-15.582,-29.241l-15.582,29.241Z" style="fill:#fff;fill-rule:nonzero;"/><path d="M551.562,794.469l-24.272,-45.547l24.272,-45.545l24.272,45.545l-24.272,45.547Zm-15.582,-45.547l15.582,29.243l15.581,-29.243l-15.581,-29.241l-15.582,29.241Z" style="fill:#fff;fill-rule:nonzero;"/><path d="M591.415,794.469l-24.272,-45.547l24.272,-45.545l24.272,45.545l-24.272,45.547Zm-15.581,-45.547l15.581,29.243l15.582,-29.243l-15.582,-29.241l-15.581,29.241Z" style="fill:#fff;fill-rule:nonzero;"/><path d="M630.97,794.469l-24.273,-45.547l24.273,-45.545l24.271,45.545l-24.271,45.547Zm-15.583,-45.547l15.583,29.243l15.581,-29.243l-15.581,-29.241l-15.583,29.241Z" style="fill:#fff;fill-rule:nonzero;"/><path d="M670.823,794.469l-24.272,-45.547l24.272,-45.545l24.272,45.545l-24.272,45.547Zm-15.582,-45.547l15.582,29.243l15.582,-29.243l-15.582,-29.241l-15.582,29.241Z" style="fill:#fff;fill-rule:nonzero;"/><path d="M710.677,794.469l-24.272,-45.547l24.272,-45.545l24.272,45.545l-24.272,45.547Zm-15.582,-45.547l15.582,29.243l15.581,-29.243l-15.581,-29.241l-15.582,29.241Z" style="fill:#fff;fill-rule:nonzero;"/><path d="M750.231,794.469l-24.272,-45.547l24.272,-45.545l24.271,45.545l-24.271,45.547Zm-15.583,-45.547l15.583,29.243l15.582,-29.243l-15.582,-29.241l-15.583,29.241Z" style="fill:#fff;fill-rule:nonzero;"/><path d="M-4.891,869.515l-24.272,-45.545l24.272,-45.546l24.272,45.546l-24.272,45.545Zm-15.582,-45.545l15.582,29.241l15.581,-29.241l-15.581,-29.243l-15.582,29.243Z" style="fill:#fff;fill-rule:nonzero;"/><path d="M34.962,869.515l-24.272,-45.545l24.272,-45.546l24.272,45.546l-24.272,45.545Zm-15.581,-45.545l15.581,29.241l15.582,-29.241l-15.582,-29.243l-15.581,29.243Z" style="fill:#fff;fill-rule:nonzero;"/><path d="M74.516,869.515l-24.272,-45.545l24.272,-45.546l24.271,45.546l-24.271,45.545Zm-15.582,-45.545l15.582,29.241l15.582,-29.241l-15.582,-29.243l-15.582,29.243Z" style="fill:#fff;fill-rule:nonzero;"/><path d="M114.37,869.515l-24.272,-45.545l24.272,-45.546l24.271,45.546l-24.271,45.545Zm-15.583,-45.545l15.583,29.241l15.582,-29.241l-15.582,-29.243l-15.583,29.243Z" style="fill:#fff;fill-rule:nonzero;"/><path d="M154.224,869.515l-24.272,-45.545l24.272,-45.546l24.272,45.546l-24.272,45.545Zm-15.583,-45.545l15.583,29.241l15.581,-29.241l-15.581,-29.243l-15.583,29.243Z" style="fill:#fff;fill-rule:nonzero;"/><path d="M193.777,869.515l-24.271,-45.545l24.271,-45.546l24.272,45.546l-24.272,45.545Zm-15.582,-45.545l15.582,29.241l15.583,-29.241l-15.583,-29.243l-15.582,29.243Z" style="fill:#fff;fill-rule:nonzero;"/><path d="M233.632,869.515l-24.272,-45.545l24.272,-45.546l24.271,45.546l-24.271,45.545Zm-15.583,-45.545l15.583,29.241l15.581,-29.241l-15.581,-29.243l-15.583,29.243Z" style="fill:#fff;fill-rule:nonzero;"/><path d="M273.185,869.515l-24.272,-45.545l24.272,-45.546l24.272,45.546l-24.272,45.545Zm-15.582,-45.545l15.582,29.241l15.583,-29.241l-15.583,-29.243l-15.582,29.243Z" style="fill:#fff;fill-rule:nonzero;"/><path d="M313.039,869.515l-24.271,-45.545l24.271,-45.546l24.272,45.546l-24.272,45.545Zm-15.582,-45.545l15.582,29.241l15.582,-29.241l-15.582,-29.243l-15.582,29.243Z" style="fill:#fff;fill-rule:nonzero;"/><path d="M352.892,869.515l-24.271,-45.545l24.271,-45.546l24.272,45.546l-24.272,45.545Zm-15.581,-45.545l15.581,29.241l15.583,-29.241l-15.583,-29.243l-15.581,29.243Z" style="fill:#fff;fill-rule:nonzero;"/><path d="M392.446,869.515l-24.272,-45.545l24.272,-45.546l24.272,45.546l-24.272,45.545Zm-15.581,-45.545l15.581,29.241l15.582,-29.241l-15.582,-29.243l-15.581,29.243Z" style="fill:#fff;fill-rule:nonzero;"/><path d="M432.3,869.515l-24.272,-45.545l24.272,-45.546l24.272,45.546l-24.272,45.545Zm-15.582,-45.545l15.582,29.241l15.582,-29.241l-15.582,-29.243l-15.582,29.243Z" style="fill:#fff;fill-rule:nonzero;"/><path d="M472.154,869.515l-24.272,-45.545l24.272,-45.546l24.272,45.546l-24.272,45.545Zm-15.582,-45.545l15.582,29.241l15.582,-29.241l-15.582,-29.243l-15.582,29.243Z" style="fill:#fff;fill-rule:nonzero;"/><path d="M511.708,869.515l-24.272,-45.545l24.272,-45.546l24.272,45.546l-24.272,45.545Zm-15.582,-45.545l15.582,29.241l15.582,-29.241l-15.582,-29.243l-15.582,29.243Z" style="fill:#fff;fill-rule:nonzero;"/><path d="M551.562,869.515l-24.272,-45.545l24.272,-45.546l24.272,45.546l-24.272,45.545Zm-15.582,-45.545l15.582,29.241l15.581,-29.241l-15.581,-29.243l-15.582,29.243Z" style="fill:#fff;fill-rule:nonzero;"/><path d="M591.415,869.515l-24.272,-45.545l24.272,-45.546l24.272,45.546l-24.272,45.545Zm-15.581,-45.545l15.581,29.241l15.582,-29.241l-15.582,-29.243l-15.581,29.243Z" style="fill:#fff;fill-rule:nonzero;"/><path d="M630.97,869.515l-24.273,-45.545l24.273,-45.546l24.271,45.546l-24.271,45.545Zm-15.583,-45.545l15.583,29.241l15.581,-29.241l-15.581,-29.243l-15.583,29.243Z" style="fill:#fff;fill-rule:nonzero;"/><path d="M670.823,869.515l-24.272,-45.545l24.272,-45.546l24.272,45.546l-24.272,45.545Zm-15.582,-45.545l15.582,29.241l15.582,-29.241l-15.582,-29.243l-15.582,29.243Z" style="fill:#fff;fill-rule:nonzero;"/><path d="M710.677,869.515l-24.272,-45.545l24.272,-45.546l24.272,45.546l-24.272,45.545Zm-15.582,-45.545l15.582,29.241l15.581,-29.241l-15.581,-29.243l-15.582,29.243Z" style="fill:#fff;fill-rule:nonzero;"/><path d="M750.231,869.515l-24.272,-45.545l24.272,-45.546l24.271,45.546l-24.271,45.545Zm-15.583,-45.545l15.583,29.241l15.582,-29.241l-15.582,-29.243l-15.583,29.243Z" style="fill:#fff;fill-rule:nonzero;"/><path d="M-4.891,944.301l-24.272,-45.545l24.272,-45.545l24.272,45.545l-24.272,45.545Zm-15.582,-45.545l15.582,29.242l15.581,-29.242l-15.581,-29.241l-15.582,29.241Z" style="fill:#fff;fill-rule:nonzero;"/><path d="M34.962,944.301l-24.272,-45.545l24.272,-45.545l24.272,45.545l-24.272,45.545Zm-15.581,-45.545l15.581,29.242l15.582,-29.242l-15.582,-29.241l-15.581,29.241Z" style="fill:#fff;fill-rule:nonzero;"/><path d="M74.516,944.301l-24.272,-45.545l24.272,-45.545l24.271,45.545l-24.271,45.545Zm-15.582,-45.545l15.582,29.242l15.582,-29.242l-15.582,-29.241l-15.582,29.241Z" style="fill:#fff;fill-rule:nonzero;"/><path d="M114.37,944.301l-24.272,-45.545l24.272,-45.545l24.271,45.545l-24.271,45.545Zm-15.583,-45.545l15.583,29.242l15.582,-29.242l-15.582,-29.241l-15.583,29.241Z" style="fill:#fff;fill-rule:nonzero;"/><path d="M154.224,944.301l-24.272,-45.545l24.272,-45.545l24.272,45.545l-24.272,45.545Zm-15.583,-45.545l15.583,29.242l15.581,-29.242l-15.581,-29.241l-15.583,29.241Z" style="fill:#fff;fill-rule:nonzero;"/><path d="M193.777,944.301l-24.271,-45.545l24.271,-45.545l24.272,45.545l-24.272,45.545Zm-15.582,-45.545l15.582,29.242l15.583,-29.242l-15.583,-29.241l-15.582,29.241Z" style="fill:#fff;fill-rule:nonzero;"/><path d="M233.632,944.301l-24.272,-45.545l24.272,-45.545l24.271,45.545l-24.271,45.545Zm-15.583,-45.545l15.583,29.242l15.581,-29.242l-15.581,-29.241l-15.583,29.241Z" style="fill:#fff;fill-rule:nonzero;"/><path d="M273.185,944.301l-24.272,-45.545l24.272,-45.545l24.272,45.545l-24.272,45.545Zm-15.582,-45.545l15.582,29.242l15.583,-29.242l-15.583,-29.241l-15.582,29.241Z" style="fill:#fff;fill-rule:nonzero;"/><path d="M313.039,944.301l-24.271,-45.545l24.271,-45.545l24.272,45.545l-24.272,45.545Zm-15.582,-45.545l15.582,29.242l15.582,-29.242l-15.582,-29.241l-15.582,29.241Z" style="fill:#fff;fill-rule:nonzero;"/><path d="M352.892,944.301l-24.271,-45.545l24.271,-45.545l24.272,45.545l-24.272,45.545Zm-15.581,-45.545l15.581,29.242l15.583,-29.242l-15.583,-29.241l-15.581,29.241Z" style="fill:#fff;fill-rule:nonzero;"/><path d="M392.446,944.301l-24.272,-45.545l24.272,-45.545l24.272,45.545l-24.272,45.545Zm-15.581,-45.545l15.581,29.242l15.582,-29.242l-15.582,-29.241l-15.581,29.241Z" style="fill:#fff;fill-rule:nonzero;"/><path d="M432.3,944.301l-24.272,-45.545l24.272,-45.545l24.272,45.545l-24.272,45.545Zm-15.582,-45.545l15.582,29.242l15.582,-29.242l-15.582,-29.241l-15.582,29.241Z" style="fill:#fff;fill-rule:nonzero;"/><path d="M472.154,944.301l-24.272,-45.545l24.272,-45.545l24.272,45.545l-24.272,45.545Zm-15.582,-45.545l15.582,29.242l15.582,-29.242l-15.582,-29.241l-15.582,29.241Z" style="fill:#fff;fill-rule:nonzero;"/><path d="M511.708,944.301l-24.272,-45.545l24.272,-45.545l24.272,45.545l-24.272,45.545Zm-15.582,-45.545l15.582,29.242l15.582,-29.242l-15.582,-29.241l-15.582,29.241Z" style="fill:#fff;fill-rule:nonzero;"/><path d="M551.562,944.301l-24.272,-45.545l24.272,-45.545l24.272,45.545l-24.272,45.545Zm-15.582,-45.545l15.582,29.242l15.581,-29.242l-15.581,-29.241l-15.582,29.241Z" style="fill:#fff;fill-rule:nonzero;"/><path d="M591.415,944.301l-24.272,-45.545l24.272,-45.545l24.272,45.545l-24.272,45.545Zm-15.581,-45.545l15.581,29.242l15.582,-29.242l-15.582,-29.241l-15.581,29.241Z" style="fill:#fff;fill-rule:nonzero;"/><path d="M630.97,944.301l-24.273,-45.545l24.273,-45.545l24.271,45.545l-24.271,45.545Zm-15.583,-45.545l15.583,29.242l15.581,-29.242l-15.581,-29.241l-15.583,29.241Z" style="fill:#fff;fill-rule:nonzero;"/><path d="M670.823,944.301l-24.272,-45.545l24.272,-45.545l24.272,45.545l-24.272,45.545Zm-15.582,-45.545l15.582,29.242l15.582,-29.242l-15.582,-29.241l-15.582,29.241Z" style="fill:#fff;fill-rule:nonzero;"/><path d="M710.677,944.301l-24.272,-45.545l24.272,-45.545l24.272,45.545l-24.272,45.545Zm-15.582,-45.545l15.582,29.242l15.581,-29.242l-15.581,-29.241l-15.582,29.241Z" style="fill:#fff;fill-rule:nonzero;"/><path d="M750.231,944.301l-24.272,-45.545l24.272,-45.545l24.271,45.545l-24.271,45.545Zm-15.583,-45.545l15.583,29.242l15.582,-29.242l-15.582,-29.241l-15.583,29.241Z" style="fill:#fff;fill-rule:nonzero;"/><path d="M-4.891,1019.09l-24.272,-45.545l24.272,-45.546l24.272,45.546l-24.272,45.545Zm-15.582,-45.545l15.582,29.242l15.581,-29.242l-15.581,-29.243l-15.582,29.243Z" style="fill:#fff;fill-rule:nonzero;"/><path d="M34.962,1019.09l-24.272,-45.545l24.272,-45.546l24.272,45.546l-24.272,45.545Zm-15.581,-45.545l15.581,29.242l15.582,-29.242l-15.582,-29.243l-15.581,29.243Z" style="fill:#fff;fill-rule:nonzero;"/><path d="M74.516,1019.09l-24.272,-45.545l24.272,-45.546l24.271,45.546l-24.271,45.545Zm-15.582,-45.545l15.582,29.242l15.582,-29.242l-15.582,-29.243l-15.582,29.243Z" style="fill:#fff;fill-rule:nonzero;"/><path d="M114.37,1019.09l-24.272,-45.545l24.272,-45.546l24.271,45.546l-24.271,45.545Zm-15.583,-45.545l15.583,29.242l15.582,-29.242l-15.582,-29.243l-15.583,29.243Z" style="fill:#fff;fill-rule:nonzero;"/><path d="M154.224,1019.09l-24.272,-45.545l24.272,-45.546l24.272,45.546l-24.272,45.545Zm-15.583,-45.545l15.583,29.242l15.581,-29.242l-15.581,-29.243l-15.583,29.243Z" style="fill:#fff;fill-rule:nonzero;"/><path d="M193.777,1019.09l-24.271,-45.545l24.271,-45.546l24.272,45.546l-24.272,45.545Zm-15.582,-45.545l15.582,29.242l15.583,-29.242l-15.583,-29.243l-15.582,29.243Z" style="fill:#fff;fill-rule:nonzero;"/><path d="M233.632,1019.09l-24.272,-45.545l24.272,-45.546l24.271,45.546l-24.271,45.545Zm-15.583,-45.545l15.583,29.242l15.581,-29.242l-15.581,-29.243l-15.583,29.243Z" style="fill:#fff;fill-rule:nonzero;"/><path d="M273.185,1019.09l-24.272,-45.545l24.272,-45.546l24.272,45.546l-24.272,45.545Zm-15.582,-45.545l15.582,29.242l15.583,-29.242l-15.583,-29.243l-15.582,29.243Z" style="fill:#fff;fill-rule:nonzero;"/><path d="M313.039,1019.09l-24.271,-45.545l24.271,-45.546l24.272,45.546l-24.272,45.545Zm-15.582,-45.545l15.582,29.242l15.582,-29.242l-15.582,-29.243l-15.582,29.243Z" style="fill:#fff;fill-rule:nonzero;"/><path d="M352.892,1019.09l-24.271,-45.545l24.271,-45.546l24.272,45.546l-24.272,45.545Zm-15.581,-45.545l15.581,29.242l15.583,-29.242l-15.583,-29.243l-15.581,29.243Z" style="fill:#fff;fill-rule:nonzero;"/><path d="M392.446,1019.09l-24.272,-45.545l24.272,-45.546l24.272,45.546l-24.272,45.545Zm-15.581,-45.545l15.581,29.242l15.582,-29.242l-15.582,-29.243l-15.581,29.243Z" style="fill:#fff;fill-rule:nonzero;"/><path d="M432.3,1019.09l-24.272,-45.545l24.272,-45.546l24.272,45.546l-24.272,45.545Zm-15.582,-45.545l15.582,29.242l15.582,-29.242l-15.582,-29.243l-15.582,29.243Z" style="fill:#fff;fill-rule:nonzero;"/><path d="M472.154,1019.09l-24.272,-45.545l24.272,-45.546l24.272,45.546l-24.272,45.545Zm-15.582,-45.545l15.582,29.242l15.582,-29.242l-15.582,-29.243l-15.582,29.243Z" style="fill:#fff;fill-rule:nonzero;"/><path d="M511.708,1019.09l-24.272,-45.545l24.272,-45.546l24.272,45.546l-24.272,45.545Zm-15.582,-45.545l15.582,29.242l15.582,-29.242l-15.582,-29.243l-15.582,29.243Z" style="fill:#fff;fill-rule:nonzero;"/><path d="M551.562,1019.09l-24.272,-45.545l24.272,-45.546l24.272,45.546l-24.272,45.545Zm-15.582,-45.545l15.582,29.242l15.581,-29.242l-15.581,-29.243l-15.582,29.243Z" style="fill:#fff;fill-rule:nonzero;"/><path d="M591.415,1019.09l-24.272,-45.545l24.272,-45.546l24.272,45.546l-24.272,45.545Zm-15.581,-45.545l15.581,29.242l15.582,-29.242l-15.582,-29.243l-15.581,29.243Z" style="fill:#fff;fill-rule:nonzero;"/><path d="M630.97,1019.09l-24.273,-45.545l24.273,-45.546l24.271,45.546l-24.271,45.545Zm-15.583,-45.545l15.583,29.242l15.581,-29.242l-15.581,-29.243l-15.583,29.243Z" style="fill:#fff;fill-rule:nonzero;"/><path d="M670.823,1019.09l-24.272,-45.545l24.272,-45.546l24.272,45.546l-24.272,45.545Zm-15.582,-45.545l15.582,29.242l15.582,-29.242l-15.582,-29.243l-15.582,29.243Z" style="fill:#fff;fill-rule:nonzero;"/><path d="M710.677,1019.09l-24.272,-45.545l24.272,-45.546l24.272,45.546l-24.272,45.545Zm-15.582,-45.545l15.582,29.242l15.581,-29.242l-15.581,-29.243l-15.582,29.243Z" style="fill:#fff;fill-rule:nonzero;"/><path d="M750.231,1019.09l-24.272,-45.545l24.272,-45.546l24.271,45.546l-24.271,45.545Zm-15.583,-45.545l15.583,29.242l15.582,-29.242l-15.582,-29.243l-15.583,29.243Z" style="fill:#fff;fill-rule:nonzero;"/><path d="M-4.891,1094.14l-24.272,-45.545l24.272,-45.546l24.272,45.546l-24.272,45.545Zm-15.582,-45.545l15.582,29.242l15.581,-29.242l-15.581,-29.242l-15.582,29.242Z" style="fill:#fff;fill-rule:nonzero;"/><path d="M34.962,1094.14l-24.272,-45.545l24.272,-45.546l24.272,45.546l-24.272,45.545Zm-15.581,-45.545l15.581,29.242l15.582,-29.242l-15.582,-29.242l-15.581,29.242Z" style="fill:#fff;fill-rule:nonzero;"/><path d="M74.516,1094.14l-24.272,-45.545l24.272,-45.546l24.271,45.546l-24.271,45.545Zm-15.582,-45.545l15.582,29.242l15.582,-29.242l-15.582,-29.242l-15.582,29.242Z" style="fill:#fff;fill-rule:nonzero;"/><path d="M114.37,1094.14l-24.272,-45.545l24.272,-45.546l24.271,45.546l-24.271,45.545Zm-15.583,-45.545l15.583,29.242l15.582,-29.242l-15.582,-29.242l-15.583,29.242Z" style="fill:#fff;fill-rule:nonzero;"/><path d="M154.224,1094.14l-24.272,-45.545l24.272,-45.546l24.272,45.546l-24.272,45.545Zm-15.583,-45.545l15.583,29.242l15.581,-29.242l-15.581,-29.242l-15.583,29.242Z" style="fill:#fff;fill-rule:nonzero;"/><path d="M193.777,1094.14l-24.271,-45.545l24.271,-45.546l24.272,45.546l-24.272,45.545Zm-15.582,-45.545l15.582,29.242l15.583,-29.242l-15.583,-29.242l-15.582,29.242Z" style="fill:#fff;fill-rule:nonzero;"/><path d="M233.632,1094.14l-24.272,-45.545l24.272,-45.546l24.271,45.546l-24.271,45.545Zm-15.583,-45.545l15.583,29.242l15.581,-29.242l-15.581,-29.242l-15.583,29.242Z" style="fill:#fff;fill-rule:nonzero;"/><path d="M273.185,1094.14l-24.272,-45.545l24.272,-45.546l24.272,45.546l-24.272,45.545Zm-15.582,-45.545l15.582,29.242l15.583,-29.242l-15.583,-29.242l-15.582,29.242Z" style="fill:#fff;fill-rule:nonzero;"/><path d="M313.039,1094.14l-24.271,-45.545l24.271,-45.546l24.272,45.546l-24.272,45.545Zm-15.582,-45.545l15.582,29.242l15.582,-29.242l-15.582,-29.242l-15.582,29.242Z" style="fill:#fff;fill-rule:nonzero;"/><path d="M352.892,1094.14l-24.271,-45.545l24.271,-45.546l24.272,45.546l-24.272,45.545Zm-15.581,-45.545l15.581,29.242l15.583,-29.242l-15.583,-29.242l-15.581,29.242Z" style="fill:#fff;fill-rule:nonzero;"/><path d="M392.446,1094.14l-24.272,-45.545l24.272,-45.546l24.272,45.546l-24.272,45.545Zm-15.581,-45.545l15.581,29.242l15.582,-29.242l-15.582,-29.242l-15.581,29.242Z" style="fill:#fff;fill-rule:nonzero;"/><path d="M432.3,1094.14l-24.272,-45.545l24.272,-45.546l24.272,45.546l-24.272,45.545Zm-15.582,-45.545l15.582,29.242l15.582,-29.242l-15.582,-29.242l-15.582,29.242Z" style="fill:#fff;fill-rule:nonzero;"/><path d="M472.154,1094.14l-24.272,-45.545l24.272,-45.546l24.272,45.546l-24.272,45.545Zm-15.582,-45.545l15.582,29.242l15.582,-29.242l-15.582,-29.242l-15.582,29.242Z" style="fill:#fff;fill-rule:nonzero;"/><path d="M511.708,1094.14l-24.272,-45.545l24.272,-45.546l24.272,45.546l-24.272,45.545Zm-15.582,-45.545l15.582,29.242l15.582,-29.242l-15.582,-29.242l-15.582,29.242Z" style="fill:#fff;fill-rule:nonzero;"/><path d="M551.562,1094.14l-24.272,-45.545l24.272,-45.546l24.272,45.546l-24.272,45.545Zm-15.582,-45.545l15.582,29.242l15.581,-29.242l-15.581,-29.242l-15.582,29.242Z" style="fill:#fff;fill-rule:nonzero;"/><path d="M591.415,1094.14l-24.272,-45.545l24.272,-45.546l24.272,45.546l-24.272,45.545Zm-15.581,-45.545l15.581,29.242l15.582,-29.242l-15.582,-29.242l-15.581,29.242Z" style="fill:#fff;fill-rule:nonzero;"/><path d="M630.97,1094.14l-24.273,-45.545l24.273,-45.546l24.271,45.546l-24.271,45.545Zm-15.583,-45.545l15.583,29.242l15.581,-29.242l-15.581,-29.242l-15.583,29.242Z" style="fill:#fff;fill-rule:nonzero;"/><path d="M670.823,1094.14l-24.272,-45.545l24.272,-45.546l24.272,45.546l-24.272,45.545Zm-15.582,-45.545l15.582,29.242l15.582,-29.242l-15.582,-29.242l-15.582,29.242Z" style="fill:#fff;fill-rule:nonzero;"/><path d="M710.677,1094.14l-24.272,-45.545l24.272,-45.546l24.272,45.546l-24.272,45.545Zm-15.582,-45.545l15.582,29.242l15.581,-29.242l-15.581,-29.242l-15.582,29.242Z" style="fill:#fff;fill-rule:nonzero;"/><path d="M750.231,1094.14l-24.272,-45.545l24.272,-45.546l24.271,45.546l-24.271,45.545Zm-15.583,-45.545l15.583,29.242l15.582,-29.242l-15.582,-29.242l-15.583,29.242Z" style="fill:#fff;fill-rule:nonzero;"/></g></g></g></g></g></g></g></svg>