<?xml version="1.0" encoding="UTF-8" standalone="no"?><!DOCTYPE svg PUBLIC "-//W3C//DTD SVG 1.1//EN" "http://www.w3.org/Graphics/SVG/1.1/DTD/svg11.dtd"><svg width="100%" height="100%" viewBox="0 0 756 1052" version="1.1" xmlns="http://www.w3.org/2000/svg" xmlns:xlink="http://www.w3.org/1999/xlink" xml:space="preserve" xmlns:serif="http://www.serif.com/" style="fill-rule:evenodd;clip-rule:evenodd;stroke-linejoin:round;stroke-miterlimit:2;"><clipPath id="_clip1"><rect x="-40.673" y="-35.866" width="837.073" height="1121.48"/></clipPath><g clip-path="url(#_clip1)"><g><g><path d="M776.946,1085.07l-797.991,-0c-9.907,-0 -18.013,-7.001 -18.013,-15.557l-0,-1088.43c-0,-8.556 8.106,-15.556 18.013,-15.556l797.991,-0c9.908,-0 18.014,7 18.014,15.556l-0,1088.43c-0,8.556 -8.106,15.557 -18.014,15.557Z" style="fill:#fff;fill-rule:nonzero;"/><path d="M776.946,1086.37l-797.991,0c-10.808,0 -19.514,-7.519 -19.514,-16.853l-0,-1088.43c-0,-9.334 8.706,-16.853 19.514,-16.853l797.991,0c10.808,0 19.515,7.519 19.515,16.853l-0,1088.43c-0,9.334 -8.707,16.853 -19.515,16.853Zm-797.991,-1119.28c-9.006,0 -16.512,6.482 -16.512,14.26l-0,1088.17c-0,7.779 7.506,14.26 16.512,14.26l797.991,0c9.007,0 16.513,-6.481 16.513,-14.26l-0,-1088.43c-0,-7.778 -7.506,-14.26 -16.513,-14.26l-797.991,0l0,0.259Z" style="fill:#939598;fill-rule:nonzero;"/></g><g><path id="XMLID_1_" d="M-0.029,1048.77l-0,-1046.68c-0,-1.555 1.201,-2.593 3.002,-2.593l749.956,0c1.501,0 3.002,1.038 3.002,2.593l-0,1046.68c-0,1.556 -1.501,2.593 -3.002,2.593l-749.956,0c-1.501,0 -3.002,-1.296 -3.002,-2.593Z" style="fill:#d91e38;fill-rule:nonzero;"/><g><clipPath id="_clip2"><path d="M-0.029,1048.77l-0,-1046.68c-0,-1.555 1.201,-2.593 3.002,-2.593l749.956,0c1.501,0 3.002,1.038 3.002,2.593l-0,1046.68c-0,1.556 -1.501,2.593 -3.002,2.593l-749.956,0c-1.501,0 -3.002,-1.296 -3.002,-2.593Z"/></clipPath><g clip-path="url(#_clip2)"><path d="M-0.329,45.905l-24.318,-45.632l24.318,-45.632l24.318,45.632l-24.318,45.632Zm-15.612,-45.632l15.612,29.298l15.611,-29.298l-15.611,-29.298l-15.612,29.298Z" style="fill:#fff;fill-rule:nonzero;"/><path d="M39.6,45.905l-24.318,-45.632l24.318,-45.632l24.318,45.632l-24.318,45.632Zm-15.611,-45.632l15.611,29.298l15.612,-29.298l-15.612,-29.298l-15.611,29.298Z" style="fill:#fff;fill-rule:nonzero;"/><path d="M79.229,45.905l-24.017,-45.632l24.017,-45.632l24.318,45.632l-24.318,45.632Zm-15.611,-45.632l15.611,29.298l15.612,-29.298l-15.612,-29.298l-15.611,29.298Z" style="fill:#fff;fill-rule:nonzero;"/><path d="M119.159,45.905l-24.318,-45.632l24.318,-45.632l24.318,45.632l-24.318,45.632Zm-15.612,-45.632l15.612,29.298l15.612,-29.298l-15.612,-29.298l-15.612,29.298Z" style="fill:#fff;fill-rule:nonzero;"/><path d="M159.089,45.905l-24.318,-45.632l24.318,-45.632l24.318,45.632l-24.318,45.632Zm-15.612,-45.632l15.612,29.298l15.611,-29.298l-15.611,-29.298l-15.612,29.298Z" style="fill:#fff;fill-rule:nonzero;"/><path d="M198.718,45.905l-24.318,-45.632l24.318,-45.632l24.318,45.632l-24.318,45.632Zm-15.612,-45.632l15.612,29.298l15.612,-29.298l-15.612,-29.298l-15.612,29.298Z" style="fill:#fff;fill-rule:nonzero;"/><path d="M238.648,45.905l-24.318,-45.632l24.318,-45.632l24.318,45.632l-24.318,45.632Zm-15.612,-45.632l15.612,29.298l15.611,-29.298l-15.611,-29.298l-15.612,29.298Z" style="fill:#fff;fill-rule:nonzero;"/><path d="M278.277,45.905l-24.318,-45.632l24.318,-45.632l24.318,45.632l-24.318,45.632Zm-15.612,-45.632l15.612,29.298l15.612,-29.298l-15.612,-29.298l-15.612,29.298Z" style="fill:#fff;fill-rule:nonzero;"/><path d="M318.207,45.905l-24.318,-45.632l24.318,-45.632l24.318,45.632l-24.318,45.632Zm-15.612,-45.632l15.612,29.298l15.611,-29.298l-15.611,-29.298l-15.612,29.298Z" style="fill:#fff;fill-rule:nonzero;"/><path d="M358.136,45.905l-24.318,-45.632l24.318,-45.632l24.318,45.632l-24.318,45.632Zm-15.611,-45.632l15.611,29.298l15.612,-29.298l-15.612,-29.298l-15.611,29.298Z" style="fill:#fff;fill-rule:nonzero;"/><path d="M397.765,45.905l-24.318,-45.632l24.318,-45.632l24.318,45.632l-24.318,45.632Zm-15.611,-45.632l15.611,29.298l15.612,-29.298l-15.612,-29.298l-15.611,29.298Z" style="fill:#fff;fill-rule:nonzero;"/><path d="M437.695,45.905l-24.318,-45.632l24.318,-45.632l24.318,45.632l-24.318,45.632Zm-15.612,-45.632l15.612,29.298l15.612,-29.298l-15.612,-29.298l-15.612,29.298Z" style="fill:#fff;fill-rule:nonzero;"/><path d="M477.625,45.905l-24.318,-45.632l24.318,-45.632l24.318,45.632l-24.318,45.632Zm-15.612,-45.632l15.612,29.298l15.611,-29.298l-15.611,-29.298l-15.612,29.298Z" style="fill:#fff;fill-rule:nonzero;"/><path d="M517.254,45.905l-24.318,-45.632l24.318,-45.632l24.318,45.632l-24.318,45.632Zm-15.612,-45.632l15.612,29.298l15.612,-29.298l-15.612,-29.298l-15.612,29.298Z" style="fill:#fff;fill-rule:nonzero;"/><path d="M557.184,45.905l-24.318,-45.632l24.318,-45.632l24.318,45.632l-24.318,45.632Zm-15.612,-45.632l15.612,29.298l15.611,-29.298l-15.611,-29.298l-15.612,29.298Z" style="fill:#fff;fill-rule:nonzero;"/><path d="M597.113,45.905l-24.318,-45.632l24.318,-45.632l24.318,45.632l-24.318,45.632Zm-15.611,-45.632l15.611,29.298l15.612,-29.298l-15.612,-29.298l-15.611,29.298Z" style="fill:#fff;fill-rule:nonzero;"/><path d="M636.743,45.905l-24.319,-45.632l24.319,-45.632l24.318,45.632l-24.318,45.632Zm-15.612,-45.632l15.612,29.298l15.611,-29.298l-15.611,-29.298l-15.612,29.298Z" style="fill:#fff;fill-rule:nonzero;"/><path d="M676.672,45.905l-24.318,-45.632l24.318,-45.632l24.318,45.632l-24.318,45.632Zm-15.611,-45.632l15.611,29.298l15.612,-29.298l-15.612,-29.298l-15.611,29.298Z" style="fill:#fff;fill-rule:nonzero;"/><path d="M716.602,45.905l-24.318,-45.632l24.318,-45.632l24.318,45.632l-24.318,45.632Zm-15.612,-45.632l15.612,29.298l15.611,-29.298l-15.611,-29.298l-15.612,29.298Z" style="fill:#fff;fill-rule:nonzero;"/><path d="M756.231,45.905l-24.318,-45.632l24.318,-45.632l24.318,45.632l-24.318,45.632Zm-15.612,-45.632l15.612,29.298l15.612,-29.298l-15.612,-29.298l-15.612,29.298Z" style="fill:#fff;fill-rule:nonzero;"/><path d="M-0.329,120.835l-24.318,-45.632l24.318,-45.632l24.318,45.632l-24.318,45.632Zm-15.612,-45.632l15.612,29.298l15.611,-29.298l-15.611,-29.298l-15.612,29.298Z" style="fill:#fff;fill-rule:nonzero;"/><path d="M39.6,120.835l-24.318,-45.632l24.318,-45.632l24.318,45.632l-24.318,45.632Zm-15.611,-45.632l15.611,29.298l15.612,-29.298l-15.612,-29.298l-15.611,29.298Z" style="fill:#fff;fill-rule:nonzero;"/><path d="M79.229,120.835l-24.017,-45.632l24.318,-45.632l24.318,45.632l-24.619,45.632Zm-15.611,-45.632l15.611,29.298l15.612,-29.298l-15.612,-29.298l-15.611,29.298Z" style="fill:#fff;fill-rule:nonzero;"/><path d="M119.159,120.835l-24.318,-45.632l24.318,-45.632l24.318,45.632l-24.318,45.632Zm-15.612,-45.632l15.612,29.298l15.612,-29.298l-15.612,-29.298l-15.612,29.298Z" style="fill:#fff;fill-rule:nonzero;"/><path d="M159.089,120.835l-24.318,-45.632l24.318,-45.632l24.318,45.632l-24.318,45.632Zm-15.612,-45.632l15.612,29.298l15.611,-29.298l-15.611,-29.298l-15.612,29.298Z" style="fill:#fff;fill-rule:nonzero;"/><path d="M198.718,120.835l-24.318,-45.632l24.318,-45.632l24.318,45.632l-24.318,45.632Zm-15.612,-45.632l15.612,29.298l15.612,-29.298l-15.612,-29.298l-15.612,29.298Z" style="fill:#fff;fill-rule:nonzero;"/><path d="M238.648,120.835l-24.318,-45.632l24.318,-45.632l24.318,45.632l-24.318,45.632Zm-15.612,-45.632l15.612,29.298l15.611,-29.298l-15.611,-29.298l-15.612,29.298Z" style="fill:#fff;fill-rule:nonzero;"/><path d="M278.277,120.835l-24.318,-45.632l24.318,-45.632l24.318,45.632l-24.318,45.632Zm-15.612,-45.632l15.612,29.298l15.612,-29.298l-15.612,-29.298l-15.612,29.298Z" style="fill:#fff;fill-rule:nonzero;"/><path d="M318.207,120.835l-24.318,-45.632l24.318,-45.632l24.318,45.632l-24.318,45.632Zm-15.612,-45.632l15.612,29.298l15.611,-29.298l-15.611,-29.298l-15.612,29.298Z" style="fill:#fff;fill-rule:nonzero;"/><path d="M358.136,120.835l-24.318,-45.632l24.318,-45.632l24.318,45.632l-24.318,45.632Zm-15.611,-45.632l15.611,29.298l15.612,-29.298l-15.612,-29.298l-15.611,29.298Z" style="fill:#fff;fill-rule:nonzero;"/><path d="M397.765,120.835l-24.318,-45.632l24.318,-45.632l24.318,45.632l-24.318,45.632Zm-15.611,-45.632l15.611,29.298l15.612,-29.298l-15.612,-29.298l-15.611,29.298Z" style="fill:#fff;fill-rule:nonzero;"/><path d="M437.695,120.835l-24.318,-45.632l24.318,-45.632l24.318,45.632l-24.318,45.632Zm-15.612,-45.632l15.612,29.298l15.612,-29.298l-15.612,-29.298l-15.612,29.298Z" style="fill:#fff;fill-rule:nonzero;"/><path d="M477.625,120.835l-24.318,-45.632l24.318,-45.632l24.318,45.632l-24.318,45.632Zm-15.612,-45.632l15.612,29.298l15.611,-29.298l-15.611,-29.298l-15.612,29.298Z" style="fill:#fff;fill-rule:nonzero;"/><path d="M517.254,120.835l-24.318,-45.632l24.318,-45.632l24.318,45.632l-24.318,45.632Zm-15.612,-45.632l15.612,29.298l15.612,-29.298l-15.612,-29.298l-15.612,29.298Z" style="fill:#fff;fill-rule:nonzero;"/><path d="M557.184,120.835l-24.318,-45.632l24.318,-45.632l24.318,45.632l-24.318,45.632Zm-15.612,-45.632l15.612,29.298l15.611,-29.298l-15.611,-29.298l-15.612,29.298Z" style="fill:#fff;fill-rule:nonzero;"/><path d="M597.113,120.835l-24.318,-45.632l24.318,-45.632l24.318,45.632l-24.318,45.632Zm-15.611,-45.632l15.611,29.298l15.612,-29.298l-15.612,-29.298l-15.611,29.298Z" style="fill:#fff;fill-rule:nonzero;"/><path d="M636.743,120.835l-24.319,-45.632l24.319,-45.632l24.318,45.632l-24.318,45.632Zm-15.612,-45.632l15.612,29.298l15.611,-29.298l-15.611,-29.298l-15.612,29.298Z" style="fill:#fff;fill-rule:nonzero;"/><path d="M676.672,120.835l-24.318,-45.632l24.318,-45.632l24.318,45.632l-24.318,45.632Zm-15.611,-45.632l15.611,29.298l15.612,-29.298l-15.612,-29.298l-15.611,29.298Z" style="fill:#fff;fill-rule:nonzero;"/><path d="M716.602,120.835l-24.318,-45.632l24.318,-45.632l24.318,45.632l-24.318,45.632Zm-15.612,-45.632l15.612,29.298l15.611,-29.298l-15.611,-29.298l-15.612,29.298Z" style="fill:#fff;fill-rule:nonzero;"/><path d="M756.231,120.835l-24.318,-45.632l24.318,-45.632l24.318,45.632l-24.318,45.632Zm-15.612,-45.632l15.612,29.298l15.612,-29.298l-15.612,-29.298l-15.612,29.298Z" style="fill:#fff;fill-rule:nonzero;"/><path d="M-0.329,196.024l-24.318,-45.632l24.318,-45.632l24.318,45.632l-24.318,45.632Zm-15.612,-45.632l15.612,29.298l15.611,-29.298l-15.611,-29.298l-15.612,29.298Z" style="fill:#fff;fill-rule:nonzero;"/><path d="M39.6,196.024l-24.318,-45.632l24.318,-45.632l24.318,45.632l-24.318,45.632Zm-15.611,-45.632l15.611,29.298l15.612,-29.298l-15.612,-29.298l-15.611,29.298Z" style="fill:#fff;fill-rule:nonzero;"/><path d="M79.229,196.024l-24.318,-45.632l24.318,-45.632l24.318,45.632l-24.318,45.632Zm-15.611,-45.632l15.611,29.298l15.612,-29.298l-15.612,-29.298l-15.611,29.298Z" style="fill:#fff;fill-rule:nonzero;"/><path d="M119.159,196.024l-24.318,-45.632l24.318,-45.632l24.318,45.632l-24.318,45.632Zm-15.612,-45.632l15.612,29.298l15.612,-29.298l-15.612,-29.298l-15.612,29.298Z" style="fill:#fff;fill-rule:nonzero;"/><path d="M159.089,196.024l-24.318,-45.632l24.318,-45.632l24.318,45.632l-24.318,45.632Zm-15.612,-45.632l15.612,29.298l15.611,-29.298l-15.611,-29.298l-15.612,29.298Z" style="fill:#fff;fill-rule:nonzero;"/><path d="M198.718,196.024l-24.318,-45.632l24.318,-45.632l24.318,45.632l-24.318,45.632Zm-15.612,-45.632l15.612,29.298l15.612,-29.298l-15.612,-29.298l-15.612,29.298Z" style="fill:#fff;fill-rule:nonzero;"/><path d="M238.648,196.024l-24.318,-45.632l24.318,-45.632l24.318,45.632l-24.318,45.632Zm-15.612,-45.632l15.612,29.298l15.611,-29.298l-15.611,-29.298l-15.612,29.298Z" style="fill:#fff;fill-rule:nonzero;"/><path d="M278.277,196.024l-24.318,-45.632l24.318,-45.632l24.318,45.632l-24.318,45.632Zm-15.612,-45.632l15.612,29.298l15.612,-29.298l-15.612,-29.298l-15.612,29.298Z" style="fill:#fff;fill-rule:nonzero;"/><path d="M318.207,196.024l-24.318,-45.632l24.318,-45.632l24.318,45.632l-24.318,45.632Zm-15.612,-45.632l15.612,29.298l15.611,-29.298l-15.611,-29.298l-15.612,29.298Z" style="fill:#fff;fill-rule:nonzero;"/><path d="M358.136,196.024l-24.318,-45.632l24.318,-45.632l24.318,45.632l-24.318,45.632Zm-15.611,-45.632l15.611,29.298l15.612,-29.298l-15.612,-29.298l-15.611,29.298Z" style="fill:#fff;fill-rule:nonzero;"/><path d="M397.765,196.024l-24.318,-45.632l24.318,-45.632l24.318,45.632l-24.318,45.632Zm-15.611,-45.632l15.611,29.298l15.612,-29.298l-15.612,-29.298l-15.611,29.298Z" style="fill:#fff;fill-rule:nonzero;"/><path d="M437.695,196.024l-24.318,-45.632l24.318,-45.632l24.318,45.632l-24.318,45.632Zm-15.612,-45.632l15.612,29.298l15.612,-29.298l-15.612,-29.298l-15.612,29.298Z" style="fill:#fff;fill-rule:nonzero;"/><path d="M477.625,196.024l-24.318,-45.632l24.318,-45.632l24.318,45.632l-24.318,45.632Zm-15.612,-45.632l15.612,29.298l15.611,-29.298l-15.611,-29.298l-15.612,29.298Z" style="fill:#fff;fill-rule:nonzero;"/><path d="M517.254,196.024l-24.318,-45.632l24.318,-45.632l24.318,45.632l-24.318,45.632Zm-15.612,-45.632l15.612,29.298l15.612,-29.298l-15.612,-29.298l-15.612,29.298Z" style="fill:#fff;fill-rule:nonzero;"/><path d="M557.184,196.024l-24.318,-45.632l24.318,-45.632l24.318,45.632l-24.318,45.632Zm-15.612,-45.632l15.612,29.298l15.611,-29.298l-15.611,-29.298l-15.612,29.298Z" style="fill:#fff;fill-rule:nonzero;"/><path d="M597.113,196.024l-24.318,-45.632l24.318,-45.632l24.318,45.632l-24.318,45.632Zm-15.611,-45.632l15.611,29.298l15.612,-29.298l-15.612,-29.298l-15.611,29.298Z" style="fill:#fff;fill-rule:nonzero;"/><path d="M636.743,196.024l-24.319,-45.632l24.319,-45.632l24.318,45.632l-24.318,45.632Zm-15.612,-45.632l15.612,29.298l15.611,-29.298l-15.611,-29.298l-15.612,29.298Z" style="fill:#fff;fill-rule:nonzero;"/><path d="M676.672,196.024l-24.318,-45.632l24.318,-45.632l24.318,45.632l-24.318,45.632Zm-15.611,-45.632l15.611,29.298l15.612,-29.298l-15.612,-29.298l-15.611,29.298Z" style="fill:#fff;fill-rule:nonzero;"/><path d="M716.602,196.024l-24.318,-45.632l24.318,-45.632l24.318,45.632l-24.318,45.632Zm-15.612,-45.632l15.612,29.298l15.611,-29.298l-15.611,-29.298l-15.612,29.298Z" style="fill:#fff;fill-rule:nonzero;"/><path d="M756.231,196.024l-24.318,-45.632l24.318,-45.632l24.318,45.632l-24.318,45.632Zm-15.612,-45.632l15.612,29.298l15.612,-29.298l-15.612,-29.298l-15.612,29.298Z" style="fill:#fff;fill-rule:nonzero;"/><path d="M-0.329,270.954l-24.318,-45.632l24.318,-45.632l24.318,45.632l-24.318,45.632Zm-15.612,-45.632l15.612,29.298l15.611,-29.298l-15.611,-29.298l-15.612,29.298Z" style="fill:#fff;fill-rule:nonzero;"/><path d="M39.6,270.954l-24.318,-45.632l24.318,-45.632l24.318,45.632l-24.318,45.632Zm-15.611,-45.632l15.611,29.298l15.612,-29.298l-15.612,-29.298l-15.611,29.298Z" style="fill:#fff;fill-rule:nonzero;"/><path d="M79.229,270.954l-24.318,-45.632l24.318,-45.632l24.318,45.632l-24.318,45.632Zm-15.611,-45.632l15.611,29.298l15.612,-29.298l-15.612,-29.298l-15.611,29.298Z" style="fill:#fff;fill-rule:nonzero;"/><path d="M119.159,270.954l-24.318,-45.632l24.318,-45.632l24.318,45.632l-24.318,45.632Zm-15.612,-45.632l15.612,29.298l15.612,-29.298l-15.612,-29.298l-15.612,29.298Z" style="fill:#fff;fill-rule:nonzero;"/><path d="M159.089,270.954l-24.318,-45.632l24.318,-45.632l24.318,45.632l-24.318,45.632Zm-15.612,-45.632l15.612,29.298l15.611,-29.298l-15.611,-29.298l-15.612,29.298Z" style="fill:#fff;fill-rule:nonzero;"/><path d="M198.718,270.954l-24.318,-45.632l24.318,-45.632l24.318,45.632l-24.318,45.632Zm-15.612,-45.632l15.612,29.298l15.612,-29.298l-15.612,-29.298l-15.612,29.298Z" style="fill:#fff;fill-rule:nonzero;"/><path d="M238.648,270.954l-24.318,-45.632l24.318,-45.632l24.318,45.632l-24.318,45.632Zm-15.612,-45.632l15.612,29.298l15.611,-29.298l-15.611,-29.298l-15.612,29.298Z" style="fill:#fff;fill-rule:nonzero;"/><path d="M278.277,270.954l-24.318,-45.632l24.318,-45.632l24.318,45.632l-24.318,45.632Zm-15.612,-45.632l15.612,29.298l15.612,-29.298l-15.612,-29.298l-15.612,29.298Z" style="fill:#fff;fill-rule:nonzero;"/><path d="M318.207,270.954l-24.318,-45.632l24.318,-45.632l24.318,45.632l-24.318,45.632Zm-15.612,-45.632l15.612,29.298l15.611,-29.298l-15.611,-29.298l-15.612,29.298Z" style="fill:#fff;fill-rule:nonzero;"/><path d="M358.136,270.954l-24.318,-45.632l24.318,-45.632l24.318,45.632l-24.318,45.632Zm-15.611,-45.632l15.611,29.298l15.612,-29.298l-15.612,-29.298l-15.611,29.298Z" style="fill:#fff;fill-rule:nonzero;"/><path d="M397.765,270.954l-24.318,-45.632l24.318,-45.632l24.318,45.632l-24.318,45.632Zm-15.611,-45.632l15.611,29.298l15.612,-29.298l-15.612,-29.298l-15.611,29.298Z" style="fill:#fff;fill-rule:nonzero;"/><path d="M437.695,270.954l-24.318,-45.632l24.318,-45.632l24.318,45.632l-24.318,45.632Zm-15.612,-45.632l15.612,29.298l15.612,-29.298l-15.612,-29.298l-15.612,29.298Z" style="fill:#fff;fill-rule:nonzero;"/><path d="M477.625,270.954l-24.318,-45.632l24.318,-45.632l24.318,45.632l-24.318,45.632Zm-15.612,-45.632l15.612,29.298l15.611,-29.298l-15.611,-29.298l-15.612,29.298Z" style="fill:#fff;fill-rule:nonzero;"/><path d="M517.254,270.954l-24.318,-45.632l24.318,-45.632l24.318,45.632l-24.318,45.632Zm-15.612,-45.632l15.612,29.298l15.612,-29.298l-15.612,-29.298l-15.612,29.298Z" style="fill:#fff;fill-rule:nonzero;"/><path d="M557.184,270.954l-24.318,-45.632l24.318,-45.632l24.318,45.632l-24.318,45.632Zm-15.612,-45.632l15.612,29.298l15.611,-29.298l-15.611,-29.298l-15.612,29.298Z" style="fill:#fff;fill-rule:nonzero;"/><path d="M597.113,270.954l-24.318,-45.632l24.318,-45.632l24.318,45.632l-24.318,45.632Zm-15.611,-45.632l15.611,29.298l15.612,-29.298l-15.612,-29.298l-15.611,29.298Z" style="fill:#fff;fill-rule:nonzero;"/><path d="M636.743,270.954l-24.319,-45.632l24.319,-45.632l24.318,45.632l-24.318,45.632Zm-15.612,-45.632l15.612,29.298l15.611,-29.298l-15.611,-29.298l-15.612,29.298Z" style="fill:#fff;fill-rule:nonzero;"/><path d="M676.672,270.954l-24.318,-45.632l24.318,-45.632l24.318,45.632l-24.318,45.632Zm-15.611,-45.632l15.611,29.298l15.612,-29.298l-15.612,-29.298l-15.611,29.298Z" style="fill:#fff;fill-rule:nonzero;"/><path d="M716.602,270.954l-24.318,-45.632l24.318,-45.632l24.318,45.632l-24.318,45.632Zm-15.612,-45.632l15.612,29.298l15.611,-29.298l-15.611,-29.298l-15.612,29.298Z" style="fill:#fff;fill-rule:nonzero;"/><path d="M756.231,270.954l-24.318,-45.632l24.318,-45.632l24.318,45.632l-24.318,45.632Zm-15.612,-45.632l15.612,29.298l15.612,-29.298l-15.612,-29.298l-15.612,29.298Z" style="fill:#fff;fill-rule:nonzero;"/><path d="M-0.329,345.884l-24.318,-45.632l24.318,-45.632l24.318,45.632l-24.318,45.632Zm-15.612,-45.632l15.612,29.298l15.611,-29.298l-15.611,-29.298l-15.612,29.298Z" style="fill:#fff;fill-rule:nonzero;"/><path d="M39.6,345.884l-24.318,-45.632l24.318,-45.632l24.318,45.632l-24.318,45.632Zm-15.611,-45.632l15.611,29.298l15.612,-29.298l-15.612,-29.298l-15.611,29.298Z" style="fill:#fff;fill-rule:nonzero;"/><path d="M79.229,345.884l-24.318,-45.632l24.318,-45.632l24.318,45.632l-24.318,45.632Zm-15.611,-45.632l15.611,29.298l15.612,-29.298l-15.612,-29.298l-15.611,29.298Z" style="fill:#fff;fill-rule:nonzero;"/><path d="M119.159,345.884l-24.318,-45.632l24.318,-45.632l24.318,45.632l-24.318,45.632Zm-15.612,-45.632l15.612,29.298l15.612,-29.298l-15.612,-29.298l-15.612,29.298Z" style="fill:#fff;fill-rule:nonzero;"/><path d="M159.089,345.884l-24.318,-45.632l24.318,-45.632l24.318,45.632l-24.318,45.632Zm-15.612,-45.632l15.612,29.298l15.611,-29.298l-15.611,-29.298l-15.612,29.298Z" style="fill:#fff;fill-rule:nonzero;"/><path d="M198.718,345.884l-24.318,-45.632l24.318,-45.632l24.318,45.632l-24.318,45.632Zm-15.612,-45.632l15.612,29.298l15.612,-29.298l-15.612,-29.298l-15.612,29.298Z" style="fill:#fff;fill-rule:nonzero;"/><path d="M238.648,345.884l-24.318,-45.632l24.318,-45.632l24.318,45.632l-24.318,45.632Zm-15.612,-45.632l15.612,29.298l15.611,-29.298l-15.611,-29.298l-15.612,29.298Z" style="fill:#fff;fill-rule:nonzero;"/><path d="M278.277,345.884l-24.318,-45.632l24.318,-45.632l24.318,45.632l-24.318,45.632Zm-15.612,-45.632l15.612,29.298l15.612,-29.298l-15.612,-29.298l-15.612,29.298Z" style="fill:#fff;fill-rule:nonzero;"/><path d="M318.207,345.884l-24.318,-45.632l24.318,-45.632l24.318,45.632l-24.318,45.632Zm-15.612,-45.632l15.612,29.298l15.611,-29.298l-15.611,-29.298l-15.612,29.298Z" style="fill:#fff;fill-rule:nonzero;"/><path d="M358.136,345.884l-24.318,-45.632l24.318,-45.632l24.318,45.632l-24.318,45.632Zm-15.611,-45.632l15.611,29.298l15.612,-29.298l-15.612,-29.298l-15.611,29.298Z" style="fill:#fff;fill-rule:nonzero;"/><path d="M397.765,345.884l-24.318,-45.632l24.318,-45.632l24.318,45.632l-24.318,45.632Zm-15.611,-45.632l15.611,29.298l15.612,-29.298l-15.612,-29.298l-15.611,29.298Z" style="fill:#fff;fill-rule:nonzero;"/><path d="M437.695,345.884l-24.318,-45.632l24.318,-45.632l24.318,45.632l-24.318,45.632Zm-15.612,-45.632l15.612,29.298l15.612,-29.298l-15.612,-29.298l-15.612,29.298Z" style="fill:#fff;fill-rule:nonzero;"/><path d="M477.625,345.884l-24.318,-45.632l24.318,-45.632l24.318,45.632l-24.318,45.632Zm-15.612,-45.632l15.612,29.298l15.611,-29.298l-15.611,-29.298l-15.612,29.298Z" style="fill:#fff;fill-rule:nonzero;"/><path d="M517.254,345.884l-24.318,-45.632l24.318,-45.632l24.318,45.632l-24.318,45.632Zm-15.612,-45.632l15.612,29.298l15.612,-29.298l-15.612,-29.298l-15.612,29.298Z" style="fill:#fff;fill-rule:nonzero;"/><path d="M557.184,345.884l-24.318,-45.632l24.318,-45.632l24.318,45.632l-24.318,45.632Zm-15.612,-45.632l15.612,29.298l15.611,-29.298l-15.611,-29.298l-15.612,29.298Z" style="fill:#fff;fill-rule:nonzero;"/><path d="M597.113,345.884l-24.318,-45.632l24.318,-45.632l24.318,45.632l-24.318,45.632Zm-15.611,-45.632l15.611,29.298l15.612,-29.298l-15.612,-29.298l-15.611,29.298Z" style="fill:#fff;fill-rule:nonzero;"/><path d="M636.743,345.884l-24.319,-45.632l24.319,-45.632l24.318,45.632l-24.318,45.632Zm-15.612,-45.632l15.612,29.298l15.611,-29.298l-15.611,-29.298l-15.612,29.298Z" style="fill:#fff;fill-rule:nonzero;"/><path d="M676.672,345.884l-24.318,-45.632l24.318,-45.632l24.318,45.632l-24.318,45.632Zm-15.611,-45.632l15.611,29.298l15.612,-29.298l-15.612,-29.298l-15.611,29.298Z" style="fill:#fff;fill-rule:nonzero;"/><path d="M716.602,345.884l-24.318,-45.632l24.318,-45.632l24.318,45.632l-24.318,45.632Zm-15.612,-45.632l15.612,29.298l15.611,-29.298l-15.611,-29.298l-15.612,29.298Z" style="fill:#fff;fill-rule:nonzero;"/><path d="M756.231,345.884l-24.318,-45.632l24.318,-45.632l24.318,45.632l-24.318,45.632Zm-15.612,-45.632l15.612,29.298l15.612,-29.298l-15.612,-29.298l-15.612,29.298Z" style="fill:#fff;fill-rule:nonzero;"/><path d="M-0.329,421.073l-24.318,-45.632l24.318,-45.632l24.318,45.632l-24.318,45.632Zm-15.612,-45.632l15.612,29.298l15.611,-29.298l-15.611,-29.298l-15.612,29.298Z" style="fill:#fff;fill-rule:nonzero;"/><path d="M39.6,421.073l-24.318,-45.632l24.318,-45.632l24.318,45.632l-24.318,45.632Zm-15.611,-45.632l15.611,29.298l15.612,-29.298l-15.612,-29.298l-15.611,29.298Z" style="fill:#fff;fill-rule:nonzero;"/><path d="M79.229,421.073l-24.318,-45.632l24.318,-45.632l24.318,45.632l-24.318,45.632Zm-15.611,-45.632l15.611,29.298l15.612,-29.298l-15.612,-29.298l-15.611,29.298Z" style="fill:#fff;fill-rule:nonzero;"/><path d="M119.159,421.073l-24.318,-45.632l24.318,-45.632l24.318,45.632l-24.318,45.632Zm-15.612,-45.632l15.612,29.298l15.612,-29.298l-15.612,-29.298l-15.612,29.298Z" style="fill:#fff;fill-rule:nonzero;"/><path d="M159.089,421.073l-24.318,-45.632l24.318,-45.632l24.318,45.632l-24.318,45.632Zm-15.612,-45.632l15.612,29.298l15.611,-29.298l-15.611,-29.298l-15.612,29.298Z" style="fill:#fff;fill-rule:nonzero;"/><path d="M198.718,421.073l-24.318,-45.632l24.318,-45.632l24.318,45.632l-24.318,45.632Zm-15.612,-45.632l15.612,29.298l15.612,-29.298l-15.612,-29.298l-15.612,29.298Z" style="fill:#fff;fill-rule:nonzero;"/><path d="M238.648,421.073l-24.318,-45.632l24.318,-45.632l24.318,45.632l-24.318,45.632Zm-15.612,-45.632l15.612,29.298l15.611,-29.298l-15.611,-29.298l-15.612,29.298Z" style="fill:#fff;fill-rule:nonzero;"/><path d="M278.277,421.073l-24.318,-45.632l24.318,-45.632l24.318,45.632l-24.318,45.632Zm-15.612,-45.632l15.612,29.298l15.612,-29.298l-15.612,-29.298l-15.612,29.298Z" style="fill:#fff;fill-rule:nonzero;"/><path d="M318.207,421.073l-24.318,-45.632l24.318,-45.632l24.318,45.632l-24.318,45.632Zm-15.612,-45.632l15.612,29.298l15.611,-29.298l-15.611,-29.298l-15.612,29.298Z" style="fill:#fff;fill-rule:nonzero;"/><path d="M358.136,421.073l-24.318,-45.632l24.318,-45.632l24.318,45.632l-24.318,45.632Zm-15.611,-45.632l15.611,29.298l15.612,-29.298l-15.612,-29.298l-15.611,29.298Z" style="fill:#fff;fill-rule:nonzero;"/><path d="M397.765,421.073l-24.318,-45.632l24.318,-45.632l24.318,45.632l-24.318,45.632Zm-15.611,-45.632l15.611,29.298l15.612,-29.298l-15.612,-29.298l-15.611,29.298Z" style="fill:#fff;fill-rule:nonzero;"/><path d="M437.695,421.073l-24.318,-45.632l24.318,-45.632l24.318,45.632l-24.318,45.632Zm-15.612,-45.632l15.612,29.298l15.612,-29.298l-15.612,-29.298l-15.612,29.298Z" style="fill:#fff;fill-rule:nonzero;"/><path d="M477.625,421.073l-24.318,-45.632l24.318,-45.632l24.318,45.632l-24.318,45.632Zm-15.612,-45.632l15.612,29.298l15.611,-29.298l-15.611,-29.298l-15.612,29.298Z" style="fill:#fff;fill-rule:nonzero;"/><path d="M517.254,421.073l-24.318,-45.632l24.318,-45.632l24.318,45.632l-24.318,45.632Zm-15.612,-45.632l15.612,29.298l15.612,-29.298l-15.612,-29.298l-15.612,29.298Z" style="fill:#fff;fill-rule:nonzero;"/><path d="M557.184,421.073l-24.318,-45.632l24.318,-45.632l24.318,45.632l-24.318,45.632Zm-15.612,-45.632l15.612,29.298l15.611,-29.298l-15.611,-29.298l-15.612,29.298Z" style="fill:#fff;fill-rule:nonzero;"/><path d="M597.113,421.073l-24.318,-45.632l24.318,-45.632l24.318,45.632l-24.318,45.632Zm-15.611,-45.632l15.611,29.298l15.612,-29.298l-15.612,-29.298l-15.611,29.298Z" style="fill:#fff;fill-rule:nonzero;"/><path d="M636.743,421.073l-24.319,-45.632l24.319,-45.632l24.318,45.632l-24.318,45.632Zm-15.612,-45.632l15.612,29.298l15.611,-29.298l-15.611,-29.298l-15.612,29.298Z" style="fill:#fff;fill-rule:nonzero;"/><path d="M676.672,421.073l-24.318,-45.632l24.318,-45.632l24.318,45.632l-24.318,45.632Zm-15.611,-45.632l15.611,29.298l15.612,-29.298l-15.612,-29.298l-15.611,29.298Z" style="fill:#fff;fill-rule:nonzero;"/><path d="M716.602,421.073l-24.318,-45.632l24.318,-45.632l24.318,45.632l-24.318,45.632Zm-15.612,-45.632l15.612,29.298l15.611,-29.298l-15.611,-29.298l-15.612,29.298Z" style="fill:#fff;fill-rule:nonzero;"/><path d="M756.231,421.073l-24.318,-45.632l24.318,-45.632l24.318,45.632l-24.318,45.632Zm-15.612,-45.632l15.612,29.298l15.612,-29.298l-15.612,-29.298l-15.612,29.298Z" style="fill:#fff;fill-rule:nonzero;"/><path d="M-0.329,496.003l-24.318,-45.632l24.318,-45.632l24.318,45.632l-24.318,45.632Zm-15.612,-45.632l15.612,29.298l15.611,-29.298l-15.611,-29.298l-15.612,29.298Z" style="fill:#fff;fill-rule:nonzero;"/><path d="M39.6,496.003l-24.318,-45.632l24.318,-45.632l24.318,45.632l-24.318,45.632Zm-15.611,-45.632l15.611,29.298l15.612,-29.298l-15.612,-29.298l-15.611,29.298Z" style="fill:#fff;fill-rule:nonzero;"/><path d="M79.229,496.003l-24.318,-45.632l24.318,-45.632l24.318,45.632l-24.318,45.632Zm-15.611,-45.632l15.611,29.298l15.612,-29.298l-15.612,-29.298l-15.611,29.298Z" style="fill:#fff;fill-rule:nonzero;"/><path d="M119.159,496.003l-24.318,-45.632l24.318,-45.632l24.318,45.632l-24.318,45.632Zm-15.612,-45.632l15.612,29.298l15.612,-29.298l-15.612,-29.298l-15.612,29.298Z" style="fill:#fff;fill-rule:nonzero;"/><path d="M159.089,496.003l-24.318,-45.632l24.318,-45.632l24.318,45.632l-24.318,45.632Zm-15.612,-45.632l15.612,29.298l15.611,-29.298l-15.611,-29.298l-15.612,29.298Z" style="fill:#fff;fill-rule:nonzero;"/><path d="M198.718,496.003l-24.318,-45.632l24.318,-45.632l24.318,45.632l-24.318,45.632Zm-15.612,-45.632l15.612,29.298l15.612,-29.298l-15.612,-29.298l-15.612,29.298Z" style="fill:#fff;fill-rule:nonzero;"/><path d="M238.648,496.003l-24.318,-45.632l24.318,-45.632l24.318,45.632l-24.318,45.632Zm-15.612,-45.632l15.612,29.298l15.611,-29.298l-15.611,-29.298l-15.612,29.298Z" style="fill:#fff;fill-rule:nonzero;"/><path d="M278.277,496.003l-24.318,-45.632l24.318,-45.632l24.318,45.632l-24.318,45.632Zm-15.612,-45.632l15.612,29.298l15.612,-29.298l-15.612,-29.298l-15.612,29.298Z" style="fill:#fff;fill-rule:nonzero;"/><path d="M318.207,496.003l-24.318,-45.632l24.318,-45.632l24.318,45.632l-24.318,45.632Zm-15.612,-45.632l15.612,29.298l15.611,-29.298l-15.611,-29.298l-15.612,29.298Z" style="fill:#fff;fill-rule:nonzero;"/><path d="M358.136,496.003l-24.318,-45.632l24.318,-45.632l24.318,45.632l-24.318,45.632Zm-15.611,-45.632l15.611,29.298l15.612,-29.298l-15.612,-29.298l-15.611,29.298Z" style="fill:#fff;fill-rule:nonzero;"/><path d="M397.765,496.003l-24.318,-45.632l24.318,-45.632l24.318,45.632l-24.318,45.632Zm-15.611,-45.632l15.611,29.298l15.612,-29.298l-15.612,-29.298l-15.611,29.298Z" style="fill:#fff;fill-rule:nonzero;"/><path d="M437.695,496.003l-24.318,-45.632l24.318,-45.632l24.318,45.632l-24.318,45.632Zm-15.612,-45.632l15.612,29.298l15.612,-29.298l-15.612,-29.298l-15.612,29.298Z" style="fill:#fff;fill-rule:nonzero;"/><path d="M477.625,496.003l-24.318,-45.632l24.318,-45.632l24.318,45.632l-24.318,45.632Zm-15.612,-45.632l15.612,29.298l15.611,-29.298l-15.611,-29.298l-15.612,29.298Z" style="fill:#fff;fill-rule:nonzero;"/><path d="M517.254,496.003l-24.318,-45.632l24.318,-45.632l24.318,45.632l-24.318,45.632Zm-15.612,-45.632l15.612,29.298l15.612,-29.298l-15.612,-29.298l-15.612,29.298Z" style="fill:#fff;fill-rule:nonzero;"/><path d="M557.184,496.003l-24.318,-45.632l24.318,-45.632l24.318,45.632l-24.318,45.632Zm-15.612,-45.632l15.612,29.298l15.611,-29.298l-15.611,-29.298l-15.612,29.298Z" style="fill:#fff;fill-rule:nonzero;"/><path d="M597.113,496.003l-24.318,-45.632l24.318,-45.632l24.318,45.632l-24.318,45.632Zm-15.611,-45.632l15.611,29.298l15.612,-29.298l-15.612,-29.298l-15.611,29.298Z" style="fill:#fff;fill-rule:nonzero;"/><path d="M636.743,496.003l-24.319,-45.632l24.319,-45.632l24.318,45.632l-24.318,45.632Zm-15.612,-45.632l15.612,29.298l15.611,-29.298l-15.611,-29.298l-15.612,29.298Z" style="fill:#fff;fill-rule:nonzero;"/><path d="M676.672,496.003l-24.318,-45.632l24.318,-45.632l24.318,45.632l-24.318,45.632Zm-15.611,-45.632l15.611,29.298l15.612,-29.298l-15.612,-29.298l-15.611,29.298Z" style="fill:#fff;fill-rule:nonzero;"/><path d="M716.602,496.003l-24.318,-45.632l24.318,-45.632l24.318,45.632l-24.318,45.632Zm-15.612,-45.632l15.612,29.298l15.611,-29.298l-15.611,-29.298l-15.612,29.298Z" style="fill:#fff;fill-rule:nonzero;"/><path d="M756.231,496.003l-24.318,-45.632l24.318,-45.632l24.318,45.632l-24.318,45.632Zm-15.612,-45.632l15.612,29.298l15.612,-29.298l-15.612,-29.298l-15.612,29.298Z" style="fill:#fff;fill-rule:nonzero;"/><path d="M-0.329,570.933l-24.318,-45.632l24.318,-45.632l24.318,45.632l-24.318,45.632Zm-15.612,-45.632l15.612,29.298l15.611,-29.298l-15.611,-29.298l-15.612,29.298Z" style="fill:#fff;fill-rule:nonzero;"/><path d="M39.6,570.933l-24.318,-45.632l24.318,-45.632l24.318,45.632l-24.318,45.632Zm-15.611,-45.632l15.611,29.298l15.612,-29.298l-15.612,-29.298l-15.611,29.298Z" style="fill:#fff;fill-rule:nonzero;"/><path d="M79.229,570.933l-24.318,-45.632l24.318,-45.632l24.318,45.632l-24.318,45.632Zm-15.611,-45.632l15.611,29.298l15.612,-29.298l-15.612,-29.298l-15.611,29.298Z" style="fill:#fff;fill-rule:nonzero;"/><path d="M119.159,570.933l-24.318,-45.632l24.318,-45.632l24.318,45.632l-24.318,45.632Zm-15.612,-45.632l15.612,29.298l15.612,-29.298l-15.612,-29.298l-15.612,29.298Z" style="fill:#fff;fill-rule:nonzero;"/><path d="M159.089,570.933l-24.318,-45.632l24.318,-45.632l24.318,45.632l-24.318,45.632Zm-15.612,-45.632l15.612,29.298l15.611,-29.298l-15.611,-29.298l-15.612,29.298Z" style="fill:#fff;fill-rule:nonzero;"/><path d="M198.718,570.933l-24.318,-45.632l24.318,-45.632l24.318,45.632l-24.318,45.632Zm-15.612,-45.632l15.612,29.298l15.612,-29.298l-15.612,-29.298l-15.612,29.298Z" style="fill:#fff;fill-rule:nonzero;"/><path d="M238.648,570.933l-24.318,-45.632l24.318,-45.632l24.318,45.632l-24.318,45.632Zm-15.612,-45.632l15.612,29.298l15.611,-29.298l-15.611,-29.298l-15.612,29.298Z" style="fill:#fff;fill-rule:nonzero;"/><path d="M278.277,570.933l-24.318,-45.632l24.318,-45.632l24.318,45.632l-24.318,45.632Zm-15.612,-45.632l15.612,29.298l15.612,-29.298l-15.612,-29.298l-15.612,29.298Z" style="fill:#fff;fill-rule:nonzero;"/><path d="M318.207,570.933l-24.318,-45.632l24.318,-45.632l24.318,45.632l-24.318,45.632Zm-15.612,-45.632l15.612,29.298l15.611,-29.298l-15.611,-29.298l-15.612,29.298Z" style="fill:#fff;fill-rule:nonzero;"/><path d="M358.136,570.933l-24.318,-45.632l24.318,-45.632l24.318,45.632l-24.318,45.632Zm-15.611,-45.632l15.611,29.298l15.612,-29.298l-15.612,-29.298l-15.611,29.298Z" style="fill:#fff;fill-rule:nonzero;"/><path d="M397.765,570.933l-24.318,-45.632l24.318,-45.632l24.318,45.632l-24.318,45.632Zm-15.611,-45.632l15.611,29.298l15.612,-29.298l-15.612,-29.298l-15.611,29.298Z" style="fill:#fff;fill-rule:nonzero;"/><path d="M437.695,570.933l-24.318,-45.632l24.318,-45.632l24.318,45.632l-24.318,45.632Zm-15.612,-45.632l15.612,29.298l15.612,-29.298l-15.612,-29.298l-15.612,29.298Z" style="fill:#fff;fill-rule:nonzero;"/><path d="M477.625,570.933l-24.318,-45.632l24.318,-45.632l24.318,45.632l-24.318,45.632Zm-15.612,-45.632l15.612,29.298l15.611,-29.298l-15.611,-29.298l-15.612,29.298Z" style="fill:#fff;fill-rule:nonzero;"/><path d="M517.254,570.933l-24.318,-45.632l24.318,-45.632l24.318,45.632l-24.318,45.632Zm-15.612,-45.632l15.612,29.298l15.612,-29.298l-15.612,-29.298l-15.612,29.298Z" style="fill:#fff;fill-rule:nonzero;"/><path d="M557.184,570.933l-24.318,-45.632l24.318,-45.632l24.318,45.632l-24.318,45.632Zm-15.612,-45.632l15.612,29.298l15.611,-29.298l-15.611,-29.298l-15.612,29.298Z" style="fill:#fff;fill-rule:nonzero;"/><path d="M597.113,570.933l-24.318,-45.632l24.318,-45.632l24.318,45.632l-24.318,45.632Zm-15.611,-45.632l15.611,29.298l15.612,-29.298l-15.612,-29.298l-15.611,29.298Z" style="fill:#fff;fill-rule:nonzero;"/><path d="M636.743,570.933l-24.319,-45.632l24.319,-45.632l24.318,45.632l-24.318,45.632Zm-15.612,-45.632l15.612,29.298l15.611,-29.298l-15.611,-29.298l-15.612,29.298Z" style="fill:#fff;fill-rule:nonzero;"/><path d="M676.672,570.933l-24.318,-45.632l24.318,-45.632l24.318,45.632l-24.318,45.632Zm-15.611,-45.632l15.611,29.298l15.612,-29.298l-15.612,-29.298l-15.611,29.298Z" style="fill:#fff;fill-rule:nonzero;"/><path d="M716.602,570.933l-24.318,-45.632l24.318,-45.632l24.318,45.632l-24.318,45.632Zm-15.612,-45.632l15.612,29.298l15.611,-29.298l-15.611,-29.298l-15.612,29.298Z" style="fill:#fff;fill-rule:nonzero;"/><path d="M756.231,570.933l-24.318,-45.632l24.318,-45.632l24.318,45.632l-24.318,45.632Zm-15.612,-45.632l15.612,29.298l15.612,-29.298l-15.612,-29.298l-15.612,29.298Z" style="fill:#fff;fill-rule:nonzero;"/><path d="M-0.329,646.122l-24.318,-45.632l24.318,-45.632l24.318,45.632l-24.318,45.632Zm-15.612,-45.632l15.612,29.298l15.611,-29.298l-15.611,-29.298l-15.612,29.298Z" style="fill:#fff;fill-rule:nonzero;"/><path d="M39.6,646.122l-24.318,-45.632l24.318,-45.632l24.318,45.632l-24.318,45.632Zm-15.611,-45.632l15.611,29.298l15.612,-29.298l-15.612,-29.298l-15.611,29.298Z" style="fill:#fff;fill-rule:nonzero;"/><path d="M79.229,646.122l-24.318,-45.632l24.318,-45.632l24.318,45.632l-24.318,45.632Zm-15.611,-45.632l15.611,29.298l15.612,-29.298l-15.612,-29.298l-15.611,29.298Z" style="fill:#fff;fill-rule:nonzero;"/><path d="M119.159,646.122l-24.318,-45.632l24.318,-45.632l24.318,45.632l-24.318,45.632Zm-15.612,-45.632l15.612,29.298l15.612,-29.298l-15.612,-29.298l-15.612,29.298Z" style="fill:#fff;fill-rule:nonzero;"/><path d="M159.089,646.122l-24.318,-45.632l24.318,-45.632l24.318,45.632l-24.318,45.632Zm-15.612,-45.632l15.612,29.298l15.611,-29.298l-15.611,-29.298l-15.612,29.298Z" style="fill:#fff;fill-rule:nonzero;"/><path d="M198.718,646.122l-24.318,-45.632l24.318,-45.632l24.318,45.632l-24.318,45.632Zm-15.612,-45.632l15.612,29.298l15.612,-29.298l-15.612,-29.298l-15.612,29.298Z" style="fill:#fff;fill-rule:nonzero;"/><path d="M238.648,646.122l-24.318,-45.632l24.318,-45.632l24.318,45.632l-24.318,45.632Zm-15.612,-45.632l15.612,29.298l15.611,-29.298l-15.611,-29.298l-15.612,29.298Z" style="fill:#fff;fill-rule:nonzero;"/><path d="M278.277,646.122l-24.318,-45.632l24.318,-45.632l24.318,45.632l-24.318,45.632Zm-15.612,-45.632l15.612,29.298l15.612,-29.298l-15.612,-29.298l-15.612,29.298Z" style="fill:#fff;fill-rule:nonzero;"/><path d="M318.207,646.122l-24.318,-45.632l24.318,-45.632l24.318,45.632l-24.318,45.632Zm-15.612,-45.632l15.612,29.298l15.611,-29.298l-15.611,-29.298l-15.612,29.298Z" style="fill:#fff;fill-rule:nonzero;"/><path d="M358.136,646.122l-24.318,-45.632l24.318,-45.632l24.318,45.632l-24.318,45.632Zm-15.611,-45.632l15.611,29.298l15.612,-29.298l-15.612,-29.298l-15.611,29.298Z" style="fill:#fff;fill-rule:nonzero;"/><path d="M397.765,646.122l-24.318,-45.632l24.318,-45.632l24.318,45.632l-24.318,45.632Zm-15.611,-45.632l15.611,29.298l15.612,-29.298l-15.612,-29.298l-15.611,29.298Z" style="fill:#fff;fill-rule:nonzero;"/><path d="M437.695,646.122l-24.318,-45.632l24.318,-45.632l24.318,45.632l-24.318,45.632Zm-15.612,-45.632l15.612,29.298l15.612,-29.298l-15.612,-29.298l-15.612,29.298Z" style="fill:#fff;fill-rule:nonzero;"/><path d="M477.625,646.122l-24.318,-45.632l24.318,-45.632l24.318,45.632l-24.318,45.632Zm-15.612,-45.632l15.612,29.298l15.611,-29.298l-15.611,-29.298l-15.612,29.298Z" style="fill:#fff;fill-rule:nonzero;"/><path d="M517.254,646.122l-24.318,-45.632l24.318,-45.632l24.318,45.632l-24.318,45.632Zm-15.612,-45.632l15.612,29.298l15.612,-29.298l-15.612,-29.298l-15.612,29.298Z" style="fill:#fff;fill-rule:nonzero;"/><path d="M557.184,646.122l-24.318,-45.632l24.318,-45.632l24.318,45.632l-24.318,45.632Zm-15.612,-45.632l15.612,29.298l15.611,-29.298l-15.611,-29.298l-15.612,29.298Z" style="fill:#fff;fill-rule:nonzero;"/><path d="M597.113,646.122l-24.318,-45.632l24.318,-45.632l24.318,45.632l-24.318,45.632Zm-15.611,-45.632l15.611,29.298l15.612,-29.298l-15.612,-29.298l-15.611,29.298Z" style="fill:#fff;fill-rule:nonzero;"/><path d="M636.743,646.122l-24.319,-45.632l24.319,-45.632l24.318,45.632l-24.318,45.632Zm-15.612,-45.632l15.612,29.298l15.611,-29.298l-15.611,-29.298l-15.612,29.298Z" style="fill:#fff;fill-rule:nonzero;"/><path d="M676.672,646.122l-24.318,-45.632l24.318,-45.632l24.318,45.632l-24.318,45.632Zm-15.611,-45.632l15.611,29.298l15.612,-29.298l-15.612,-29.298l-15.611,29.298Z" style="fill:#fff;fill-rule:nonzero;"/><path d="M716.602,646.122l-24.318,-45.632l24.318,-45.632l24.318,45.632l-24.318,45.632Zm-15.612,-45.632l15.612,29.298l15.611,-29.298l-15.611,-29.298l-15.612,29.298Z" style="fill:#fff;fill-rule:nonzero;"/><path d="M756.231,646.122l-24.318,-45.632l24.318,-45.632l24.318,45.632l-24.318,45.632Zm-15.612,-45.632l15.612,29.298l15.612,-29.298l-15.612,-29.298l-15.612,29.298Z" style="fill:#fff;fill-rule:nonzero;"/><path d="M-0.329,721.052l-24.318,-45.632l24.318,-45.632l24.318,45.632l-24.318,45.632Zm-15.612,-45.632l15.612,29.297l15.611,-29.297l-15.611,-29.298l-15.612,29.298Z" style="fill:#fff;fill-rule:nonzero;"/><path d="M39.6,721.052l-24.318,-45.632l24.318,-45.632l24.318,45.632l-24.318,45.632Zm-15.611,-45.632l15.611,29.297l15.612,-29.297l-15.612,-29.298l-15.611,29.298Z" style="fill:#fff;fill-rule:nonzero;"/><path d="M79.229,721.052l-24.017,-45.632l24.318,-45.632l24.318,45.632l-24.619,45.632Zm-15.611,-45.632l15.611,29.297l15.612,-29.297l-15.612,-29.298l-15.611,29.298Z" style="fill:#fff;fill-rule:nonzero;"/><path d="M119.159,721.052l-24.318,-45.632l24.318,-45.632l24.318,45.632l-24.318,45.632Zm-15.612,-45.632l15.612,29.297l15.612,-29.297l-15.612,-29.298l-15.612,29.298Z" style="fill:#fff;fill-rule:nonzero;"/><path d="M159.089,721.052l-24.318,-45.632l24.318,-45.632l24.318,45.632l-24.318,45.632Zm-15.612,-45.632l15.612,29.297l15.611,-29.297l-15.611,-29.298l-15.612,29.298Z" style="fill:#fff;fill-rule:nonzero;"/><path d="M198.718,721.052l-24.318,-45.632l24.318,-45.632l24.318,45.632l-24.318,45.632Zm-15.612,-45.632l15.612,29.297l15.612,-29.297l-15.612,-29.298l-15.612,29.298Z" style="fill:#fff;fill-rule:nonzero;"/><path d="M238.648,721.052l-24.318,-45.632l24.318,-45.632l24.318,45.632l-24.318,45.632Zm-15.612,-45.632l15.612,29.297l15.611,-29.297l-15.611,-29.298l-15.612,29.298Z" style="fill:#fff;fill-rule:nonzero;"/><path d="M278.277,721.052l-24.318,-45.632l24.318,-45.632l24.318,45.632l-24.318,45.632Zm-15.612,-45.632l15.612,29.297l15.612,-29.297l-15.612,-29.298l-15.612,29.298Z" style="fill:#fff;fill-rule:nonzero;"/><path d="M318.207,721.052l-24.318,-45.632l24.318,-45.632l24.318,45.632l-24.318,45.632Zm-15.612,-45.632l15.612,29.297l15.611,-29.297l-15.611,-29.298l-15.612,29.298Z" style="fill:#fff;fill-rule:nonzero;"/><path d="M358.136,721.052l-24.318,-45.632l24.318,-45.632l24.318,45.632l-24.318,45.632Zm-15.611,-45.632l15.611,29.297l15.612,-29.297l-15.612,-29.298l-15.611,29.298Z" style="fill:#fff;fill-rule:nonzero;"/><path d="M397.765,721.052l-24.318,-45.632l24.318,-45.632l24.318,45.632l-24.318,45.632Zm-15.611,-45.632l15.611,29.297l15.612,-29.297l-15.612,-29.298l-15.611,29.298Z" style="fill:#fff;fill-rule:nonzero;"/><path d="M437.695,721.052l-24.318,-45.632l24.318,-45.632l24.318,45.632l-24.318,45.632Zm-15.612,-45.632l15.612,29.297l15.612,-29.297l-15.612,-29.298l-15.612,29.298Z" style="fill:#fff;fill-rule:nonzero;"/><path d="M477.625,721.052l-24.318,-45.632l24.318,-45.632l24.318,45.632l-24.318,45.632Zm-15.612,-45.632l15.612,29.297l15.611,-29.297l-15.611,-29.298l-15.612,29.298Z" style="fill:#fff;fill-rule:nonzero;"/><path d="M517.254,721.052l-24.318,-45.632l24.318,-45.632l24.318,45.632l-24.318,45.632Zm-15.612,-45.632l15.612,29.297l15.612,-29.297l-15.612,-29.298l-15.612,29.298Z" style="fill:#fff;fill-rule:nonzero;"/><path d="M557.184,721.052l-24.318,-45.632l24.318,-45.632l24.318,45.632l-24.318,45.632Zm-15.612,-45.632l15.612,29.297l15.611,-29.297l-15.611,-29.298l-15.612,29.298Z" style="fill:#fff;fill-rule:nonzero;"/><path d="M597.113,721.052l-24.318,-45.632l24.318,-45.632l24.318,45.632l-24.318,45.632Zm-15.611,-45.632l15.611,29.297l15.612,-29.297l-15.612,-29.298l-15.611,29.298Z" style="fill:#fff;fill-rule:nonzero;"/><path d="M636.743,721.052l-24.319,-45.632l24.319,-45.632l24.318,45.632l-24.318,45.632Zm-15.612,-45.632l15.612,29.297l15.611,-29.297l-15.611,-29.298l-15.612,29.298Z" style="fill:#fff;fill-rule:nonzero;"/><path d="M676.672,721.052l-24.318,-45.632l24.318,-45.632l24.318,45.632l-24.318,45.632Zm-15.611,-45.632l15.611,29.297l15.612,-29.297l-15.612,-29.298l-15.611,29.298Z" style="fill:#fff;fill-rule:nonzero;"/><path d="M716.602,721.052l-24.318,-45.632l24.318,-45.632l24.318,45.632l-24.318,45.632Zm-15.612,-45.632l15.612,29.297l15.611,-29.297l-15.611,-29.298l-15.612,29.298Z" style="fill:#fff;fill-rule:nonzero;"/><path d="M756.231,721.052l-24.318,-45.632l24.318,-45.632l24.318,45.632l-24.318,45.632Zm-15.612,-45.632l15.612,29.297l15.612,-29.297l-15.612,-29.298l-15.612,29.298Z" style="fill:#fff;fill-rule:nonzero;"/><path d="M-0.329,795.982l-24.318,-45.633l24.318,-45.632l24.318,45.632l-24.318,45.633Zm-15.612,-45.633l15.612,29.298l15.611,-29.298l-15.611,-29.297l-15.612,29.297Z" style="fill:#fff;fill-rule:nonzero;"/><path d="M39.6,795.982l-24.318,-45.633l24.318,-45.632l24.318,45.632l-24.318,45.633Zm-15.611,-45.633l15.611,29.298l15.612,-29.298l-15.612,-29.297l-15.611,29.297Z" style="fill:#fff;fill-rule:nonzero;"/><path d="M79.229,795.982l-24.318,-45.633l24.318,-45.632l24.318,45.632l-24.318,45.633Zm-15.611,-45.633l15.611,29.298l15.612,-29.298l-15.612,-29.297l-15.611,29.297Z" style="fill:#fff;fill-rule:nonzero;"/><path d="M119.159,795.982l-24.318,-45.633l24.318,-45.632l24.318,45.632l-24.318,45.633Zm-15.612,-45.633l15.612,29.298l15.612,-29.298l-15.612,-29.297l-15.612,29.297Z" style="fill:#fff;fill-rule:nonzero;"/><path d="M159.089,795.982l-24.318,-45.633l24.318,-45.632l24.318,45.632l-24.318,45.633Zm-15.612,-45.633l15.612,29.298l15.611,-29.298l-15.611,-29.297l-15.612,29.297Z" style="fill:#fff;fill-rule:nonzero;"/><path d="M198.718,795.982l-24.318,-45.633l24.318,-45.632l24.318,45.632l-24.318,45.633Zm-15.612,-45.633l15.612,29.298l15.612,-29.298l-15.612,-29.297l-15.612,29.297Z" style="fill:#fff;fill-rule:nonzero;"/><path d="M238.648,795.982l-24.318,-45.633l24.318,-45.632l24.318,45.632l-24.318,45.633Zm-15.612,-45.633l15.612,29.298l15.611,-29.298l-15.611,-29.297l-15.612,29.297Z" style="fill:#fff;fill-rule:nonzero;"/><path d="M278.277,795.982l-24.318,-45.633l24.318,-45.632l24.318,45.632l-24.318,45.633Zm-15.612,-45.633l15.612,29.298l15.612,-29.298l-15.612,-29.297l-15.612,29.297Z" style="fill:#fff;fill-rule:nonzero;"/><path d="M318.207,795.982l-24.318,-45.633l24.318,-45.632l24.318,45.632l-24.318,45.633Zm-15.612,-45.633l15.612,29.298l15.611,-29.298l-15.611,-29.297l-15.612,29.297Z" style="fill:#fff;fill-rule:nonzero;"/><path d="M358.136,795.982l-24.318,-45.633l24.318,-45.632l24.318,45.632l-24.318,45.633Zm-15.611,-45.633l15.611,29.298l15.612,-29.298l-15.612,-29.297l-15.611,29.297Z" style="fill:#fff;fill-rule:nonzero;"/><path d="M397.765,795.982l-24.318,-45.633l24.318,-45.632l24.318,45.632l-24.318,45.633Zm-15.611,-45.633l15.611,29.298l15.612,-29.298l-15.612,-29.297l-15.611,29.297Z" style="fill:#fff;fill-rule:nonzero;"/><path d="M437.695,795.982l-24.318,-45.633l24.318,-45.632l24.318,45.632l-24.318,45.633Zm-15.612,-45.633l15.612,29.298l15.612,-29.298l-15.612,-29.297l-15.612,29.297Z" style="fill:#fff;fill-rule:nonzero;"/><path d="M477.625,795.982l-24.318,-45.633l24.318,-45.632l24.318,45.632l-24.318,45.633Zm-15.612,-45.633l15.612,29.298l15.611,-29.298l-15.611,-29.297l-15.612,29.297Z" style="fill:#fff;fill-rule:nonzero;"/><path d="M517.254,795.982l-24.318,-45.633l24.318,-45.632l24.318,45.632l-24.318,45.633Zm-15.612,-45.633l15.612,29.298l15.612,-29.298l-15.612,-29.297l-15.612,29.297Z" style="fill:#fff;fill-rule:nonzero;"/><path d="M557.184,795.982l-24.318,-45.633l24.318,-45.632l24.318,45.632l-24.318,45.633Zm-15.612,-45.633l15.612,29.298l15.611,-29.298l-15.611,-29.297l-15.612,29.297Z" style="fill:#fff;fill-rule:nonzero;"/><path d="M597.113,795.982l-24.318,-45.633l24.318,-45.632l24.318,45.632l-24.318,45.633Zm-15.611,-45.633l15.611,29.298l15.612,-29.298l-15.612,-29.297l-15.611,29.297Z" style="fill:#fff;fill-rule:nonzero;"/><path d="M636.743,795.982l-24.319,-45.633l24.319,-45.632l24.318,45.632l-24.318,45.633Zm-15.612,-45.633l15.612,29.298l15.611,-29.298l-15.611,-29.297l-15.612,29.297Z" style="fill:#fff;fill-rule:nonzero;"/><path d="M676.672,795.982l-24.318,-45.633l24.318,-45.632l24.318,45.632l-24.318,45.633Zm-15.611,-45.633l15.611,29.298l15.612,-29.298l-15.612,-29.297l-15.611,29.297Z" style="fill:#fff;fill-rule:nonzero;"/><path d="M716.602,795.982l-24.318,-45.633l24.318,-45.632l24.318,45.632l-24.318,45.633Zm-15.612,-45.633l15.612,29.298l15.611,-29.298l-15.611,-29.297l-15.612,29.297Z" style="fill:#fff;fill-rule:nonzero;"/><path d="M756.231,795.982l-24.318,-45.633l24.318,-45.632l24.318,45.632l-24.318,45.633Zm-15.612,-45.633l15.612,29.298l15.612,-29.298l-15.612,-29.297l-15.612,29.297Z" style="fill:#fff;fill-rule:nonzero;"/><path d="M-0.329,871.171l-24.318,-45.632l24.318,-45.632l24.318,45.632l-24.318,45.632Zm-15.612,-45.632l15.612,29.297l15.611,-29.297l-15.611,-29.298l-15.612,29.298Z" style="fill:#fff;fill-rule:nonzero;"/><path d="M39.6,871.171l-24.318,-45.632l24.318,-45.632l24.318,45.632l-24.318,45.632Zm-15.611,-45.632l15.611,29.297l15.612,-29.297l-15.612,-29.298l-15.611,29.298Z" style="fill:#fff;fill-rule:nonzero;"/><path d="M79.229,871.171l-24.318,-45.632l24.318,-45.632l24.318,45.632l-24.318,45.632Zm-15.611,-45.632l15.611,29.297l15.612,-29.297l-15.612,-29.298l-15.611,29.298Z" style="fill:#fff;fill-rule:nonzero;"/><path d="M119.159,871.171l-24.318,-45.632l24.318,-45.632l24.318,45.632l-24.318,45.632Zm-15.612,-45.632l15.612,29.297l15.612,-29.297l-15.612,-29.298l-15.612,29.298Z" style="fill:#fff;fill-rule:nonzero;"/><path d="M159.089,871.171l-24.318,-45.632l24.318,-45.632l24.318,45.632l-24.318,45.632Zm-15.612,-45.632l15.612,29.297l15.611,-29.297l-15.611,-29.298l-15.612,29.298Z" style="fill:#fff;fill-rule:nonzero;"/><path d="M198.718,871.171l-24.318,-45.632l24.318,-45.632l24.318,45.632l-24.318,45.632Zm-15.612,-45.632l15.612,29.297l15.612,-29.297l-15.612,-29.298l-15.612,29.298Z" style="fill:#fff;fill-rule:nonzero;"/><path d="M238.648,871.171l-24.318,-45.632l24.318,-45.632l24.318,45.632l-24.318,45.632Zm-15.612,-45.632l15.612,29.297l15.611,-29.297l-15.611,-29.298l-15.612,29.298Z" style="fill:#fff;fill-rule:nonzero;"/><path d="M278.277,871.171l-24.318,-45.632l24.318,-45.632l24.318,45.632l-24.318,45.632Zm-15.612,-45.632l15.612,29.297l15.612,-29.297l-15.612,-29.298l-15.612,29.298Z" style="fill:#fff;fill-rule:nonzero;"/><path d="M318.207,871.171l-24.318,-45.632l24.318,-45.632l24.318,45.632l-24.318,45.632Zm-15.612,-45.632l15.612,29.297l15.611,-29.297l-15.611,-29.298l-15.612,29.298Z" style="fill:#fff;fill-rule:nonzero;"/><path d="M358.136,871.171l-24.318,-45.632l24.318,-45.632l24.318,45.632l-24.318,45.632Zm-15.611,-45.632l15.611,29.297l15.612,-29.297l-15.612,-29.298l-15.611,29.298Z" style="fill:#fff;fill-rule:nonzero;"/><path d="M397.765,871.171l-24.318,-45.632l24.318,-45.632l24.318,45.632l-24.318,45.632Zm-15.611,-45.632l15.611,29.297l15.612,-29.297l-15.612,-29.298l-15.611,29.298Z" style="fill:#fff;fill-rule:nonzero;"/><path d="M437.695,871.171l-24.318,-45.632l24.318,-45.632l24.318,45.632l-24.318,45.632Zm-15.612,-45.632l15.612,29.297l15.612,-29.297l-15.612,-29.298l-15.612,29.298Z" style="fill:#fff;fill-rule:nonzero;"/><path d="M477.625,871.171l-24.318,-45.632l24.318,-45.632l24.318,45.632l-24.318,45.632Zm-15.612,-45.632l15.612,29.297l15.611,-29.297l-15.611,-29.298l-15.612,29.298Z" style="fill:#fff;fill-rule:nonzero;"/><path d="M517.254,871.171l-24.318,-45.632l24.318,-45.632l24.318,45.632l-24.318,45.632Zm-15.612,-45.632l15.612,29.297l15.612,-29.297l-15.612,-29.298l-15.612,29.298Z" style="fill:#fff;fill-rule:nonzero;"/><path d="M557.184,871.171l-24.318,-45.632l24.318,-45.632l24.318,45.632l-24.318,45.632Zm-15.612,-45.632l15.612,29.297l15.611,-29.297l-15.611,-29.298l-15.612,29.298Z" style="fill:#fff;fill-rule:nonzero;"/><path d="M597.113,871.171l-24.318,-45.632l24.318,-45.632l24.318,45.632l-24.318,45.632Zm-15.611,-45.632l15.611,29.297l15.612,-29.297l-15.612,-29.298l-15.611,29.298Z" style="fill:#fff;fill-rule:nonzero;"/><path d="M636.743,871.171l-24.319,-45.632l24.319,-45.632l24.318,45.632l-24.318,45.632Zm-15.612,-45.632l15.612,29.297l15.611,-29.297l-15.611,-29.298l-15.612,29.298Z" style="fill:#fff;fill-rule:nonzero;"/><path d="M676.672,871.171l-24.318,-45.632l24.318,-45.632l24.318,45.632l-24.318,45.632Zm-15.611,-45.632l15.611,29.297l15.612,-29.297l-15.612,-29.298l-15.611,29.298Z" style="fill:#fff;fill-rule:nonzero;"/><path d="M716.602,871.171l-24.318,-45.632l24.318,-45.632l24.318,45.632l-24.318,45.632Zm-15.612,-45.632l15.612,29.297l15.611,-29.297l-15.611,-29.298l-15.612,29.298Z" style="fill:#fff;fill-rule:nonzero;"/><path d="M756.231,871.171l-24.318,-45.632l24.318,-45.632l24.318,45.632l-24.318,45.632Zm-15.612,-45.632l15.612,29.297l15.612,-29.297l-15.612,-29.298l-15.612,29.298Z" style="fill:#fff;fill-rule:nonzero;"/><path d="M-0.329,946.1l-24.318,-45.632l24.318,-45.632l24.318,45.632l-24.318,45.632Zm-15.612,-45.632l15.612,29.298l15.611,-29.298l-15.611,-29.297l-15.612,29.297Z" style="fill:#fff;fill-rule:nonzero;"/><path d="M39.6,946.1l-24.318,-45.632l24.318,-45.632l24.318,45.632l-24.318,45.632Zm-15.611,-45.632l15.611,29.298l15.612,-29.298l-15.612,-29.297l-15.611,29.297Z" style="fill:#fff;fill-rule:nonzero;"/><path d="M79.229,946.1l-24.318,-45.632l24.318,-45.632l24.318,45.632l-24.318,45.632Zm-15.611,-45.632l15.611,29.298l15.612,-29.298l-15.612,-29.297l-15.611,29.297Z" style="fill:#fff;fill-rule:nonzero;"/><path d="M119.159,946.1l-24.318,-45.632l24.318,-45.632l24.318,45.632l-24.318,45.632Zm-15.612,-45.632l15.612,29.298l15.612,-29.298l-15.612,-29.297l-15.612,29.297Z" style="fill:#fff;fill-rule:nonzero;"/><path d="M159.089,946.1l-24.318,-45.632l24.318,-45.632l24.318,45.632l-24.318,45.632Zm-15.612,-45.632l15.612,29.298l15.611,-29.298l-15.611,-29.297l-15.612,29.297Z" style="fill:#fff;fill-rule:nonzero;"/><path d="M198.718,946.1l-24.318,-45.632l24.318,-45.632l24.318,45.632l-24.318,45.632Zm-15.612,-45.632l15.612,29.298l15.612,-29.298l-15.612,-29.297l-15.612,29.297Z" style="fill:#fff;fill-rule:nonzero;"/><path d="M238.648,946.1l-24.318,-45.632l24.318,-45.632l24.318,45.632l-24.318,45.632Zm-15.612,-45.632l15.612,29.298l15.611,-29.298l-15.611,-29.297l-15.612,29.297Z" style="fill:#fff;fill-rule:nonzero;"/><path d="M278.277,946.1l-24.318,-45.632l24.318,-45.632l24.318,45.632l-24.318,45.632Zm-15.612,-45.632l15.612,29.298l15.612,-29.298l-15.612,-29.297l-15.612,29.297Z" style="fill:#fff;fill-rule:nonzero;"/><path d="M318.207,946.1l-24.318,-45.632l24.318,-45.632l24.318,45.632l-24.318,45.632Zm-15.612,-45.632l15.612,29.298l15.611,-29.298l-15.611,-29.297l-15.612,29.297Z" style="fill:#fff;fill-rule:nonzero;"/><path d="M358.136,946.1l-24.318,-45.632l24.318,-45.632l24.318,45.632l-24.318,45.632Zm-15.611,-45.632l15.611,29.298l15.612,-29.298l-15.612,-29.297l-15.611,29.297Z" style="fill:#fff;fill-rule:nonzero;"/><path d="M397.765,946.1l-24.318,-45.632l24.318,-45.632l24.318,45.632l-24.318,45.632Zm-15.611,-45.632l15.611,29.298l15.612,-29.298l-15.612,-29.297l-15.611,29.297Z" style="fill:#fff;fill-rule:nonzero;"/><path d="M437.695,946.1l-24.318,-45.632l24.318,-45.632l24.318,45.632l-24.318,45.632Zm-15.612,-45.632l15.612,29.298l15.612,-29.298l-15.612,-29.297l-15.612,29.297Z" style="fill:#fff;fill-rule:nonzero;"/><path d="M477.625,946.1l-24.318,-45.632l24.318,-45.632l24.318,45.632l-24.318,45.632Zm-15.612,-45.632l15.612,29.298l15.611,-29.298l-15.611,-29.297l-15.612,29.297Z" style="fill:#fff;fill-rule:nonzero;"/><path d="M517.254,946.1l-24.318,-45.632l24.318,-45.632l24.318,45.632l-24.318,45.632Zm-15.612,-45.632l15.612,29.298l15.612,-29.298l-15.612,-29.297l-15.612,29.297Z" style="fill:#fff;fill-rule:nonzero;"/><path d="M557.184,946.1l-24.318,-45.632l24.318,-45.632l24.318,45.632l-24.318,45.632Zm-15.612,-45.632l15.612,29.298l15.611,-29.298l-15.611,-29.297l-15.612,29.297Z" style="fill:#fff;fill-rule:nonzero;"/><path d="M597.113,946.1l-24.318,-45.632l24.318,-45.632l24.318,45.632l-24.318,45.632Zm-15.611,-45.632l15.611,29.298l15.612,-29.298l-15.612,-29.297l-15.611,29.297Z" style="fill:#fff;fill-rule:nonzero;"/><path d="M636.743,946.1l-24.319,-45.632l24.319,-45.632l24.318,45.632l-24.318,45.632Zm-15.612,-45.632l15.612,29.298l15.611,-29.298l-15.611,-29.297l-15.612,29.297Z" style="fill:#fff;fill-rule:nonzero;"/><path d="M676.672,946.1l-24.318,-45.632l24.318,-45.632l24.318,45.632l-24.318,45.632Zm-15.611,-45.632l15.611,29.298l15.612,-29.298l-15.612,-29.297l-15.611,29.297Z" style="fill:#fff;fill-rule:nonzero;"/><path d="M716.602,946.1l-24.318,-45.632l24.318,-45.632l24.318,45.632l-24.318,45.632Zm-15.612,-45.632l15.612,29.298l15.611,-29.298l-15.611,-29.297l-15.612,29.297Z" style="fill:#fff;fill-rule:nonzero;"/><path d="M756.231,946.1l-24.318,-45.632l24.318,-45.632l24.318,45.632l-24.318,45.632Zm-15.612,-45.632l15.612,29.298l15.612,-29.298l-15.612,-29.297l-15.612,29.297Z" style="fill:#fff;fill-rule:nonzero;"/><path d="M-0.329,1021.03l-24.318,-45.632l24.318,-45.632l24.318,45.632l-24.318,45.632Zm-15.612,-45.632l15.612,29.298l15.611,-29.298l-15.611,-29.298l-15.612,29.298Z" style="fill:#fff;fill-rule:nonzero;"/><path d="M39.6,1021.03l-24.318,-45.632l24.318,-45.632l24.318,45.632l-24.318,45.632Zm-15.611,-45.632l15.611,29.298l15.612,-29.298l-15.612,-29.298l-15.611,29.298Z" style="fill:#fff;fill-rule:nonzero;"/><path d="M79.229,1021.03l-24.318,-45.632l24.318,-45.632l24.318,45.632l-24.318,45.632Zm-15.611,-45.632l15.611,29.298l15.612,-29.298l-15.612,-29.298l-15.611,29.298Z" style="fill:#fff;fill-rule:nonzero;"/><path d="M119.159,1021.03l-24.318,-45.632l24.318,-45.632l24.318,45.632l-24.318,45.632Zm-15.612,-45.632l15.612,29.298l15.612,-29.298l-15.612,-29.298l-15.612,29.298Z" style="fill:#fff;fill-rule:nonzero;"/><path d="M159.089,1021.03l-24.318,-45.632l24.318,-45.632l24.318,45.632l-24.318,45.632Zm-15.612,-45.632l15.612,29.298l15.611,-29.298l-15.611,-29.298l-15.612,29.298Z" style="fill:#fff;fill-rule:nonzero;"/><path d="M198.718,1021.03l-24.318,-45.632l24.318,-45.632l24.318,45.632l-24.318,45.632Zm-15.612,-45.632l15.612,29.298l15.612,-29.298l-15.612,-29.298l-15.612,29.298Z" style="fill:#fff;fill-rule:nonzero;"/><path d="M238.648,1021.03l-24.318,-45.632l24.318,-45.632l24.318,45.632l-24.318,45.632Zm-15.612,-45.632l15.612,29.298l15.611,-29.298l-15.611,-29.298l-15.612,29.298Z" style="fill:#fff;fill-rule:nonzero;"/><path d="M278.277,1021.03l-24.318,-45.632l24.318,-45.632l24.318,45.632l-24.318,45.632Zm-15.612,-45.632l15.612,29.298l15.612,-29.298l-15.612,-29.298l-15.612,29.298Z" style="fill:#fff;fill-rule:nonzero;"/><path d="M318.207,1021.03l-24.318,-45.632l24.318,-45.632l24.318,45.632l-24.318,45.632Zm-15.612,-45.632l15.612,29.298l15.611,-29.298l-15.611,-29.298l-15.612,29.298Z" style="fill:#fff;fill-rule:nonzero;"/><path d="M358.136,1021.03l-24.318,-45.632l24.318,-45.632l24.318,45.632l-24.318,45.632Zm-15.611,-45.632l15.611,29.298l15.612,-29.298l-15.612,-29.298l-15.611,29.298Z" style="fill:#fff;fill-rule:nonzero;"/><path d="M397.765,1021.03l-24.318,-45.632l24.318,-45.632l24.318,45.632l-24.318,45.632Zm-15.611,-45.632l15.611,29.298l15.612,-29.298l-15.612,-29.298l-15.611,29.298Z" style="fill:#fff;fill-rule:nonzero;"/><path d="M437.695,1021.03l-24.318,-45.632l24.318,-45.632l24.318,45.632l-24.318,45.632Zm-15.612,-45.632l15.612,29.298l15.612,-29.298l-15.612,-29.298l-15.612,29.298Z" style="fill:#fff;fill-rule:nonzero;"/><path d="M477.625,1021.03l-24.318,-45.632l24.318,-45.632l24.318,45.632l-24.318,45.632Zm-15.612,-45.632l15.612,29.298l15.611,-29.298l-15.611,-29.298l-15.612,29.298Z" style="fill:#fff;fill-rule:nonzero;"/><path d="M517.254,1021.03l-24.318,-45.632l24.318,-45.632l24.318,45.632l-24.318,45.632Zm-15.612,-45.632l15.612,29.298l15.612,-29.298l-15.612,-29.298l-15.612,29.298Z" style="fill:#fff;fill-rule:nonzero;"/><path d="M557.184,1021.03l-24.318,-45.632l24.318,-45.632l24.318,45.632l-24.318,45.632Zm-15.612,-45.632l15.612,29.298l15.611,-29.298l-15.611,-29.298l-15.612,29.298Z" style="fill:#fff;fill-rule:nonzero;"/><path d="M597.113,1021.03l-24.318,-45.632l24.318,-45.632l24.318,45.632l-24.318,45.632Zm-15.611,-45.632l15.611,29.298l15.612,-29.298l-15.612,-29.298l-15.611,29.298Z" style="fill:#fff;fill-rule:nonzero;"/><path d="M636.743,1021.03l-24.319,-45.632l24.319,-45.632l24.318,45.632l-24.318,45.632Zm-15.612,-45.632l15.612,29.298l15.611,-29.298l-15.611,-29.298l-15.612,29.298Z" style="fill:#fff;fill-rule:nonzero;"/><path d="M676.672,1021.03l-24.318,-45.632l24.318,-45.632l24.318,45.632l-24.318,45.632Zm-15.611,-45.632l15.611,29.298l15.612,-29.298l-15.612,-29.298l-15.611,29.298Z" style="fill:#fff;fill-rule:nonzero;"/><path d="M716.602,1021.03l-24.318,-45.632l24.318,-45.632l24.318,45.632l-24.318,45.632Zm-15.612,-45.632l15.612,29.298l15.611,-29.298l-15.611,-29.298l-15.612,29.298Z" style="fill:#fff;fill-rule:nonzero;"/><path d="M756.231,1021.03l-24.318,-45.632l24.318,-45.632l24.318,45.632l-24.318,45.632Zm-15.612,-45.632l15.612,29.298l15.612,-29.298l-15.612,-29.298l-15.612,29.298Z" style="fill:#fff;fill-rule:nonzero;"/><path d="M-0.329,1096.22l-24.318,-45.632l24.318,-45.632l24.318,45.632l-24.318,45.632Zm-15.612,-45.632l15.612,29.298l15.611,-29.298l-15.611,-29.297l-15.612,29.297Z" style="fill:#fff;fill-rule:nonzero;"/><path d="M39.6,1096.22l-24.318,-45.632l24.318,-45.632l24.318,45.632l-24.318,45.632Zm-15.611,-45.632l15.611,29.298l15.612,-29.298l-15.612,-29.297l-15.611,29.297Z" style="fill:#fff;fill-rule:nonzero;"/><path d="M79.229,1096.22l-24.318,-45.632l24.318,-45.632l24.318,45.632l-24.318,45.632Zm-15.611,-45.632l15.611,29.298l15.612,-29.298l-15.612,-29.297l-15.611,29.297Z" style="fill:#fff;fill-rule:nonzero;"/><path d="M119.159,1096.22l-24.318,-45.632l24.318,-45.632l24.318,45.632l-24.318,45.632Zm-15.612,-45.632l15.612,29.298l15.612,-29.298l-15.612,-29.297l-15.612,29.297Z" style="fill:#fff;fill-rule:nonzero;"/><path d="M159.089,1096.22l-24.318,-45.632l24.318,-45.632l24.318,45.632l-24.318,45.632Zm-15.612,-45.632l15.612,29.298l15.611,-29.298l-15.611,-29.297l-15.612,29.297Z" style="fill:#fff;fill-rule:nonzero;"/><path d="M198.718,1096.22l-24.318,-45.632l24.318,-45.632l24.318,45.632l-24.318,45.632Zm-15.612,-45.632l15.612,29.298l15.612,-29.298l-15.612,-29.297l-15.612,29.297Z" style="fill:#fff;fill-rule:nonzero;"/><path d="M238.648,1096.22l-24.318,-45.632l24.318,-45.632l24.318,45.632l-24.318,45.632Zm-15.612,-45.632l15.612,29.298l15.611,-29.298l-15.611,-29.297l-15.612,29.297Z" style="fill:#fff;fill-rule:nonzero;"/><path d="M278.277,1096.22l-24.318,-45.632l24.318,-45.632l24.318,45.632l-24.318,45.632Zm-15.612,-45.632l15.612,29.298l15.612,-29.298l-15.612,-29.297l-15.612,29.297Z" style="fill:#fff;fill-rule:nonzero;"/><path d="M318.207,1096.22l-24.318,-45.632l24.318,-45.632l24.318,45.632l-24.318,45.632Zm-15.612,-45.632l15.612,29.298l15.611,-29.298l-15.611,-29.297l-15.612,29.297Z" style="fill:#fff;fill-rule:nonzero;"/><path d="M358.136,1096.22l-24.318,-45.632l24.318,-45.632l24.318,45.632l-24.318,45.632Zm-15.611,-45.632l15.611,29.298l15.612,-29.298l-15.612,-29.297l-15.611,29.297Z" style="fill:#fff;fill-rule:nonzero;"/><path d="M397.765,1096.22l-24.318,-45.632l24.318,-45.632l24.318,45.632l-24.318,45.632Zm-15.611,-45.632l15.611,29.298l15.612,-29.298l-15.612,-29.297l-15.611,29.297Z" style="fill:#fff;fill-rule:nonzero;"/><path d="M437.695,1096.22l-24.318,-45.632l24.318,-45.632l24.318,45.632l-24.318,45.632Zm-15.612,-45.632l15.612,29.298l15.612,-29.298l-15.612,-29.297l-15.612,29.297Z" style="fill:#fff;fill-rule:nonzero;"/><path d="M477.625,1096.22l-24.318,-45.632l24.318,-45.632l24.318,45.632l-24.318,45.632Zm-15.612,-45.632l15.612,29.298l15.611,-29.298l-15.611,-29.297l-15.612,29.297Z" style="fill:#fff;fill-rule:nonzero;"/><path d="M517.254,1096.22l-24.318,-45.632l24.318,-45.632l24.318,45.632l-24.318,45.632Zm-15.612,-45.632l15.612,29.298l15.612,-29.298l-15.612,-29.297l-15.612,29.297Z" style="fill:#fff;fill-rule:nonzero;"/><path d="M557.184,1096.22l-24.318,-45.632l24.318,-45.632l24.318,45.632l-24.318,45.632Zm-15.612,-45.632l15.612,29.298l15.611,-29.298l-15.611,-29.297l-15.612,29.297Z" style="fill:#fff;fill-rule:nonzero;"/><path d="M597.113,1096.22l-24.318,-45.632l24.318,-45.632l24.318,45.632l-24.318,45.632Zm-15.611,-45.632l15.611,29.298l15.612,-29.298l-15.612,-29.297l-15.611,29.297Z" style="fill:#fff;fill-rule:nonzero;"/><path d="M636.743,1096.22l-24.319,-45.632l24.319,-45.632l24.318,45.632l-24.318,45.632Zm-15.612,-45.632l15.612,29.298l15.611,-29.298l-15.611,-29.297l-15.612,29.297Z" style="fill:#fff;fill-rule:nonzero;"/><path d="M676.672,1096.22l-24.318,-45.632l24.318,-45.632l24.318,45.632l-24.318,45.632Zm-15.611,-45.632l15.611,29.298l15.612,-29.298l-15.612,-29.297l-15.611,29.297Z" style="fill:#fff;fill-rule:nonzero;"/><path d="M716.602,1096.22l-24.318,-45.632l24.318,-45.632l24.318,45.632l-24.318,45.632Zm-15.612,-45.632l15.612,29.298l15.611,-29.298l-15.611,-29.297l-15.612,29.297Z" style="fill:#fff;fill-rule:nonzero;"/><path d="M756.231,1096.22l-24.318,-45.632l24.318,-45.632l24.318,45.632l-24.318,45.632Zm-15.612,-45.632l15.612,29.298l15.612,-29.298l-15.612,-29.297l-15.612,29.297Z" style="fill:#fff;fill-rule:nonzero;"/></g></g></g></g></g></svg>