<?xml version="1.0" encoding="UTF-8" standalone="no"?><!DOCTYPE svg PUBLIC "-//W3C//DTD SVG 1.1//EN" "http://www.w3.org/Graphics/SVG/1.1/DTD/svg11.dtd"><svg width="100%" height="100%" viewBox="0 0 750 1050" version="1.1" xmlns="http://www.w3.org/2000/svg" xmlns:xlink="http://www.w3.org/1999/xlink" xml:space="preserve" xmlns:serif="http://www.serif.com/" style="fill-rule:evenodd;clip-rule:evenodd;stroke-linecap:round;stroke-linejoin:round;stroke-miterlimit:1.5;"><clipPath id="_clip1"><rect x="-0" y="-13.477" width="750" height="1043.65"/></clipPath><g clip-path="url(#_clip1)"><g><g><g><path d="M770.78,1062.98l-791.658,0c-9.828,0 -17.87,-6.945 -17.87,-15.433l-0,-1079.79c-0,-8.488 8.042,-15.432 17.87,-15.432l791.658,-0c9.829,-0 17.871,6.944 17.871,15.432l-0,1079.79c-0,8.488 -8.042,15.433 -17.871,15.433Z" style="fill:#fff;fill-rule:nonzero;"/><path d="M770.78,1064.27l-791.658,0c-10.722,0 -19.359,-7.459 -19.359,-16.719l-0,-1079.79c-0,-9.26 8.637,-16.719 19.359,-16.719l791.658,-0c10.722,-0 19.36,7.459 19.36,16.719l-0,1079.79c-0,9.26 -8.638,16.719 -19.36,16.719Zm-791.658,-1110.4c-8.934,0 -16.381,6.431 -16.381,14.147l0,1079.53c0,7.717 7.447,14.147 16.381,14.147l791.658,-0c8.935,-0 16.382,-6.43 16.382,-14.147l-0,-1079.79c-0,-7.716 -7.447,-14.147 -16.382,-14.147l-791.658,0l0,0.258Z" style="fill:#939598;fill-rule:nonzero;"/></g><g><path id="XMLID_1_" d="M-0.029,1026.97l0,-1038.37c0,-1.542 1.192,-2.572 2.978,-2.572l744.004,0c1.489,0 2.979,1.03 2.979,2.572l-0,1038.37c-0,1.544 -1.49,2.573 -2.979,2.573l-744.004,-0c-1.489,-0 -2.978,-1.286 -2.978,-2.573Z" style="fill:#d91e38;fill-rule:nonzero;"/><g><g><clipPath id="_clip2"><path d="M-0.029,1026.97l0,-1038.37c0,-1.542 1.192,-2.572 2.978,-2.572l744.004,0c1.489,0 2.979,1.03 2.979,2.572l-0,1038.37c-0,1.544 -1.49,2.573 -2.979,2.573l-744.004,-0c-1.489,-0 -2.978,-1.286 -2.978,-2.573Z"/></clipPath><g clip-path="url(#_clip2)"><path d="M-0.326,32.064l-24.125,-45.27l24.125,-45.27l24.125,45.27l-24.125,45.27Zm-15.488,-45.27l15.488,29.065l15.487,-29.065l-15.487,-29.066l-15.488,29.066Z" style="fill:#fff;fill-rule:nonzero;"/><path d="M39.286,32.064l-24.125,-45.27l24.125,-45.27l24.125,45.27l-24.125,45.27Zm-15.487,-45.27l15.487,29.065l15.488,-29.065l-15.488,-29.066l-15.487,29.066Z" style="fill:#fff;fill-rule:nonzero;"/><path d="M78.6,32.064l-23.826,-45.27l23.826,-45.27l24.125,45.27l-24.125,45.27Zm-15.487,-45.27l15.487,29.065l15.488,-29.065l-15.488,-29.066l-15.487,29.066Z" style="fill:#fff;fill-rule:nonzero;"/><path d="M118.213,32.064l-24.125,-45.27l24.125,-45.27l24.125,45.27l-24.125,45.27Zm-15.488,-45.27l15.488,29.065l15.488,-29.065l-15.488,-29.066l-15.488,29.066Z" style="fill:#fff;fill-rule:nonzero;"/><path d="M157.826,32.064l-24.125,-45.27l24.125,-45.27l24.125,45.27l-24.125,45.27Zm-15.488,-45.27l15.488,29.065l15.487,-29.065l-15.487,-29.066l-15.488,29.066Z" style="fill:#fff;fill-rule:nonzero;"/><path d="M197.141,32.064l-24.125,-45.27l24.125,-45.27l24.125,45.27l-24.125,45.27Zm-15.488,-45.27l15.488,29.065l15.488,-29.065l-15.488,-29.066l-15.488,29.066Z" style="fill:#fff;fill-rule:nonzero;"/><path d="M236.754,32.064l-24.125,-45.27l24.125,-45.27l24.125,45.27l-24.125,45.27Zm-15.488,-45.27l15.488,29.065l15.487,-29.065l-15.487,-29.066l-15.488,29.066Z" style="fill:#fff;fill-rule:nonzero;"/><path d="M276.068,32.064l-24.125,-45.27l24.125,-45.27l24.125,45.27l-24.125,45.27Zm-15.488,-45.27l15.488,29.065l15.489,-29.065l-15.489,-29.066l-15.488,29.066Z" style="fill:#fff;fill-rule:nonzero;"/><path d="M315.682,32.064l-24.125,-45.27l24.125,-45.27l24.125,45.27l-24.125,45.27Zm-15.489,-45.27l15.489,29.065l15.487,-29.065l-15.487,-29.066l-15.489,29.066Z" style="fill:#fff;fill-rule:nonzero;"/><path d="M355.294,32.064l-24.125,-45.27l24.125,-45.27l24.125,45.27l-24.125,45.27Zm-15.487,-45.27l15.487,29.065l15.488,-29.065l-15.488,-29.066l-15.487,29.066Z" style="fill:#fff;fill-rule:nonzero;"/><path d="M394.608,32.064l-24.125,-45.27l24.125,-45.27l24.125,45.27l-24.125,45.27Zm-15.487,-45.27l15.487,29.065l15.488,-29.065l-15.488,-29.066l-15.487,29.066Z" style="fill:#fff;fill-rule:nonzero;"/><path d="M434.221,32.064l-24.125,-45.27l24.125,-45.27l24.125,45.27l-24.125,45.27Zm-15.488,-45.27l15.488,29.065l15.488,-29.065l-15.488,-29.066l-15.488,29.066Z" style="fill:#fff;fill-rule:nonzero;"/><path d="M473.834,32.064l-24.125,-45.27l24.125,-45.27l24.125,45.27l-24.125,45.27Zm-15.488,-45.27l15.488,29.065l15.487,-29.065l-15.487,-29.066l-15.488,29.066Z" style="fill:#fff;fill-rule:nonzero;"/><path d="M513.149,32.064l-24.125,-45.27l24.125,-45.27l24.125,45.27l-24.125,45.27Zm-15.488,-45.27l15.488,29.065l15.488,-29.065l-15.488,-29.066l-15.488,29.066Z" style="fill:#fff;fill-rule:nonzero;"/><path d="M552.762,32.064l-24.125,-45.27l24.125,-45.27l24.125,45.27l-24.125,45.27Zm-15.488,-45.27l15.488,29.065l15.487,-29.065l-15.487,-29.066l-15.488,29.066Z" style="fill:#fff;fill-rule:nonzero;"/><path d="M592.374,32.064l-24.125,-45.27l24.125,-45.27l24.125,45.27l-24.125,45.27Zm-15.487,-45.27l15.487,29.065l15.488,-29.065l-15.488,-29.066l-15.487,29.066Z" style="fill:#fff;fill-rule:nonzero;"/><path d="M631.689,32.064l-24.126,-45.27l24.126,-45.27l24.125,45.27l-24.125,45.27Zm-15.488,-45.27l15.488,29.065l15.488,-29.065l-15.488,-29.066l-15.488,29.066Z" style="fill:#fff;fill-rule:nonzero;"/><path d="M671.302,32.064l-24.125,-45.27l24.125,-45.27l24.125,45.27l-24.125,45.27Zm-15.488,-45.27l15.488,29.065l15.488,-29.065l-15.488,-29.066l-15.488,29.066Z" style="fill:#fff;fill-rule:nonzero;"/><path d="M710.915,32.064l-24.125,-45.27l24.125,-45.27l24.125,45.27l-24.125,45.27Zm-15.488,-45.27l15.488,29.065l15.487,-29.065l-15.487,-29.066l-15.488,29.066Z" style="fill:#fff;fill-rule:nonzero;"/><path d="M750.229,32.064l-24.125,-45.27l24.125,-45.27l24.125,45.27l-24.125,45.27Zm-15.488,-45.27l15.488,29.065l15.488,-29.065l-15.488,-29.066l-15.488,29.066Z" style="fill:#fff;fill-rule:nonzero;"/><path d="M-0.326,106.399l-24.125,-45.27l24.125,-45.27l24.125,45.27l-24.125,45.27Zm-15.488,-45.27l15.488,29.066l15.487,-29.066l-15.487,-29.065l-15.488,29.065Z" style="fill:#fff;fill-rule:nonzero;"/><path d="M39.286,106.399l-24.125,-45.27l24.125,-45.27l24.125,45.27l-24.125,45.27Zm-15.487,-45.27l15.487,29.066l15.488,-29.066l-15.488,-29.065l-15.487,29.065Z" style="fill:#fff;fill-rule:nonzero;"/><path d="M78.6,106.399l-23.826,-45.27l24.125,-45.27l24.125,45.27l-24.424,45.27Zm-15.487,-45.27l15.487,29.066l15.488,-29.066l-15.488,-29.065l-15.487,29.065Z" style="fill:#fff;fill-rule:nonzero;"/><path d="M118.213,106.399l-24.125,-45.27l24.125,-45.27l24.125,45.27l-24.125,45.27Zm-15.488,-45.27l15.488,29.066l15.488,-29.066l-15.488,-29.065l-15.488,29.065Z" style="fill:#fff;fill-rule:nonzero;"/><path d="M157.826,106.399l-24.125,-45.27l24.125,-45.27l24.125,45.27l-24.125,45.27Zm-15.488,-45.27l15.488,29.066l15.487,-29.066l-15.487,-29.065l-15.488,29.065Z" style="fill:#fff;fill-rule:nonzero;"/><path d="M197.141,106.399l-24.125,-45.27l24.125,-45.27l24.125,45.27l-24.125,45.27Zm-15.488,-45.27l15.488,29.066l15.488,-29.066l-15.488,-29.065l-15.488,29.065Z" style="fill:#fff;fill-rule:nonzero;"/><path d="M236.754,106.399l-24.125,-45.27l24.125,-45.27l24.125,45.27l-24.125,45.27Zm-15.488,-45.27l15.488,29.066l15.487,-29.066l-15.487,-29.065l-15.488,29.065Z" style="fill:#fff;fill-rule:nonzero;"/><path d="M276.068,106.399l-24.125,-45.27l24.125,-45.27l24.125,45.27l-24.125,45.27Zm-15.488,-45.27l15.488,29.066l15.489,-29.066l-15.489,-29.065l-15.488,29.065Z" style="fill:#fff;fill-rule:nonzero;"/><path d="M315.682,106.399l-24.125,-45.27l24.125,-45.27l24.125,45.27l-24.125,45.27Zm-15.489,-45.27l15.489,29.066l15.487,-29.066l-15.487,-29.065l-15.489,29.065Z" style="fill:#fff;fill-rule:nonzero;"/><path d="M355.294,106.399l-24.125,-45.27l24.125,-45.27l24.125,45.27l-24.125,45.27Zm-15.487,-45.27l15.487,29.066l15.488,-29.066l-15.488,-29.065l-15.487,29.065Z" style="fill:#fff;fill-rule:nonzero;"/><path d="M394.608,106.399l-24.125,-45.27l24.125,-45.27l24.125,45.27l-24.125,45.27Zm-15.487,-45.27l15.487,29.066l15.488,-29.066l-15.488,-29.065l-15.487,29.065Z" style="fill:#fff;fill-rule:nonzero;"/><path d="M434.221,106.399l-24.125,-45.27l24.125,-45.27l24.125,45.27l-24.125,45.27Zm-15.488,-45.27l15.488,29.066l15.488,-29.066l-15.488,-29.065l-15.488,29.065Z" style="fill:#fff;fill-rule:nonzero;"/><path d="M473.834,106.399l-24.125,-45.27l24.125,-45.27l24.125,45.27l-24.125,45.27Zm-15.488,-45.27l15.488,29.066l15.487,-29.066l-15.487,-29.065l-15.488,29.065Z" style="fill:#fff;fill-rule:nonzero;"/><path d="M513.149,106.399l-24.125,-45.27l24.125,-45.27l24.125,45.27l-24.125,45.27Zm-15.488,-45.27l15.488,29.066l15.488,-29.066l-15.488,-29.065l-15.488,29.065Z" style="fill:#fff;fill-rule:nonzero;"/><path d="M552.762,106.399l-24.125,-45.27l24.125,-45.27l24.125,45.27l-24.125,45.27Zm-15.488,-45.27l15.488,29.066l15.487,-29.066l-15.487,-29.065l-15.488,29.065Z" style="fill:#fff;fill-rule:nonzero;"/><path d="M592.374,106.399l-24.125,-45.27l24.125,-45.27l24.125,45.27l-24.125,45.27Zm-15.487,-45.27l15.487,29.066l15.488,-29.066l-15.488,-29.065l-15.487,29.065Z" style="fill:#fff;fill-rule:nonzero;"/><path d="M631.689,106.399l-24.126,-45.27l24.126,-45.27l24.125,45.27l-24.125,45.27Zm-15.488,-45.27l15.488,29.066l15.488,-29.066l-15.488,-29.065l-15.488,29.065Z" style="fill:#fff;fill-rule:nonzero;"/><path d="M671.302,106.399l-24.125,-45.27l24.125,-45.27l24.125,45.27l-24.125,45.27Zm-15.488,-45.27l15.488,29.066l15.488,-29.066l-15.488,-29.065l-15.488,29.065Z" style="fill:#fff;fill-rule:nonzero;"/><path d="M710.915,106.399l-24.125,-45.27l24.125,-45.27l24.125,45.27l-24.125,45.27Zm-15.488,-45.27l15.488,29.066l15.487,-29.066l-15.487,-29.065l-15.488,29.065Z" style="fill:#fff;fill-rule:nonzero;"/><path d="M750.229,106.399l-24.125,-45.27l24.125,-45.27l24.125,45.27l-24.125,45.27Zm-15.488,-45.27l15.488,29.066l15.488,-29.066l-15.488,-29.065l-15.488,29.065Z" style="fill:#fff;fill-rule:nonzero;"/><path d="M-0.326,180.991l-24.125,-45.27l24.125,-45.269l24.125,45.269l-24.125,45.27Zm-15.488,-45.27l15.488,29.066l15.487,-29.066l-15.487,-29.065l-15.488,29.065Z" style="fill:#fff;fill-rule:nonzero;"/><path d="M39.286,180.991l-24.125,-45.27l24.125,-45.269l24.125,45.269l-24.125,45.27Zm-15.487,-45.27l15.487,29.066l15.488,-29.066l-15.488,-29.065l-15.487,29.065Z" style="fill:#fff;fill-rule:nonzero;"/><path d="M78.6,180.991l-24.125,-45.27l24.125,-45.269l24.125,45.269l-24.125,45.27Zm-15.487,-45.27l15.487,29.066l15.488,-29.066l-15.488,-29.065l-15.487,29.065Z" style="fill:#fff;fill-rule:nonzero;"/><path d="M118.213,180.991l-24.125,-45.27l24.125,-45.269l24.125,45.269l-24.125,45.27Zm-15.488,-45.27l15.488,29.066l15.488,-29.066l-15.488,-29.065l-15.488,29.065Z" style="fill:#fff;fill-rule:nonzero;"/><path d="M157.826,180.991l-24.125,-45.27l24.125,-45.269l24.125,45.269l-24.125,45.27Zm-15.488,-45.27l15.488,29.066l15.487,-29.066l-15.487,-29.065l-15.488,29.065Z" style="fill:#fff;fill-rule:nonzero;"/><path d="M197.141,180.991l-24.125,-45.27l24.125,-45.269l24.125,45.269l-24.125,45.27Zm-15.488,-45.27l15.488,29.066l15.488,-29.066l-15.488,-29.065l-15.488,29.065Z" style="fill:#fff;fill-rule:nonzero;"/><path d="M236.754,180.991l-24.125,-45.27l24.125,-45.269l24.125,45.269l-24.125,45.27Zm-15.488,-45.27l15.488,29.066l15.487,-29.066l-15.487,-29.065l-15.488,29.065Z" style="fill:#fff;fill-rule:nonzero;"/><path d="M276.068,180.991l-24.125,-45.27l24.125,-45.269l24.125,45.269l-24.125,45.27Zm-15.488,-45.27l15.488,29.066l15.489,-29.066l-15.489,-29.065l-15.488,29.065Z" style="fill:#fff;fill-rule:nonzero;"/><path d="M315.682,180.991l-24.125,-45.27l24.125,-45.269l24.125,45.269l-24.125,45.27Zm-15.489,-45.27l15.489,29.066l15.487,-29.066l-15.487,-29.065l-15.489,29.065Z" style="fill:#fff;fill-rule:nonzero;"/><path d="M355.294,180.991l-24.125,-45.27l24.125,-45.269l24.125,45.269l-24.125,45.27Zm-15.487,-45.27l15.487,29.066l15.488,-29.066l-15.488,-29.065l-15.487,29.065Z" style="fill:#fff;fill-rule:nonzero;"/><path d="M394.608,180.991l-24.125,-45.27l24.125,-45.269l24.125,45.269l-24.125,45.27Zm-15.487,-45.27l15.487,29.066l15.488,-29.066l-15.488,-29.065l-15.487,29.065Z" style="fill:#fff;fill-rule:nonzero;"/><path d="M434.221,180.991l-24.125,-45.27l24.125,-45.269l24.125,45.269l-24.125,45.27Zm-15.488,-45.27l15.488,29.066l15.488,-29.066l-15.488,-29.065l-15.488,29.065Z" style="fill:#fff;fill-rule:nonzero;"/><path d="M473.834,180.991l-24.125,-45.27l24.125,-45.269l24.125,45.269l-24.125,45.27Zm-15.488,-45.27l15.488,29.066l15.487,-29.066l-15.487,-29.065l-15.488,29.065Z" style="fill:#fff;fill-rule:nonzero;"/><path d="M513.149,180.991l-24.125,-45.27l24.125,-45.269l24.125,45.269l-24.125,45.27Zm-15.488,-45.27l15.488,29.066l15.488,-29.066l-15.488,-29.065l-15.488,29.065Z" style="fill:#fff;fill-rule:nonzero;"/><path d="M552.762,180.991l-24.125,-45.27l24.125,-45.269l24.125,45.269l-24.125,45.27Zm-15.488,-45.27l15.488,29.066l15.487,-29.066l-15.487,-29.065l-15.488,29.065Z" style="fill:#fff;fill-rule:nonzero;"/><path d="M592.374,180.991l-24.125,-45.27l24.125,-45.269l24.125,45.269l-24.125,45.27Zm-15.487,-45.27l15.487,29.066l15.488,-29.066l-15.488,-29.065l-15.487,29.065Z" style="fill:#fff;fill-rule:nonzero;"/><path d="M631.689,180.991l-24.126,-45.27l24.126,-45.269l24.125,45.269l-24.125,45.27Zm-15.488,-45.27l15.488,29.066l15.488,-29.066l-15.488,-29.065l-15.488,29.065Z" style="fill:#fff;fill-rule:nonzero;"/><path d="M671.302,180.991l-24.125,-45.27l24.125,-45.269l24.125,45.269l-24.125,45.27Zm-15.488,-45.27l15.488,29.066l15.488,-29.066l-15.488,-29.065l-15.488,29.065Z" style="fill:#fff;fill-rule:nonzero;"/><path d="M710.915,180.991l-24.125,-45.27l24.125,-45.269l24.125,45.269l-24.125,45.27Zm-15.488,-45.27l15.488,29.066l15.487,-29.066l-15.487,-29.065l-15.488,29.065Z" style="fill:#fff;fill-rule:nonzero;"/><path d="M750.229,180.991l-24.125,-45.27l24.125,-45.269l24.125,45.269l-24.125,45.27Zm-15.488,-45.27l15.488,29.066l15.488,-29.066l-15.488,-29.065l-15.488,29.065Z" style="fill:#fff;fill-rule:nonzero;"/><path d="M-0.326,255.327l-24.125,-45.27l24.125,-45.27l24.125,45.27l-24.125,45.27Zm-15.488,-45.27l15.488,29.065l15.487,-29.065l-15.487,-29.066l-15.488,29.066Z" style="fill:#fff;fill-rule:nonzero;"/><path d="M39.286,255.327l-24.125,-45.27l24.125,-45.27l24.125,45.27l-24.125,45.27Zm-15.487,-45.27l15.487,29.065l15.488,-29.065l-15.488,-29.066l-15.487,29.066Z" style="fill:#fff;fill-rule:nonzero;"/><path d="M78.6,255.327l-24.125,-45.27l24.125,-45.27l24.125,45.27l-24.125,45.27Zm-15.487,-45.27l15.487,29.065l15.488,-29.065l-15.488,-29.066l-15.487,29.066Z" style="fill:#fff;fill-rule:nonzero;"/><path d="M118.213,255.327l-24.125,-45.27l24.125,-45.27l24.125,45.27l-24.125,45.27Zm-15.488,-45.27l15.488,29.065l15.488,-29.065l-15.488,-29.066l-15.488,29.066Z" style="fill:#fff;fill-rule:nonzero;"/><path d="M157.826,255.327l-24.125,-45.27l24.125,-45.27l24.125,45.27l-24.125,45.27Zm-15.488,-45.27l15.488,29.065l15.487,-29.065l-15.487,-29.066l-15.488,29.066Z" style="fill:#fff;fill-rule:nonzero;"/><path d="M197.141,255.327l-24.125,-45.27l24.125,-45.27l24.125,45.27l-24.125,45.27Zm-15.488,-45.27l15.488,29.065l15.488,-29.065l-15.488,-29.066l-15.488,29.066Z" style="fill:#fff;fill-rule:nonzero;"/><path d="M236.754,255.327l-24.125,-45.27l24.125,-45.27l24.125,45.27l-24.125,45.27Zm-15.488,-45.27l15.488,29.065l15.487,-29.065l-15.487,-29.066l-15.488,29.066Z" style="fill:#fff;fill-rule:nonzero;"/><path d="M276.068,255.327l-24.125,-45.27l24.125,-45.27l24.125,45.27l-24.125,45.27Zm-15.488,-45.27l15.488,29.065l15.489,-29.065l-15.489,-29.066l-15.488,29.066Z" style="fill:#fff;fill-rule:nonzero;"/><path d="M315.682,255.327l-24.125,-45.27l24.125,-45.27l24.125,45.27l-24.125,45.27Zm-15.489,-45.27l15.489,29.065l15.487,-29.065l-15.487,-29.066l-15.489,29.066Z" style="fill:#fff;fill-rule:nonzero;"/><path d="M355.294,255.327l-24.125,-45.27l24.125,-45.27l24.125,45.27l-24.125,45.27Zm-15.487,-45.27l15.487,29.065l15.488,-29.065l-15.488,-29.066l-15.487,29.066Z" style="fill:#fff;fill-rule:nonzero;"/><path d="M394.608,255.327l-24.125,-45.27l24.125,-45.27l24.125,45.27l-24.125,45.27Zm-15.487,-45.27l15.487,29.065l15.488,-29.065l-15.488,-29.066l-15.487,29.066Z" style="fill:#fff;fill-rule:nonzero;"/><path d="M434.221,255.327l-24.125,-45.27l24.125,-45.27l24.125,45.27l-24.125,45.27Zm-15.488,-45.27l15.488,29.065l15.488,-29.065l-15.488,-29.066l-15.488,29.066Z" style="fill:#fff;fill-rule:nonzero;"/><path d="M473.834,255.327l-24.125,-45.27l24.125,-45.27l24.125,45.27l-24.125,45.27Zm-15.488,-45.27l15.488,29.065l15.487,-29.065l-15.487,-29.066l-15.488,29.066Z" style="fill:#fff;fill-rule:nonzero;"/><path d="M513.149,255.327l-24.125,-45.27l24.125,-45.27l24.125,45.27l-24.125,45.27Zm-15.488,-45.27l15.488,29.065l15.488,-29.065l-15.488,-29.066l-15.488,29.066Z" style="fill:#fff;fill-rule:nonzero;"/><path d="M552.762,255.327l-24.125,-45.27l24.125,-45.27l24.125,45.27l-24.125,45.27Zm-15.488,-45.27l15.488,29.065l15.487,-29.065l-15.487,-29.066l-15.488,29.066Z" style="fill:#fff;fill-rule:nonzero;"/><path d="M592.374,255.327l-24.125,-45.27l24.125,-45.27l24.125,45.27l-24.125,45.27Zm-15.487,-45.27l15.487,29.065l15.488,-29.065l-15.488,-29.066l-15.487,29.066Z" style="fill:#fff;fill-rule:nonzero;"/><path d="M631.689,255.327l-24.126,-45.27l24.126,-45.27l24.125,45.27l-24.125,45.27Zm-15.488,-45.27l15.488,29.065l15.488,-29.065l-15.488,-29.066l-15.488,29.066Z" style="fill:#fff;fill-rule:nonzero;"/><path d="M671.302,255.327l-24.125,-45.27l24.125,-45.27l24.125,45.27l-24.125,45.27Zm-15.488,-45.27l15.488,29.065l15.488,-29.065l-15.488,-29.066l-15.488,29.066Z" style="fill:#fff;fill-rule:nonzero;"/><path d="M710.915,255.327l-24.125,-45.27l24.125,-45.27l24.125,45.27l-24.125,45.27Zm-15.488,-45.27l15.488,29.065l15.487,-29.065l-15.487,-29.066l-15.488,29.066Z" style="fill:#fff;fill-rule:nonzero;"/><path d="M750.229,255.327l-24.125,-45.27l24.125,-45.27l24.125,45.27l-24.125,45.27Zm-15.488,-45.27l15.488,29.065l15.488,-29.065l-15.488,-29.066l-15.488,29.066Z" style="fill:#fff;fill-rule:nonzero;"/><path d="M-0.326,329.662l-24.125,-45.27l24.125,-45.27l24.125,45.27l-24.125,45.27Zm-15.488,-45.27l15.488,29.066l15.487,-29.066l-15.487,-29.065l-15.488,29.065Z" style="fill:#fff;fill-rule:nonzero;"/><path d="M39.286,329.662l-24.125,-45.27l24.125,-45.27l24.125,45.27l-24.125,45.27Zm-15.487,-45.27l15.487,29.066l15.488,-29.066l-15.488,-29.065l-15.487,29.065Z" style="fill:#fff;fill-rule:nonzero;"/><path d="M78.6,329.662l-24.125,-45.27l24.125,-45.27l24.125,45.27l-24.125,45.27Zm-15.487,-45.27l15.487,29.066l15.488,-29.066l-15.488,-29.065l-15.487,29.065Z" style="fill:#fff;fill-rule:nonzero;"/><path d="M118.213,329.662l-24.125,-45.27l24.125,-45.27l24.125,45.27l-24.125,45.27Zm-15.488,-45.27l15.488,29.066l15.488,-29.066l-15.488,-29.065l-15.488,29.065Z" style="fill:#fff;fill-rule:nonzero;"/><path d="M157.826,329.662l-24.125,-45.27l24.125,-45.27l24.125,45.27l-24.125,45.27Zm-15.488,-45.27l15.488,29.066l15.487,-29.066l-15.487,-29.065l-15.488,29.065Z" style="fill:#fff;fill-rule:nonzero;"/><path d="M197.141,329.662l-24.125,-45.27l24.125,-45.27l24.125,45.27l-24.125,45.27Zm-15.488,-45.27l15.488,29.066l15.488,-29.066l-15.488,-29.065l-15.488,29.065Z" style="fill:#fff;fill-rule:nonzero;"/><path d="M236.754,329.662l-24.125,-45.27l24.125,-45.27l24.125,45.27l-24.125,45.27Zm-15.488,-45.27l15.488,29.066l15.487,-29.066l-15.487,-29.065l-15.488,29.065Z" style="fill:#fff;fill-rule:nonzero;"/><path d="M276.068,329.662l-24.125,-45.27l24.125,-45.27l24.125,45.27l-24.125,45.27Zm-15.488,-45.27l15.488,29.066l15.489,-29.066l-15.489,-29.065l-15.488,29.065Z" style="fill:#fff;fill-rule:nonzero;"/><path d="M315.682,329.662l-24.125,-45.27l24.125,-45.27l24.125,45.27l-24.125,45.27Zm-15.489,-45.27l15.489,29.066l15.487,-29.066l-15.487,-29.065l-15.489,29.065Z" style="fill:#fff;fill-rule:nonzero;"/><path d="M355.294,329.662l-24.125,-45.27l24.125,-45.27l24.125,45.27l-24.125,45.27Zm-15.487,-45.27l15.487,29.066l15.488,-29.066l-15.488,-29.065l-15.487,29.065Z" style="fill:#fff;fill-rule:nonzero;"/><path d="M394.608,329.662l-24.125,-45.27l24.125,-45.27l24.125,45.27l-24.125,45.27Zm-15.487,-45.27l15.487,29.066l15.488,-29.066l-15.488,-29.065l-15.487,29.065Z" style="fill:#fff;fill-rule:nonzero;"/><path d="M434.221,329.662l-24.125,-45.27l24.125,-45.27l24.125,45.27l-24.125,45.27Zm-15.488,-45.27l15.488,29.066l15.488,-29.066l-15.488,-29.065l-15.488,29.065Z" style="fill:#fff;fill-rule:nonzero;"/><path d="M473.834,329.662l-24.125,-45.27l24.125,-45.27l24.125,45.27l-24.125,45.27Zm-15.488,-45.27l15.488,29.066l15.487,-29.066l-15.487,-29.065l-15.488,29.065Z" style="fill:#fff;fill-rule:nonzero;"/><path d="M513.149,329.662l-24.125,-45.27l24.125,-45.27l24.125,45.27l-24.125,45.27Zm-15.488,-45.27l15.488,29.066l15.488,-29.066l-15.488,-29.065l-15.488,29.065Z" style="fill:#fff;fill-rule:nonzero;"/><path d="M552.762,329.662l-24.125,-45.27l24.125,-45.27l24.125,45.27l-24.125,45.27Zm-15.488,-45.27l15.488,29.066l15.487,-29.066l-15.487,-29.065l-15.488,29.065Z" style="fill:#fff;fill-rule:nonzero;"/><path d="M592.374,329.662l-24.125,-45.27l24.125,-45.27l24.125,45.27l-24.125,45.27Zm-15.487,-45.27l15.487,29.066l15.488,-29.066l-15.488,-29.065l-15.487,29.065Z" style="fill:#fff;fill-rule:nonzero;"/><path d="M631.689,329.662l-24.126,-45.27l24.126,-45.27l24.125,45.27l-24.125,45.27Zm-15.488,-45.27l15.488,29.066l15.488,-29.066l-15.488,-29.065l-15.488,29.065Z" style="fill:#fff;fill-rule:nonzero;"/><path d="M671.302,329.662l-24.125,-45.27l24.125,-45.27l24.125,45.27l-24.125,45.27Zm-15.488,-45.27l15.488,29.066l15.488,-29.066l-15.488,-29.065l-15.488,29.065Z" style="fill:#fff;fill-rule:nonzero;"/><path d="M710.915,329.662l-24.125,-45.27l24.125,-45.27l24.125,45.27l-24.125,45.27Zm-15.488,-45.27l15.488,29.066l15.487,-29.066l-15.487,-29.065l-15.488,29.065Z" style="fill:#fff;fill-rule:nonzero;"/><path d="M750.229,329.662l-24.125,-45.27l24.125,-45.27l24.125,45.27l-24.125,45.27Zm-15.488,-45.27l15.488,29.066l15.488,-29.066l-15.488,-29.065l-15.488,29.065Z" style="fill:#fff;fill-rule:nonzero;"/><path d="M-0.326,404.254l-24.125,-45.27l24.125,-45.27l24.125,45.27l-24.125,45.27Zm-15.488,-45.27l15.488,29.066l15.487,-29.066l-15.487,-29.065l-15.488,29.065Z" style="fill:#fff;fill-rule:nonzero;"/><path d="M39.286,404.254l-24.125,-45.27l24.125,-45.27l24.125,45.27l-24.125,45.27Zm-15.487,-45.27l15.487,29.066l15.488,-29.066l-15.488,-29.065l-15.487,29.065Z" style="fill:#fff;fill-rule:nonzero;"/><path d="M78.6,404.254l-24.125,-45.27l24.125,-45.27l24.125,45.27l-24.125,45.27Zm-15.487,-45.27l15.487,29.066l15.488,-29.066l-15.488,-29.065l-15.487,29.065Z" style="fill:#fff;fill-rule:nonzero;"/><path d="M118.213,404.254l-24.125,-45.27l24.125,-45.27l24.125,45.27l-24.125,45.27Zm-15.488,-45.27l15.488,29.066l15.488,-29.066l-15.488,-29.065l-15.488,29.065Z" style="fill:#fff;fill-rule:nonzero;"/><path d="M157.826,404.254l-24.125,-45.27l24.125,-45.27l24.125,45.27l-24.125,45.27Zm-15.488,-45.27l15.488,29.066l15.487,-29.066l-15.487,-29.065l-15.488,29.065Z" style="fill:#fff;fill-rule:nonzero;"/><path d="M197.141,404.254l-24.125,-45.27l24.125,-45.27l24.125,45.27l-24.125,45.27Zm-15.488,-45.27l15.488,29.066l15.488,-29.066l-15.488,-29.065l-15.488,29.065Z" style="fill:#fff;fill-rule:nonzero;"/><path d="M236.754,404.254l-24.125,-45.27l24.125,-45.27l24.125,45.27l-24.125,45.27Zm-15.488,-45.27l15.488,29.066l15.487,-29.066l-15.487,-29.065l-15.488,29.065Z" style="fill:#fff;fill-rule:nonzero;"/><path d="M276.068,404.254l-24.125,-45.27l24.125,-45.27l24.125,45.27l-24.125,45.27Zm-15.488,-45.27l15.488,29.066l15.489,-29.066l-15.489,-29.065l-15.488,29.065Z" style="fill:#fff;fill-rule:nonzero;"/><path d="M315.682,404.254l-24.125,-45.27l24.125,-45.27l24.125,45.27l-24.125,45.27Zm-15.489,-45.27l15.489,29.066l15.487,-29.066l-15.487,-29.065l-15.489,29.065Z" style="fill:#fff;fill-rule:nonzero;"/><path d="M355.294,404.254l-24.125,-45.27l24.125,-45.27l24.125,45.27l-24.125,45.27Zm-15.487,-45.27l15.487,29.066l15.488,-29.066l-15.488,-29.065l-15.487,29.065Z" style="fill:#fff;fill-rule:nonzero;"/><path d="M394.608,404.254l-24.125,-45.27l24.125,-45.27l24.125,45.27l-24.125,45.27Zm-15.487,-45.27l15.487,29.066l15.488,-29.066l-15.488,-29.065l-15.487,29.065Z" style="fill:#fff;fill-rule:nonzero;"/><path d="M434.221,404.254l-24.125,-45.27l24.125,-45.27l24.125,45.27l-24.125,45.27Zm-15.488,-45.27l15.488,29.066l15.488,-29.066l-15.488,-29.065l-15.488,29.065Z" style="fill:#fff;fill-rule:nonzero;"/><path d="M473.834,404.254l-24.125,-45.27l24.125,-45.27l24.125,45.27l-24.125,45.27Zm-15.488,-45.27l15.488,29.066l15.487,-29.066l-15.487,-29.065l-15.488,29.065Z" style="fill:#fff;fill-rule:nonzero;"/><path d="M513.149,404.254l-24.125,-45.27l24.125,-45.27l24.125,45.27l-24.125,45.27Zm-15.488,-45.27l15.488,29.066l15.488,-29.066l-15.488,-29.065l-15.488,29.065Z" style="fill:#fff;fill-rule:nonzero;"/><path d="M552.762,404.254l-24.125,-45.27l24.125,-45.27l24.125,45.27l-24.125,45.27Zm-15.488,-45.27l15.488,29.066l15.487,-29.066l-15.487,-29.065l-15.488,29.065Z" style="fill:#fff;fill-rule:nonzero;"/><path d="M592.374,404.254l-24.125,-45.27l24.125,-45.27l24.125,45.27l-24.125,45.27Zm-15.487,-45.27l15.487,29.066l15.488,-29.066l-15.488,-29.065l-15.487,29.065Z" style="fill:#fff;fill-rule:nonzero;"/><path d="M631.689,404.254l-24.126,-45.27l24.126,-45.27l24.125,45.27l-24.125,45.27Zm-15.488,-45.27l15.488,29.066l15.488,-29.066l-15.488,-29.065l-15.488,29.065Z" style="fill:#fff;fill-rule:nonzero;"/><path d="M671.302,404.254l-24.125,-45.27l24.125,-45.27l24.125,45.27l-24.125,45.27Zm-15.488,-45.27l15.488,29.066l15.488,-29.066l-15.488,-29.065l-15.488,29.065Z" style="fill:#fff;fill-rule:nonzero;"/><path d="M710.915,404.254l-24.125,-45.27l24.125,-45.27l24.125,45.27l-24.125,45.27Zm-15.488,-45.27l15.488,29.066l15.487,-29.066l-15.487,-29.065l-15.488,29.065Z" style="fill:#fff;fill-rule:nonzero;"/><path d="M750.229,404.254l-24.125,-45.27l24.125,-45.27l24.125,45.27l-24.125,45.27Zm-15.488,-45.27l15.488,29.066l15.488,-29.066l-15.488,-29.065l-15.488,29.065Z" style="fill:#fff;fill-rule:nonzero;"/><path d="M-0.326,478.589l-24.125,-45.269l24.125,-45.27l24.125,45.27l-24.125,45.269Zm-15.488,-45.269l15.488,29.065l15.487,-29.065l-15.487,-29.066l-15.488,29.066Z" style="fill:#fff;fill-rule:nonzero;"/><path d="M39.286,478.589l-24.125,-45.269l24.125,-45.27l24.125,45.27l-24.125,45.269Zm-15.487,-45.269l15.487,29.065l15.488,-29.065l-15.488,-29.066l-15.487,29.066Z" style="fill:#fff;fill-rule:nonzero;"/><path d="M78.6,478.589l-24.125,-45.269l24.125,-45.27l24.125,45.27l-24.125,45.269Zm-15.487,-45.269l15.487,29.065l15.488,-29.065l-15.488,-29.066l-15.487,29.066Z" style="fill:#fff;fill-rule:nonzero;"/><path d="M118.213,478.589l-24.125,-45.269l24.125,-45.27l24.125,45.27l-24.125,45.269Zm-15.488,-45.269l15.488,29.065l15.488,-29.065l-15.488,-29.066l-15.488,29.066Z" style="fill:#fff;fill-rule:nonzero;"/><path d="M157.826,478.589l-24.125,-45.269l24.125,-45.27l24.125,45.27l-24.125,45.269Zm-15.488,-45.269l15.488,29.065l15.487,-29.065l-15.487,-29.066l-15.488,29.066Z" style="fill:#fff;fill-rule:nonzero;"/><path d="M197.141,478.589l-24.125,-45.269l24.125,-45.27l24.125,45.27l-24.125,45.269Zm-15.488,-45.269l15.488,29.065l15.488,-29.065l-15.488,-29.066l-15.488,29.066Z" style="fill:#fff;fill-rule:nonzero;"/><path d="M236.754,478.589l-24.125,-45.269l24.125,-45.27l24.125,45.27l-24.125,45.269Zm-15.488,-45.269l15.488,29.065l15.487,-29.065l-15.487,-29.066l-15.488,29.066Z" style="fill:#fff;fill-rule:nonzero;"/><path d="M276.068,478.589l-24.125,-45.269l24.125,-45.27l24.125,45.27l-24.125,45.269Zm-15.488,-45.269l15.488,29.065l15.489,-29.065l-15.489,-29.066l-15.488,29.066Z" style="fill:#fff;fill-rule:nonzero;"/><path d="M315.682,478.589l-24.125,-45.269l24.125,-45.27l24.125,45.27l-24.125,45.269Zm-15.489,-45.269l15.489,29.065l15.487,-29.065l-15.487,-29.066l-15.489,29.066Z" style="fill:#fff;fill-rule:nonzero;"/><path d="M355.294,478.589l-24.125,-45.269l24.125,-45.27l24.125,45.27l-24.125,45.269Zm-15.487,-45.269l15.487,29.065l15.488,-29.065l-15.488,-29.066l-15.487,29.066Z" style="fill:#fff;fill-rule:nonzero;"/><path d="M394.608,478.589l-24.125,-45.269l24.125,-45.27l24.125,45.27l-24.125,45.269Zm-15.487,-45.269l15.487,29.065l15.488,-29.065l-15.488,-29.066l-15.487,29.066Z" style="fill:#fff;fill-rule:nonzero;"/><path d="M434.221,478.589l-24.125,-45.269l24.125,-45.27l24.125,45.27l-24.125,45.269Zm-15.488,-45.269l15.488,29.065l15.488,-29.065l-15.488,-29.066l-15.488,29.066Z" style="fill:#fff;fill-rule:nonzero;"/><path d="M473.834,478.589l-24.125,-45.269l24.125,-45.27l24.125,45.27l-24.125,45.269Zm-15.488,-45.269l15.488,29.065l15.487,-29.065l-15.487,-29.066l-15.488,29.066Z" style="fill:#fff;fill-rule:nonzero;"/><path d="M513.149,478.589l-24.125,-45.269l24.125,-45.27l24.125,45.27l-24.125,45.269Zm-15.488,-45.269l15.488,29.065l15.488,-29.065l-15.488,-29.066l-15.488,29.066Z" style="fill:#fff;fill-rule:nonzero;"/><path d="M552.762,478.589l-24.125,-45.269l24.125,-45.27l24.125,45.27l-24.125,45.269Zm-15.488,-45.269l15.488,29.065l15.487,-29.065l-15.487,-29.066l-15.488,29.066Z" style="fill:#fff;fill-rule:nonzero;"/><path d="M592.374,478.589l-24.125,-45.269l24.125,-45.27l24.125,45.27l-24.125,45.269Zm-15.487,-45.269l15.487,29.065l15.488,-29.065l-15.488,-29.066l-15.487,29.066Z" style="fill:#fff;fill-rule:nonzero;"/><path d="M631.689,478.589l-24.126,-45.269l24.126,-45.27l24.125,45.27l-24.125,45.269Zm-15.488,-45.269l15.488,29.065l15.488,-29.065l-15.488,-29.066l-15.488,29.066Z" style="fill:#fff;fill-rule:nonzero;"/><path d="M671.302,478.589l-24.125,-45.269l24.125,-45.27l24.125,45.27l-24.125,45.269Zm-15.488,-45.269l15.488,29.065l15.488,-29.065l-15.488,-29.066l-15.488,29.066Z" style="fill:#fff;fill-rule:nonzero;"/><path d="M710.915,478.589l-24.125,-45.269l24.125,-45.27l24.125,45.27l-24.125,45.269Zm-15.488,-45.269l15.488,29.065l15.487,-29.065l-15.487,-29.066l-15.488,29.066Z" style="fill:#fff;fill-rule:nonzero;"/><path d="M750.229,478.589l-24.125,-45.269l24.125,-45.27l24.125,45.27l-24.125,45.269Zm-15.488,-45.269l15.488,29.065l15.488,-29.065l-15.488,-29.066l-15.488,29.066Z" style="fill:#fff;fill-rule:nonzero;"/><path d="M-0.326,552.925l-24.125,-45.27l24.125,-45.27l24.125,45.27l-24.125,45.27Zm-15.488,-45.27l15.488,29.065l15.487,-29.065l-15.487,-29.066l-15.488,29.066Z" style="fill:#fff;fill-rule:nonzero;"/><path d="M39.286,552.925l-24.125,-45.27l24.125,-45.27l24.125,45.27l-24.125,45.27Zm-15.487,-45.27l15.487,29.065l15.488,-29.065l-15.488,-29.066l-15.487,29.066Z" style="fill:#fff;fill-rule:nonzero;"/><path d="M78.6,552.925l-24.125,-45.27l24.125,-45.27l24.125,45.27l-24.125,45.27Zm-15.487,-45.27l15.487,29.065l15.488,-29.065l-15.488,-29.066l-15.487,29.066Z" style="fill:#fff;fill-rule:nonzero;"/><path d="M118.213,552.925l-24.125,-45.27l24.125,-45.27l24.125,45.27l-24.125,45.27Zm-15.488,-45.27l15.488,29.065l15.488,-29.065l-15.488,-29.066l-15.488,29.066Z" style="fill:#fff;fill-rule:nonzero;"/><path d="M157.826,552.925l-24.125,-45.27l24.125,-45.27l24.125,45.27l-24.125,45.27Zm-15.488,-45.27l15.488,29.065l15.487,-29.065l-15.487,-29.066l-15.488,29.066Z" style="fill:#fff;fill-rule:nonzero;"/><path d="M197.141,552.925l-24.125,-45.27l24.125,-45.27l24.125,45.27l-24.125,45.27Zm-15.488,-45.27l15.488,29.065l15.488,-29.065l-15.488,-29.066l-15.488,29.066Z" style="fill:#fff;fill-rule:nonzero;"/><path d="M236.754,552.925l-24.125,-45.27l24.125,-45.27l24.125,45.27l-24.125,45.27Zm-15.488,-45.27l15.488,29.065l15.487,-29.065l-15.487,-29.066l-15.488,29.066Z" style="fill:#fff;fill-rule:nonzero;"/><path d="M276.068,552.925l-24.125,-45.27l24.125,-45.27l24.125,45.27l-24.125,45.27Zm-15.488,-45.27l15.488,29.065l15.489,-29.065l-15.489,-29.066l-15.488,29.066Z" style="fill:#fff;fill-rule:nonzero;"/><path d="M315.682,552.925l-24.125,-45.27l24.125,-45.27l24.125,45.27l-24.125,45.27Zm-15.489,-45.27l15.489,29.065l15.487,-29.065l-15.487,-29.066l-15.489,29.066Z" style="fill:#fff;fill-rule:nonzero;"/><path d="M355.294,552.925l-24.125,-45.27l24.125,-45.27l24.125,45.27l-24.125,45.27Zm-15.487,-45.27l15.487,29.065l15.488,-29.065l-15.488,-29.066l-15.487,29.066Z" style="fill:#fff;fill-rule:nonzero;"/><path d="M394.608,552.925l-24.125,-45.27l24.125,-45.27l24.125,45.27l-24.125,45.27Zm-15.487,-45.27l15.487,29.065l15.488,-29.065l-15.488,-29.066l-15.487,29.066Z" style="fill:#fff;fill-rule:nonzero;"/><path d="M434.221,552.925l-24.125,-45.27l24.125,-45.27l24.125,45.27l-24.125,45.27Zm-15.488,-45.27l15.488,29.065l15.488,-29.065l-15.488,-29.066l-15.488,29.066Z" style="fill:#fff;fill-rule:nonzero;"/><path d="M473.834,552.925l-24.125,-45.27l24.125,-45.27l24.125,45.27l-24.125,45.27Zm-15.488,-45.27l15.488,29.065l15.487,-29.065l-15.487,-29.066l-15.488,29.066Z" style="fill:#fff;fill-rule:nonzero;"/><path d="M513.149,552.925l-24.125,-45.27l24.125,-45.27l24.125,45.27l-24.125,45.27Zm-15.488,-45.27l15.488,29.065l15.488,-29.065l-15.488,-29.066l-15.488,29.066Z" style="fill:#fff;fill-rule:nonzero;"/><path d="M552.762,552.925l-24.125,-45.27l24.125,-45.27l24.125,45.27l-24.125,45.27Zm-15.488,-45.27l15.488,29.065l15.487,-29.065l-15.487,-29.066l-15.488,29.066Z" style="fill:#fff;fill-rule:nonzero;"/><path d="M592.374,552.925l-24.125,-45.27l24.125,-45.27l24.125,45.27l-24.125,45.27Zm-15.487,-45.27l15.487,29.065l15.488,-29.065l-15.488,-29.066l-15.487,29.066Z" style="fill:#fff;fill-rule:nonzero;"/><path d="M631.689,552.925l-24.126,-45.27l24.126,-45.27l24.125,45.27l-24.125,45.27Zm-15.488,-45.27l15.488,29.065l15.488,-29.065l-15.488,-29.066l-15.488,29.066Z" style="fill:#fff;fill-rule:nonzero;"/><path d="M671.302,552.925l-24.125,-45.27l24.125,-45.27l24.125,45.27l-24.125,45.27Zm-15.488,-45.27l15.488,29.065l15.488,-29.065l-15.488,-29.066l-15.488,29.066Z" style="fill:#fff;fill-rule:nonzero;"/><path d="M710.915,552.925l-24.125,-45.27l24.125,-45.27l24.125,45.27l-24.125,45.27Zm-15.488,-45.27l15.488,29.065l15.487,-29.065l-15.487,-29.066l-15.488,29.066Z" style="fill:#fff;fill-rule:nonzero;"/><path d="M750.229,552.925l-24.125,-45.27l24.125,-45.27l24.125,45.27l-24.125,45.27Zm-15.488,-45.27l15.488,29.065l15.488,-29.065l-15.488,-29.066l-15.488,29.066Z" style="fill:#fff;fill-rule:nonzero;"/><path d="M-0.326,627.517l-24.125,-45.27l24.125,-45.27l24.125,45.27l-24.125,45.27Zm-15.488,-45.27l15.488,29.066l15.487,-29.066l-15.487,-29.065l-15.488,29.065Z" style="fill:#fff;fill-rule:nonzero;"/><path d="M39.286,627.517l-24.125,-45.27l24.125,-45.27l24.125,45.27l-24.125,45.27Zm-15.487,-45.27l15.487,29.066l15.488,-29.066l-15.488,-29.065l-15.487,29.065Z" style="fill:#fff;fill-rule:nonzero;"/><path d="M78.6,627.517l-24.125,-45.27l24.125,-45.27l24.125,45.27l-24.125,45.27Zm-15.487,-45.27l15.487,29.066l15.488,-29.066l-15.488,-29.065l-15.487,29.065Z" style="fill:#fff;fill-rule:nonzero;"/><path d="M118.213,627.517l-24.125,-45.27l24.125,-45.27l24.125,45.27l-24.125,45.27Zm-15.488,-45.27l15.488,29.066l15.488,-29.066l-15.488,-29.065l-15.488,29.065Z" style="fill:#fff;fill-rule:nonzero;"/><path d="M157.826,627.517l-24.125,-45.27l24.125,-45.27l24.125,45.27l-24.125,45.27Zm-15.488,-45.27l15.488,29.066l15.487,-29.066l-15.487,-29.065l-15.488,29.065Z" style="fill:#fff;fill-rule:nonzero;"/><path d="M197.141,627.517l-24.125,-45.27l24.125,-45.27l24.125,45.27l-24.125,45.27Zm-15.488,-45.27l15.488,29.066l15.488,-29.066l-15.488,-29.065l-15.488,29.065Z" style="fill:#fff;fill-rule:nonzero;"/><path d="M236.754,627.517l-24.125,-45.27l24.125,-45.27l24.125,45.27l-24.125,45.27Zm-15.488,-45.27l15.488,29.066l15.487,-29.066l-15.487,-29.065l-15.488,29.065Z" style="fill:#fff;fill-rule:nonzero;"/><path d="M276.068,627.517l-24.125,-45.27l24.125,-45.27l24.125,45.27l-24.125,45.27Zm-15.488,-45.27l15.488,29.066l15.489,-29.066l-15.489,-29.065l-15.488,29.065Z" style="fill:#fff;fill-rule:nonzero;"/><path d="M315.682,627.517l-24.125,-45.27l24.125,-45.27l24.125,45.27l-24.125,45.27Zm-15.489,-45.27l15.489,29.066l15.487,-29.066l-15.487,-29.065l-15.489,29.065Z" style="fill:#fff;fill-rule:nonzero;"/><path d="M355.294,627.517l-24.125,-45.27l24.125,-45.27l24.125,45.27l-24.125,45.27Zm-15.487,-45.27l15.487,29.066l15.488,-29.066l-15.488,-29.065l-15.487,29.065Z" style="fill:#fff;fill-rule:nonzero;"/><path d="M394.608,627.517l-24.125,-45.27l24.125,-45.27l24.125,45.27l-24.125,45.27Zm-15.487,-45.27l15.487,29.066l15.488,-29.066l-15.488,-29.065l-15.487,29.065Z" style="fill:#fff;fill-rule:nonzero;"/><path d="M434.221,627.517l-24.125,-45.27l24.125,-45.27l24.125,45.27l-24.125,45.27Zm-15.488,-45.27l15.488,29.066l15.488,-29.066l-15.488,-29.065l-15.488,29.065Z" style="fill:#fff;fill-rule:nonzero;"/><path d="M473.834,627.517l-24.125,-45.27l24.125,-45.27l24.125,45.27l-24.125,45.27Zm-15.488,-45.27l15.488,29.066l15.487,-29.066l-15.487,-29.065l-15.488,29.065Z" style="fill:#fff;fill-rule:nonzero;"/><path d="M513.149,627.517l-24.125,-45.27l24.125,-45.27l24.125,45.27l-24.125,45.27Zm-15.488,-45.27l15.488,29.066l15.488,-29.066l-15.488,-29.065l-15.488,29.065Z" style="fill:#fff;fill-rule:nonzero;"/><path d="M552.762,627.517l-24.125,-45.27l24.125,-45.27l24.125,45.27l-24.125,45.27Zm-15.488,-45.27l15.488,29.066l15.487,-29.066l-15.487,-29.065l-15.488,29.065Z" style="fill:#fff;fill-rule:nonzero;"/><path d="M592.374,627.517l-24.125,-45.27l24.125,-45.27l24.125,45.27l-24.125,45.27Zm-15.487,-45.27l15.487,29.066l15.488,-29.066l-15.488,-29.065l-15.487,29.065Z" style="fill:#fff;fill-rule:nonzero;"/><path d="M631.689,627.517l-24.126,-45.27l24.126,-45.27l24.125,45.27l-24.125,45.27Zm-15.488,-45.27l15.488,29.066l15.488,-29.066l-15.488,-29.065l-15.488,29.065Z" style="fill:#fff;fill-rule:nonzero;"/><path d="M671.302,627.517l-24.125,-45.27l24.125,-45.27l24.125,45.27l-24.125,45.27Zm-15.488,-45.27l15.488,29.066l15.488,-29.066l-15.488,-29.065l-15.488,29.065Z" style="fill:#fff;fill-rule:nonzero;"/><path d="M710.915,627.517l-24.125,-45.27l24.125,-45.27l24.125,45.27l-24.125,45.27Zm-15.488,-45.27l15.488,29.066l15.487,-29.066l-15.487,-29.065l-15.488,29.065Z" style="fill:#fff;fill-rule:nonzero;"/><path d="M750.229,627.517l-24.125,-45.27l24.125,-45.27l24.125,45.27l-24.125,45.27Zm-15.488,-45.27l15.488,29.066l15.488,-29.066l-15.488,-29.065l-15.488,29.065Z" style="fill:#fff;fill-rule:nonzero;"/><path d="M-0.326,701.852l-24.125,-45.269l24.125,-45.27l24.125,45.27l-24.125,45.269Zm-15.488,-45.269l15.488,29.064l15.487,-29.064l-15.487,-29.066l-15.488,29.066Z" style="fill:#fff;fill-rule:nonzero;"/><path d="M39.286,701.852l-24.125,-45.269l24.125,-45.27l24.125,45.27l-24.125,45.269Zm-15.487,-45.269l15.487,29.064l15.488,-29.064l-15.488,-29.066l-15.487,29.066Z" style="fill:#fff;fill-rule:nonzero;"/><path d="M78.6,701.852l-23.826,-45.269l24.125,-45.27l24.125,45.27l-24.424,45.269Zm-15.487,-45.269l15.487,29.064l15.488,-29.064l-15.488,-29.066l-15.487,29.066Z" style="fill:#fff;fill-rule:nonzero;"/><path d="M118.213,701.852l-24.125,-45.269l24.125,-45.27l24.125,45.27l-24.125,45.269Zm-15.488,-45.269l15.488,29.064l15.488,-29.064l-15.488,-29.066l-15.488,29.066Z" style="fill:#fff;fill-rule:nonzero;"/><path d="M157.826,701.852l-24.125,-45.269l24.125,-45.27l24.125,45.27l-24.125,45.269Zm-15.488,-45.269l15.488,29.064l15.487,-29.064l-15.487,-29.066l-15.488,29.066Z" style="fill:#fff;fill-rule:nonzero;"/><path d="M197.141,701.852l-24.125,-45.269l24.125,-45.27l24.125,45.27l-24.125,45.269Zm-15.488,-45.269l15.488,29.064l15.488,-29.064l-15.488,-29.066l-15.488,29.066Z" style="fill:#fff;fill-rule:nonzero;"/><path d="M236.754,701.852l-24.125,-45.269l24.125,-45.27l24.125,45.27l-24.125,45.269Zm-15.488,-45.269l15.488,29.064l15.487,-29.064l-15.487,-29.066l-15.488,29.066Z" style="fill:#fff;fill-rule:nonzero;"/><path d="M276.068,701.852l-24.125,-45.269l24.125,-45.27l24.125,45.27l-24.125,45.269Zm-15.488,-45.269l15.488,29.064l15.489,-29.064l-15.489,-29.066l-15.488,29.066Z" style="fill:#fff;fill-rule:nonzero;"/><path d="M315.682,701.852l-24.125,-45.269l24.125,-45.27l24.125,45.27l-24.125,45.269Zm-15.489,-45.269l15.489,29.064l15.487,-29.064l-15.487,-29.066l-15.489,29.066Z" style="fill:#fff;fill-rule:nonzero;"/><path d="M355.294,701.852l-24.125,-45.269l24.125,-45.27l24.125,45.27l-24.125,45.269Zm-15.487,-45.269l15.487,29.064l15.488,-29.064l-15.488,-29.066l-15.487,29.066Z" style="fill:#fff;fill-rule:nonzero;"/><path d="M394.608,701.852l-24.125,-45.269l24.125,-45.27l24.125,45.27l-24.125,45.269Zm-15.487,-45.269l15.487,29.064l15.488,-29.064l-15.488,-29.066l-15.487,29.066Z" style="fill:#fff;fill-rule:nonzero;"/><path d="M434.221,701.852l-24.125,-45.269l24.125,-45.27l24.125,45.27l-24.125,45.269Zm-15.488,-45.269l15.488,29.064l15.488,-29.064l-15.488,-29.066l-15.488,29.066Z" style="fill:#fff;fill-rule:nonzero;"/><path d="M473.834,701.852l-24.125,-45.269l24.125,-45.27l24.125,45.27l-24.125,45.269Zm-15.488,-45.269l15.488,29.064l15.487,-29.064l-15.487,-29.066l-15.488,29.066Z" style="fill:#fff;fill-rule:nonzero;"/><path d="M513.149,701.852l-24.125,-45.269l24.125,-45.27l24.125,45.27l-24.125,45.269Zm-15.488,-45.269l15.488,29.064l15.488,-29.064l-15.488,-29.066l-15.488,29.066Z" style="fill:#fff;fill-rule:nonzero;"/><path d="M552.762,701.852l-24.125,-45.269l24.125,-45.27l24.125,45.27l-24.125,45.269Zm-15.488,-45.269l15.488,29.064l15.487,-29.064l-15.487,-29.066l-15.488,29.066Z" style="fill:#fff;fill-rule:nonzero;"/><path d="M592.374,701.852l-24.125,-45.269l24.125,-45.27l24.125,45.27l-24.125,45.269Zm-15.487,-45.269l15.487,29.064l15.488,-29.064l-15.488,-29.066l-15.487,29.066Z" style="fill:#fff;fill-rule:nonzero;"/><path d="M631.689,701.852l-24.126,-45.269l24.126,-45.27l24.125,45.27l-24.125,45.269Zm-15.488,-45.269l15.488,29.064l15.488,-29.064l-15.488,-29.066l-15.488,29.066Z" style="fill:#fff;fill-rule:nonzero;"/><path d="M671.302,701.852l-24.125,-45.269l24.125,-45.27l24.125,45.27l-24.125,45.269Zm-15.488,-45.269l15.488,29.064l15.488,-29.064l-15.488,-29.066l-15.488,29.066Z" style="fill:#fff;fill-rule:nonzero;"/><path d="M710.915,701.852l-24.125,-45.269l24.125,-45.27l24.125,45.27l-24.125,45.269Zm-15.488,-45.269l15.488,29.064l15.487,-29.064l-15.487,-29.066l-15.488,29.066Z" style="fill:#fff;fill-rule:nonzero;"/><path d="M750.229,701.852l-24.125,-45.269l24.125,-45.27l24.125,45.27l-24.125,45.269Zm-15.488,-45.269l15.488,29.064l15.488,-29.064l-15.488,-29.066l-15.488,29.066Z" style="fill:#fff;fill-rule:nonzero;"/><path d="M-0.326,776.188l-24.125,-45.271l24.125,-45.27l24.125,45.27l-24.125,45.271Zm-15.488,-45.271l15.488,29.065l15.487,-29.065l-15.487,-29.065l-15.488,29.065Z" style="fill:#fff;fill-rule:nonzero;"/><path d="M39.286,776.188l-24.125,-45.271l24.125,-45.27l24.125,45.27l-24.125,45.271Zm-15.487,-45.271l15.487,29.065l15.488,-29.065l-15.488,-29.065l-15.487,29.065Z" style="fill:#fff;fill-rule:nonzero;"/><path d="M78.6,776.188l-24.125,-45.271l24.125,-45.27l24.125,45.27l-24.125,45.271Zm-15.487,-45.271l15.487,29.065l15.488,-29.065l-15.488,-29.065l-15.487,29.065Z" style="fill:#fff;fill-rule:nonzero;"/><path d="M118.213,776.188l-24.125,-45.271l24.125,-45.27l24.125,45.27l-24.125,45.271Zm-15.488,-45.271l15.488,29.065l15.488,-29.065l-15.488,-29.065l-15.488,29.065Z" style="fill:#fff;fill-rule:nonzero;"/><path d="M157.826,776.188l-24.125,-45.271l24.125,-45.27l24.125,45.27l-24.125,45.271Zm-15.488,-45.271l15.488,29.065l15.487,-29.065l-15.487,-29.065l-15.488,29.065Z" style="fill:#fff;fill-rule:nonzero;"/><path d="M197.141,776.188l-24.125,-45.271l24.125,-45.27l24.125,45.27l-24.125,45.271Zm-15.488,-45.271l15.488,29.065l15.488,-29.065l-15.488,-29.065l-15.488,29.065Z" style="fill:#fff;fill-rule:nonzero;"/><path d="M236.754,776.188l-24.125,-45.271l24.125,-45.27l24.125,45.27l-24.125,45.271Zm-15.488,-45.271l15.488,29.065l15.487,-29.065l-15.487,-29.065l-15.488,29.065Z" style="fill:#fff;fill-rule:nonzero;"/><path d="M276.068,776.188l-24.125,-45.271l24.125,-45.27l24.125,45.27l-24.125,45.271Zm-15.488,-45.271l15.488,29.065l15.489,-29.065l-15.489,-29.065l-15.488,29.065Z" style="fill:#fff;fill-rule:nonzero;"/><path d="M315.682,776.188l-24.125,-45.271l24.125,-45.27l24.125,45.27l-24.125,45.271Zm-15.489,-45.271l15.489,29.065l15.487,-29.065l-15.487,-29.065l-15.489,29.065Z" style="fill:#fff;fill-rule:nonzero;"/><path d="M355.294,776.188l-24.125,-45.271l24.125,-45.27l24.125,45.27l-24.125,45.271Zm-15.487,-45.271l15.487,29.065l15.488,-29.065l-15.488,-29.065l-15.487,29.065Z" style="fill:#fff;fill-rule:nonzero;"/><path d="M394.608,776.188l-24.125,-45.271l24.125,-45.27l24.125,45.27l-24.125,45.271Zm-15.487,-45.271l15.487,29.065l15.488,-29.065l-15.488,-29.065l-15.487,29.065Z" style="fill:#fff;fill-rule:nonzero;"/><path d="M434.221,776.188l-24.125,-45.271l24.125,-45.27l24.125,45.27l-24.125,45.271Zm-15.488,-45.271l15.488,29.065l15.488,-29.065l-15.488,-29.065l-15.488,29.065Z" style="fill:#fff;fill-rule:nonzero;"/><path d="M473.834,776.188l-24.125,-45.271l24.125,-45.27l24.125,45.27l-24.125,45.271Zm-15.488,-45.271l15.488,29.065l15.487,-29.065l-15.487,-29.065l-15.488,29.065Z" style="fill:#fff;fill-rule:nonzero;"/><path d="M513.149,776.188l-24.125,-45.271l24.125,-45.27l24.125,45.27l-24.125,45.271Zm-15.488,-45.271l15.488,29.065l15.488,-29.065l-15.488,-29.065l-15.488,29.065Z" style="fill:#fff;fill-rule:nonzero;"/><path d="M552.762,776.188l-24.125,-45.271l24.125,-45.27l24.125,45.27l-24.125,45.271Zm-15.488,-45.271l15.488,29.065l15.487,-29.065l-15.487,-29.065l-15.488,29.065Z" style="fill:#fff;fill-rule:nonzero;"/><path d="M592.374,776.188l-24.125,-45.271l24.125,-45.27l24.125,45.27l-24.125,45.271Zm-15.487,-45.271l15.487,29.065l15.488,-29.065l-15.488,-29.065l-15.487,29.065Z" style="fill:#fff;fill-rule:nonzero;"/><path d="M631.689,776.188l-24.126,-45.271l24.126,-45.27l24.125,45.27l-24.125,45.271Zm-15.488,-45.271l15.488,29.065l15.488,-29.065l-15.488,-29.065l-15.488,29.065Z" style="fill:#fff;fill-rule:nonzero;"/><path d="M671.302,776.188l-24.125,-45.271l24.125,-45.27l24.125,45.27l-24.125,45.271Zm-15.488,-45.271l15.488,29.065l15.488,-29.065l-15.488,-29.065l-15.488,29.065Z" style="fill:#fff;fill-rule:nonzero;"/><path d="M710.915,776.188l-24.125,-45.271l24.125,-45.27l24.125,45.27l-24.125,45.271Zm-15.488,-45.271l15.488,29.065l15.487,-29.065l-15.487,-29.065l-15.488,29.065Z" style="fill:#fff;fill-rule:nonzero;"/><path d="M750.229,776.188l-24.125,-45.271l24.125,-45.27l24.125,45.27l-24.125,45.271Zm-15.488,-45.271l15.488,29.065l15.488,-29.065l-15.488,-29.065l-15.488,29.065Z" style="fill:#fff;fill-rule:nonzero;"/><path d="M-0.326,850.78l-24.125,-45.27l24.125,-45.27l24.125,45.27l-24.125,45.27Zm-15.488,-45.27l15.488,29.065l15.487,-29.065l-15.487,-29.065l-15.488,29.065Z" style="fill:#fff;fill-rule:nonzero;"/><path d="M39.286,850.78l-24.125,-45.27l24.125,-45.27l24.125,45.27l-24.125,45.27Zm-15.487,-45.27l15.487,29.065l15.488,-29.065l-15.488,-29.065l-15.487,29.065Z" style="fill:#fff;fill-rule:nonzero;"/><path d="M78.6,850.78l-24.125,-45.27l24.125,-45.27l24.125,45.27l-24.125,45.27Zm-15.487,-45.27l15.487,29.065l15.488,-29.065l-15.488,-29.065l-15.487,29.065Z" style="fill:#fff;fill-rule:nonzero;"/><path d="M118.213,850.78l-24.125,-45.27l24.125,-45.27l24.125,45.27l-24.125,45.27Zm-15.488,-45.27l15.488,29.065l15.488,-29.065l-15.488,-29.065l-15.488,29.065Z" style="fill:#fff;fill-rule:nonzero;"/><path d="M157.826,850.78l-24.125,-45.27l24.125,-45.27l24.125,45.27l-24.125,45.27Zm-15.488,-45.27l15.488,29.065l15.487,-29.065l-15.487,-29.065l-15.488,29.065Z" style="fill:#fff;fill-rule:nonzero;"/><path d="M197.141,850.78l-24.125,-45.27l24.125,-45.27l24.125,45.27l-24.125,45.27Zm-15.488,-45.27l15.488,29.065l15.488,-29.065l-15.488,-29.065l-15.488,29.065Z" style="fill:#fff;fill-rule:nonzero;"/><path d="M236.754,850.78l-24.125,-45.27l24.125,-45.27l24.125,45.27l-24.125,45.27Zm-15.488,-45.27l15.488,29.065l15.487,-29.065l-15.487,-29.065l-15.488,29.065Z" style="fill:#fff;fill-rule:nonzero;"/><path d="M276.068,850.78l-24.125,-45.27l24.125,-45.27l24.125,45.27l-24.125,45.27Zm-15.488,-45.27l15.488,29.065l15.489,-29.065l-15.489,-29.065l-15.488,29.065Z" style="fill:#fff;fill-rule:nonzero;"/><path d="M315.682,850.78l-24.125,-45.27l24.125,-45.27l24.125,45.27l-24.125,45.27Zm-15.489,-45.27l15.489,29.065l15.487,-29.065l-15.487,-29.065l-15.489,29.065Z" style="fill:#fff;fill-rule:nonzero;"/><path d="M355.294,850.78l-24.125,-45.27l24.125,-45.27l24.125,45.27l-24.125,45.27Zm-15.487,-45.27l15.487,29.065l15.488,-29.065l-15.488,-29.065l-15.487,29.065Z" style="fill:#fff;fill-rule:nonzero;"/><path d="M394.608,850.78l-24.125,-45.27l24.125,-45.27l24.125,45.27l-24.125,45.27Zm-15.487,-45.27l15.487,29.065l15.488,-29.065l-15.488,-29.065l-15.487,29.065Z" style="fill:#fff;fill-rule:nonzero;"/><path d="M434.221,850.78l-24.125,-45.27l24.125,-45.27l24.125,45.27l-24.125,45.27Zm-15.488,-45.27l15.488,29.065l15.488,-29.065l-15.488,-29.065l-15.488,29.065Z" style="fill:#fff;fill-rule:nonzero;"/><path d="M473.834,850.78l-24.125,-45.27l24.125,-45.27l24.125,45.27l-24.125,45.27Zm-15.488,-45.27l15.488,29.065l15.487,-29.065l-15.487,-29.065l-15.488,29.065Z" style="fill:#fff;fill-rule:nonzero;"/><path d="M513.149,850.78l-24.125,-45.27l24.125,-45.27l24.125,45.27l-24.125,45.27Zm-15.488,-45.27l15.488,29.065l15.488,-29.065l-15.488,-29.065l-15.488,29.065Z" style="fill:#fff;fill-rule:nonzero;"/><path d="M552.762,850.78l-24.125,-45.27l24.125,-45.27l24.125,45.27l-24.125,45.27Zm-15.488,-45.27l15.488,29.065l15.487,-29.065l-15.487,-29.065l-15.488,29.065Z" style="fill:#fff;fill-rule:nonzero;"/><path d="M592.374,850.78l-24.125,-45.27l24.125,-45.27l24.125,45.27l-24.125,45.27Zm-15.487,-45.27l15.487,29.065l15.488,-29.065l-15.488,-29.065l-15.487,29.065Z" style="fill:#fff;fill-rule:nonzero;"/><path d="M631.689,850.78l-24.126,-45.27l24.126,-45.27l24.125,45.27l-24.125,45.27Zm-15.488,-45.27l15.488,29.065l15.488,-29.065l-15.488,-29.065l-15.488,29.065Z" style="fill:#fff;fill-rule:nonzero;"/><path d="M671.302,850.78l-24.125,-45.27l24.125,-45.27l24.125,45.27l-24.125,45.27Zm-15.488,-45.27l15.488,29.065l15.488,-29.065l-15.488,-29.065l-15.488,29.065Z" style="fill:#fff;fill-rule:nonzero;"/><path d="M710.915,850.78l-24.125,-45.27l24.125,-45.27l24.125,45.27l-24.125,45.27Zm-15.488,-45.27l15.488,29.065l15.487,-29.065l-15.487,-29.065l-15.488,29.065Z" style="fill:#fff;fill-rule:nonzero;"/><path d="M750.229,850.78l-24.125,-45.27l24.125,-45.27l24.125,45.27l-24.125,45.27Zm-15.488,-45.27l15.488,29.065l15.488,-29.065l-15.488,-29.065l-15.488,29.065Z" style="fill:#fff;fill-rule:nonzero;"/><path d="M-0.326,925.114l-24.125,-45.27l24.125,-45.269l24.125,45.269l-24.125,45.27Zm-15.488,-45.27l15.488,29.066l15.487,-29.066l-15.487,-29.064l-15.488,29.064Z" style="fill:#fff;fill-rule:nonzero;"/><path d="M39.286,925.114l-24.125,-45.27l24.125,-45.269l24.125,45.269l-24.125,45.27Zm-15.487,-45.27l15.487,29.066l15.488,-29.066l-15.488,-29.064l-15.487,29.064Z" style="fill:#fff;fill-rule:nonzero;"/><path d="M78.6,925.114l-24.125,-45.27l24.125,-45.269l24.125,45.269l-24.125,45.27Zm-15.487,-45.27l15.487,29.066l15.488,-29.066l-15.488,-29.064l-15.487,29.064Z" style="fill:#fff;fill-rule:nonzero;"/><path d="M118.213,925.114l-24.125,-45.27l24.125,-45.269l24.125,45.269l-24.125,45.27Zm-15.488,-45.27l15.488,29.066l15.488,-29.066l-15.488,-29.064l-15.488,29.064Z" style="fill:#fff;fill-rule:nonzero;"/><path d="M157.826,925.114l-24.125,-45.27l24.125,-45.269l24.125,45.269l-24.125,45.27Zm-15.488,-45.27l15.488,29.066l15.487,-29.066l-15.487,-29.064l-15.488,29.064Z" style="fill:#fff;fill-rule:nonzero;"/><path d="M197.141,925.114l-24.125,-45.27l24.125,-45.269l24.125,45.269l-24.125,45.27Zm-15.488,-45.27l15.488,29.066l15.488,-29.066l-15.488,-29.064l-15.488,29.064Z" style="fill:#fff;fill-rule:nonzero;"/><path d="M236.754,925.114l-24.125,-45.27l24.125,-45.269l24.125,45.269l-24.125,45.27Zm-15.488,-45.27l15.488,29.066l15.487,-29.066l-15.487,-29.064l-15.488,29.064Z" style="fill:#fff;fill-rule:nonzero;"/><path d="M276.068,925.114l-24.125,-45.27l24.125,-45.269l24.125,45.269l-24.125,45.27Zm-15.488,-45.27l15.488,29.066l15.489,-29.066l-15.489,-29.064l-15.488,29.064Z" style="fill:#fff;fill-rule:nonzero;"/><path d="M315.682,925.114l-24.125,-45.27l24.125,-45.269l24.125,45.269l-24.125,45.27Zm-15.489,-45.27l15.489,29.066l15.487,-29.066l-15.487,-29.064l-15.489,29.064Z" style="fill:#fff;fill-rule:nonzero;"/><path d="M355.294,925.114l-24.125,-45.27l24.125,-45.269l24.125,45.269l-24.125,45.27Zm-15.487,-45.27l15.487,29.066l15.488,-29.066l-15.488,-29.064l-15.487,29.064Z" style="fill:#fff;fill-rule:nonzero;"/><path d="M394.608,925.114l-24.125,-45.27l24.125,-45.269l24.125,45.269l-24.125,45.27Zm-15.487,-45.27l15.487,29.066l15.488,-29.066l-15.488,-29.064l-15.487,29.064Z" style="fill:#fff;fill-rule:nonzero;"/><path d="M434.221,925.114l-24.125,-45.27l24.125,-45.269l24.125,45.269l-24.125,45.27Zm-15.488,-45.27l15.488,29.066l15.488,-29.066l-15.488,-29.064l-15.488,29.064Z" style="fill:#fff;fill-rule:nonzero;"/><path d="M473.834,925.114l-24.125,-45.27l24.125,-45.269l24.125,45.269l-24.125,45.27Zm-15.488,-45.27l15.488,29.066l15.487,-29.066l-15.487,-29.064l-15.488,29.064Z" style="fill:#fff;fill-rule:nonzero;"/><path d="M513.149,925.114l-24.125,-45.27l24.125,-45.269l24.125,45.269l-24.125,45.27Zm-15.488,-45.27l15.488,29.066l15.488,-29.066l-15.488,-29.064l-15.488,29.064Z" style="fill:#fff;fill-rule:nonzero;"/><path d="M552.762,925.114l-24.125,-45.27l24.125,-45.269l24.125,45.269l-24.125,45.27Zm-15.488,-45.27l15.488,29.066l15.487,-29.066l-15.487,-29.064l-15.488,29.064Z" style="fill:#fff;fill-rule:nonzero;"/><path d="M592.374,925.114l-24.125,-45.27l24.125,-45.269l24.125,45.269l-24.125,45.27Zm-15.487,-45.27l15.487,29.066l15.488,-29.066l-15.488,-29.064l-15.487,29.064Z" style="fill:#fff;fill-rule:nonzero;"/><path d="M631.689,925.114l-24.126,-45.27l24.126,-45.269l24.125,45.269l-24.125,45.27Zm-15.488,-45.27l15.488,29.066l15.488,-29.066l-15.488,-29.064l-15.488,29.064Z" style="fill:#fff;fill-rule:nonzero;"/><path d="M671.302,925.114l-24.125,-45.27l24.125,-45.269l24.125,45.269l-24.125,45.27Zm-15.488,-45.27l15.488,29.066l15.488,-29.066l-15.488,-29.064l-15.488,29.064Z" style="fill:#fff;fill-rule:nonzero;"/><path d="M710.915,925.114l-24.125,-45.27l24.125,-45.269l24.125,45.269l-24.125,45.27Zm-15.488,-45.27l15.488,29.066l15.487,-29.066l-15.487,-29.064l-15.488,29.064Z" style="fill:#fff;fill-rule:nonzero;"/><path d="M750.229,925.114l-24.125,-45.27l24.125,-45.269l24.125,45.269l-24.125,45.27Zm-15.488,-45.27l15.488,29.066l15.488,-29.066l-15.488,-29.064l-15.488,29.064Z" style="fill:#fff;fill-rule:nonzero;"/><path d="M-0.326,999.45l-24.125,-45.27l24.125,-45.27l24.125,45.27l-24.125,45.27Zm-15.488,-45.27l15.488,29.065l15.487,-29.065l-15.487,-29.066l-15.488,29.066Z" style="fill:#fff;fill-rule:nonzero;"/><path d="M39.286,999.45l-24.125,-45.27l24.125,-45.27l24.125,45.27l-24.125,45.27Zm-15.487,-45.27l15.487,29.065l15.488,-29.065l-15.488,-29.066l-15.487,29.066Z" style="fill:#fff;fill-rule:nonzero;"/><path d="M78.6,999.45l-24.125,-45.27l24.125,-45.27l24.125,45.27l-24.125,45.27Zm-15.487,-45.27l15.487,29.065l15.488,-29.065l-15.488,-29.066l-15.487,29.066Z" style="fill:#fff;fill-rule:nonzero;"/><path d="M118.213,999.45l-24.125,-45.27l24.125,-45.27l24.125,45.27l-24.125,45.27Zm-15.488,-45.27l15.488,29.065l15.488,-29.065l-15.488,-29.066l-15.488,29.066Z" style="fill:#fff;fill-rule:nonzero;"/><path d="M157.826,999.45l-24.125,-45.27l24.125,-45.27l24.125,45.27l-24.125,45.27Zm-15.488,-45.27l15.488,29.065l15.487,-29.065l-15.487,-29.066l-15.488,29.066Z" style="fill:#fff;fill-rule:nonzero;"/><path d="M197.141,999.45l-24.125,-45.27l24.125,-45.27l24.125,45.27l-24.125,45.27Zm-15.488,-45.27l15.488,29.065l15.488,-29.065l-15.488,-29.066l-15.488,29.066Z" style="fill:#fff;fill-rule:nonzero;"/><path d="M236.754,999.45l-24.125,-45.27l24.125,-45.27l24.125,45.27l-24.125,45.27Zm-15.488,-45.27l15.488,29.065l15.487,-29.065l-15.487,-29.066l-15.488,29.066Z" style="fill:#fff;fill-rule:nonzero;"/><path d="M276.068,999.45l-24.125,-45.27l24.125,-45.27l24.125,45.27l-24.125,45.27Zm-15.488,-45.27l15.488,29.065l15.489,-29.065l-15.489,-29.066l-15.488,29.066Z" style="fill:#fff;fill-rule:nonzero;"/><path d="M315.682,999.45l-24.125,-45.27l24.125,-45.27l24.125,45.27l-24.125,45.27Zm-15.489,-45.27l15.489,29.065l15.487,-29.065l-15.487,-29.066l-15.489,29.066Z" style="fill:#fff;fill-rule:nonzero;"/><path d="M355.294,999.45l-24.125,-45.27l24.125,-45.27l24.125,45.27l-24.125,45.27Zm-15.487,-45.27l15.487,29.065l15.488,-29.065l-15.488,-29.066l-15.487,29.066Z" style="fill:#fff;fill-rule:nonzero;"/><path d="M394.608,999.45l-24.125,-45.27l24.125,-45.27l24.125,45.27l-24.125,45.27Zm-15.487,-45.27l15.487,29.065l15.488,-29.065l-15.488,-29.066l-15.487,29.066Z" style="fill:#fff;fill-rule:nonzero;"/><path d="M434.221,999.45l-24.125,-45.27l24.125,-45.27l24.125,45.27l-24.125,45.27Zm-15.488,-45.27l15.488,29.065l15.488,-29.065l-15.488,-29.066l-15.488,29.066Z" style="fill:#fff;fill-rule:nonzero;"/><path d="M473.834,999.45l-24.125,-45.27l24.125,-45.27l24.125,45.27l-24.125,45.27Zm-15.488,-45.27l15.488,29.065l15.487,-29.065l-15.487,-29.066l-15.488,29.066Z" style="fill:#fff;fill-rule:nonzero;"/><path d="M513.149,999.45l-24.125,-45.27l24.125,-45.27l24.125,45.27l-24.125,45.27Zm-15.488,-45.27l15.488,29.065l15.488,-29.065l-15.488,-29.066l-15.488,29.066Z" style="fill:#fff;fill-rule:nonzero;"/><path d="M552.762,999.45l-24.125,-45.27l24.125,-45.27l24.125,45.27l-24.125,45.27Zm-15.488,-45.27l15.488,29.065l15.487,-29.065l-15.487,-29.066l-15.488,29.066Z" style="fill:#fff;fill-rule:nonzero;"/><path d="M592.374,999.45l-24.125,-45.27l24.125,-45.27l24.125,45.27l-24.125,45.27Zm-15.487,-45.27l15.487,29.065l15.488,-29.065l-15.488,-29.066l-15.487,29.066Z" style="fill:#fff;fill-rule:nonzero;"/><path d="M631.689,999.45l-24.126,-45.27l24.126,-45.27l24.125,45.27l-24.125,45.27Zm-15.488,-45.27l15.488,29.065l15.488,-29.065l-15.488,-29.066l-15.488,29.066Z" style="fill:#fff;fill-rule:nonzero;"/><path d="M671.302,999.45l-24.125,-45.27l24.125,-45.27l24.125,45.27l-24.125,45.27Zm-15.488,-45.27l15.488,29.065l15.488,-29.065l-15.488,-29.066l-15.488,29.066Z" style="fill:#fff;fill-rule:nonzero;"/><path d="M710.915,999.45l-24.125,-45.27l24.125,-45.27l24.125,45.27l-24.125,45.27Zm-15.488,-45.27l15.488,29.065l15.487,-29.065l-15.487,-29.066l-15.488,29.066Z" style="fill:#fff;fill-rule:nonzero;"/><path d="M750.229,999.45l-24.125,-45.27l24.125,-45.27l24.125,45.27l-24.125,45.27Zm-15.488,-45.27l15.488,29.065l15.488,-29.065l-15.488,-29.066l-15.488,29.066Z" style="fill:#fff;fill-rule:nonzero;"/><path d="M-0.326,1074.04l-24.125,-45.27l24.125,-45.27l24.125,45.27l-24.125,45.27Zm-15.488,-45.27l15.488,29.066l15.487,-29.066l-15.487,-29.064l-15.488,29.064Z" style="fill:#fff;fill-rule:nonzero;"/><path d="M39.286,1074.04l-24.125,-45.27l24.125,-45.27l24.125,45.27l-24.125,45.27Zm-15.487,-45.27l15.487,29.066l15.488,-29.066l-15.488,-29.064l-15.487,29.064Z" style="fill:#fff;fill-rule:nonzero;"/><path d="M78.6,1074.04l-24.125,-45.27l24.125,-45.27l24.125,45.27l-24.125,45.27Zm-15.487,-45.27l15.487,29.066l15.488,-29.066l-15.488,-29.064l-15.487,29.064Z" style="fill:#fff;fill-rule:nonzero;"/><path d="M118.213,1074.04l-24.125,-45.27l24.125,-45.27l24.125,45.27l-24.125,45.27Zm-15.488,-45.27l15.488,29.066l15.488,-29.066l-15.488,-29.064l-15.488,29.064Z" style="fill:#fff;fill-rule:nonzero;"/><path d="M157.826,1074.04l-24.125,-45.27l24.125,-45.27l24.125,45.27l-24.125,45.27Zm-15.488,-45.27l15.488,29.066l15.487,-29.066l-15.487,-29.064l-15.488,29.064Z" style="fill:#fff;fill-rule:nonzero;"/><path d="M197.141,1074.04l-24.125,-45.27l24.125,-45.27l24.125,45.27l-24.125,45.27Zm-15.488,-45.27l15.488,29.066l15.488,-29.066l-15.488,-29.064l-15.488,29.064Z" style="fill:#fff;fill-rule:nonzero;"/><path d="M236.754,1074.04l-24.125,-45.27l24.125,-45.27l24.125,45.27l-24.125,45.27Zm-15.488,-45.27l15.488,29.066l15.487,-29.066l-15.487,-29.064l-15.488,29.064Z" style="fill:#fff;fill-rule:nonzero;"/><path d="M276.068,1074.04l-24.125,-45.27l24.125,-45.27l24.125,45.27l-24.125,45.27Zm-15.488,-45.27l15.488,29.066l15.489,-29.066l-15.489,-29.064l-15.488,29.064Z" style="fill:#fff;fill-rule:nonzero;"/><path d="M315.682,1074.04l-24.125,-45.27l24.125,-45.27l24.125,45.27l-24.125,45.27Zm-15.489,-45.27l15.489,29.066l15.487,-29.066l-15.487,-29.064l-15.489,29.064Z" style="fill:#fff;fill-rule:nonzero;"/><path d="M355.294,1074.04l-24.125,-45.27l24.125,-45.27l24.125,45.27l-24.125,45.27Zm-15.487,-45.27l15.487,29.066l15.488,-29.066l-15.488,-29.064l-15.487,29.064Z" style="fill:#fff;fill-rule:nonzero;"/><path d="M394.608,1074.04l-24.125,-45.27l24.125,-45.27l24.125,45.27l-24.125,45.27Zm-15.487,-45.27l15.487,29.066l15.488,-29.066l-15.488,-29.064l-15.487,29.064Z" style="fill:#fff;fill-rule:nonzero;"/><path d="M434.221,1074.04l-24.125,-45.27l24.125,-45.27l24.125,45.27l-24.125,45.27Zm-15.488,-45.27l15.488,29.066l15.488,-29.066l-15.488,-29.064l-15.488,29.064Z" style="fill:#fff;fill-rule:nonzero;"/><path d="M473.834,1074.04l-24.125,-45.27l24.125,-45.27l24.125,45.27l-24.125,45.27Zm-15.488,-45.27l15.488,29.066l15.487,-29.066l-15.487,-29.064l-15.488,29.064Z" style="fill:#fff;fill-rule:nonzero;"/><path d="M513.149,1074.04l-24.125,-45.27l24.125,-45.27l24.125,45.27l-24.125,45.27Zm-15.488,-45.27l15.488,29.066l15.488,-29.066l-15.488,-29.064l-15.488,29.064Z" style="fill:#fff;fill-rule:nonzero;"/><path d="M552.762,1074.04l-24.125,-45.27l24.125,-45.27l24.125,45.27l-24.125,45.27Zm-15.488,-45.27l15.488,29.066l15.487,-29.066l-15.487,-29.064l-15.488,29.064Z" style="fill:#fff;fill-rule:nonzero;"/><path d="M592.374,1074.04l-24.125,-45.27l24.125,-45.27l24.125,45.27l-24.125,45.27Zm-15.487,-45.27l15.487,29.066l15.488,-29.066l-15.488,-29.064l-15.487,29.064Z" style="fill:#fff;fill-rule:nonzero;"/><path d="M631.689,1074.04l-24.126,-45.27l24.126,-45.27l24.125,45.27l-24.125,45.27Zm-15.488,-45.27l15.488,29.066l15.488,-29.066l-15.488,-29.064l-15.488,29.064Z" style="fill:#fff;fill-rule:nonzero;"/><path d="M671.302,1074.04l-24.125,-45.27l24.125,-45.27l24.125,45.27l-24.125,45.27Zm-15.488,-45.27l15.488,29.066l15.488,-29.066l-15.488,-29.064l-15.488,29.064Z" style="fill:#fff;fill-rule:nonzero;"/><path d="M710.915,1074.04l-24.125,-45.27l24.125,-45.27l24.125,45.27l-24.125,45.27Zm-15.488,-45.27l15.488,29.066l15.487,-29.066l-15.487,-29.064l-15.488,29.064Z" style="fill:#fff;fill-rule:nonzero;"/><path d="M750.229,1074.04l-24.125,-45.27l24.125,-45.27l24.125,45.27l-24.125,45.27Zm-15.488,-45.27l15.488,29.066l15.488,-29.066l-15.488,-29.064l-15.488,29.064Z" style="fill:#fff;fill-rule:nonzero;"/></g></g></g></g></g></g></g><path d="M750,33.216c-0,-18.333 -14.883,-33.216 -33.216,-33.216l-683.568,-0c-18.333,-0 -33.216,14.883 -33.216,33.216l-0,983.568c-0,18.333 14.883,33.216 33.216,33.216l683.568,0c18.333,0 33.216,-14.883 33.216,-33.216l-0,-983.568Z" style="fill:none;stroke:#fff;stroke-width:41.67px;"/></svg>