<?xml version="1.0" encoding="UTF-8" standalone="no"?><!DOCTYPE svg PUBLIC "-//W3C//DTD SVG 1.1//EN" "http://www.w3.org/Graphics/SVG/1.1/DTD/svg11.dtd"><svg width="100%" height="100%" viewBox="0 0 750 1050" version="1.1" xmlns="http://www.w3.org/2000/svg" xmlns:xlink="http://www.w3.org/1999/xlink" xml:space="preserve" xmlns:serif="http://www.serif.com/" style="fill-rule:evenodd;clip-rule:evenodd;stroke-linejoin:round;stroke-miterlimit:2;"><path d="M45.549,15.988l658.895,-0c15.216,-0 27.65,11.1 27.65,24.694l0,968.64c0,13.591 -12.434,24.694 -27.65,24.694l-658.895,0c-15.217,0 -27.647,-11.103 -27.647,-24.694l0,-968.64c0,-13.588 12.43,-24.694 27.647,-24.694" style="fill:#fff;"/><path d="M45.549,15.988l658.895,-0c15.216,-0 27.65,11.1 27.65,24.694l0,968.64c0,13.591 -12.434,24.694 -27.65,24.694l-658.895,0c-15.217,0 -27.647,-11.103 -27.647,-24.694l0,-968.64c0,-13.588 12.43,-24.694 27.647,-24.694" style="fill:#be2025;"/><path d="M732.075,525c0.013,0.216 0.019,0.432 0.019,0.65l0,495.729c0,6.955 -6.363,12.637 -14.151,12.637l-337.206,0c-7.788,0 -14.149,-5.682 -14.149,-12.637l-0,-2.336l365.487,-494.043Z" style="fill:#761317;"/><path d="M10.553,525.004c-0.013,-0.217 -0.019,-0.433 -0.019,-0.651l0,-495.727c0,-6.956 6.364,-12.638 14.151,-12.638l337.206,-0c7.787,-0 14.149,5.682 14.149,12.638l-0,2.335l-365.487,494.043Z" style="fill:#781417;"/><path d="M45.549,20.556l658.895,0c12.4,0 22.539,9.058 22.539,20.124l0,968.643c0,11.073 -10.139,20.127 -22.539,20.127l-658.895,0c-12.397,0 -22.532,-9.054 -22.532,-20.127l-0,-968.643c-0,-11.066 10.135,-20.124 22.532,-20.124m0.004,-20.556l658.891,-0c25.057,-0 45.556,18.308 45.556,40.68l0,968.643c0,22.376 -20.499,40.677 -45.556,40.677l-658.891,0c-25.054,0 -45.553,-18.301 -45.553,-40.677l-0,-968.643c-0,-22.372 20.499,-40.68 45.553,-40.68"/><path d="M374.996,20.556l351.987,504.449l-351.987,504.445l-351.979,-504.445l351.979,-504.449Zm20.29,-9.789l344.172,493.253l0,41.967l-344.172,493.249l-40.576,0l-344.176,-493.249l0,-41.967l344.176,-493.253l40.576,0Z"/><path d="M374.996,234.65l202.598,290.355l-202.598,290.349l-202.59,-290.349l202.59,-290.355Zm0,-38.86l229.712,329.215l-229.712,329.212l-229.707,-329.212l229.707,-329.215Z"/><path d="M374.996,433.964l63.522,91.043l-63.522,91.033l-63.518,-91.033l63.518,-91.043Zm0,-38.867l90.64,129.91l-90.64,129.9l-90.636,-129.9l90.636,-129.91Z"/><path d="M600.018,8.367l26.41,0.077l114.486,164.413l-0.35,37.354l-140.546,-201.844Zm-116.86,-0.349l26.41,0.073l229.834,330.07l-0.343,37.351l-255.901,-367.494Z"/><path d="M149.866,8.367l-26.41,0.077l-114.475,164.413l0.338,37.354l140.547,-201.844Zm116.864,-0.349l-26.41,0.073l-229.827,330.07l0.335,37.351l255.902,-367.494Z"/><path d="M600.018,1038.14l26.41,-0.08l114.486,-164.406l-0.35,-37.357l-140.546,201.843Zm-116.86,0.353l26.41,-0.08l229.834,-330.067l-0.343,-37.35l-255.901,367.497Z"/><path d="M149.866,1038.14l-26.41,-0.08l-114.475,-164.406l0.338,-37.357l140.547,201.843Zm116.864,0.353l-26.41,-0.08l-229.827,-330.067l0.335,-37.35l255.902,367.497Z"/></svg>